<svg width="312" height="343" viewBox="0 0 312 343" fill="none" xmlns="http://www.w3.org/2000/svg">
<path d="M249.802 292.601C247.902 277.801 239.502 252.901 234.402 246.201C228.802 238.901 226.502 236.601 207.802 230.301C206.802 225.301 203.102 212.701 198.702 207.401C192.002 197.301 173.702 195.001 168.202 196.201C168.202 196.201 138.602 185.801 104.502 185.801C93.7016 188.201 81.2016 193.101 74.4016 203.401C69.8016 210.201 75.0016 212.401 72.7016 218.601C72.1016 220.201 58.1016 228.201 52.4016 233.001C49.8016 235.101 46.9016 240.401 44.9016 247.301C40.9016 261.401 45.2016 280.901 40.2016 297.901C30.6016 330.701 11.1016 340.501 11.1016 340.501H269.502C269.302 340.401 253.902 323.801 249.802 292.601Z" fill="white"/>
<path d="M248.3 292.802C246.3 279.702 242.3 266.702 237.2 254.502C234.7 248.602 230.9 242.902 225.6 239.402C222.9 237.702 219.9 236.402 216.8 235.102C213.7 233.902 210.5 232.802 207.4 231.702C206.9 231.502 206.5 231.102 206.4 230.602C206 228.602 205.5 226.702 204.9 224.702C202.3 216.602 199.5 207.602 191.9 202.902C186.1 199.402 179.2 197.702 172.5 197.402C171.2 197.402 169.8 197.402 168.6 197.602H168.2C168.1 197.602 167.9 197.602 167.8 197.502C163 195.202 157.7 193.802 152.5 192.402C136.9 188.802 120.6 187.302 104.6 187.202C94.8 189.502 81.1 194.902 75.1 204.902C74.1 206.502 73.6 208.102 73.8 209.902C74 211.902 74.7 214.102 74.2 216.202C74 217.102 73.8 218.102 73.4 218.902C72.6 220.002 71.3 220.702 70.3 221.402C65.1 224.802 59.8 227.802 54.8 231.302C53.1 232.502 51.5 233.602 50.3 235.302C46.8 240.302 44.7 246.302 43.8 252.302C42.2 264.502 43.8 276.902 42.2 289.102C40.4 301.302 35.7 313.102 29.1 323.502C24.5 330.502 18.9 337.002 11.8 341.502L11.1 338.702H269.5L268.4 341.202C265.4 337.802 263 334.102 260.8 330.202C254 318.802 250 305.902 248.3 292.802ZM251.3 292.402C252.4 300.902 254.5 309.302 257.7 317.302C260.9 325.202 264.9 332.902 270.5 339.402C271.3 340.302 270.6 342.002 269.4 341.902H11C10.2 341.902 9.5 341.202 9.5 340.402C9.5 339.802 9.8 339.302 10.3 339.102C11.9 338.202 13.5 336.902 15 335.602C28.1 323.802 36.3 306.302 39 288.902C41.3 272.602 37 255.002 44.3 239.502C46 235.902 48.1 232.102 51.5 229.802C57.7 225.202 64.5 221.802 70.6 217.302C70.7 217.302 70.7 217.202 70.7 217.202C70.6 217.302 70.5 217.502 70.5 217.602C71.1 216.202 71.3 215.002 71.1 213.402C70.8 211.402 70.3 208.702 71 206.602C71.3 205.402 71.9 204.302 72.5 203.402C79.7 192.602 92.4 187.802 104.5 185.102C107.9 185.202 111.4 184.602 114.8 184.602C119.5 184.602 124.3 185.302 129 185.902C142.5 188.002 155.5 191.602 168.8 194.502L167.9 194.402C171 193.802 173.9 194.102 176.9 194.502C196.1 197.402 202.6 205.802 207.8 223.702C208.4 225.702 208.9 227.702 209.4 229.802L208.4 228.602C218 232.002 228.8 235.102 234.9 244.002C237.1 246.702 238.7 249.902 240.1 253.102C245.2 265.902 249.2 278.802 251.3 292.402Z" fill="black"/>
<path d="M92.2012 226.801C99.6012 242.601 111.101 256.001 124.801 266.601C125.301 267.001 124.801 267.801 124.201 267.501C112.001 261.701 101.701 251.801 95.6012 239.801C93.6012 235.801 91.9012 231.501 91.3012 227.001C91.1012 226.501 91.9012 226.301 92.2012 226.801Z" fill="black"/>
<path d="M209.298 230.102C209.598 246.802 202.798 263.902 189.798 274.702C189.498 275.002 189.098 274.902 188.798 274.602C188.498 274.302 188.598 273.902 188.898 273.602C191.798 270.802 194.698 267.902 196.898 264.502C201.498 257.902 204.298 250.102 205.598 242.202C206.198 238.302 206.598 234.102 206.298 230.202C206.198 228.302 209.198 228.102 209.298 230.102Z" fill="black"/>
<path d="M150.4 269.8C148.1 277.9 146.2 286.7 147.3 295.1C147.6 297 144.7 297.5 144.3 295.5C143.8 290.9 144.4 286.4 145.2 282C146.1 277.6 147.2 273.4 148.7 269.2C149.1 268.2 150.8 268.7 150.4 269.8Z" fill="black"/>
<path d="M182.2 268.302C185.5 275.402 187.8 282.802 189.6 290.302C189.8 291.102 189.3 291.902 188.5 292.102C187.7 292.302 186.9 291.802 186.7 291.002C185.7 285.402 184.4 279.802 182.6 274.302C182 272.502 181.4 270.702 180.7 268.902C180.3 268.002 181.7 267.302 182.2 268.302Z" fill="black"/>
<path d="M74.8009 218.2C78.5009 238.4 92.7009 255.5 109.801 266.4C115.601 270.1 121.801 273.3 128.201 275.9C128.601 276.1 128.801 276.5 128.601 276.9C128.501 277.3 128.001 277.5 127.701 277.3C121.101 274.9 114.701 271.9 108.701 268.3C96.5009 261.1 85.8009 251.1 78.6009 238.9C74.9009 232.6 72.0009 226 70.6009 218.8C70.4009 217.6 71.2009 216.5 72.4009 216.3C73.5009 216 74.7009 216.9 74.8009 218.2Z" fill="black"/>
<path d="M144.401 297.303C141.601 297.003 139.601 294.403 140.201 291.603L141.301 286.303C141.701 284.203 143.701 282.703 145.801 283.003C147.901 283.203 149.601 285.003 149.601 287.203V292.603C149.701 295.403 147.301 297.603 144.401 297.303Z" fill="black"/>
<path d="M190.501 293.6C187.801 294.6 184.901 293 184.201 290.2L182.901 284.9C182.401 282.8 183.501 280.7 185.601 279.9C187.601 279.2 189.901 280.1 190.801 282L193.201 286.9C194.401 289.6 193.201 292.7 190.501 293.6Z" fill="black"/>
<path d="M60.2008 340.402C60.2008 340.402 59.3008 318.102 56.3008 312.102" stroke="black" stroke-width="5.1257" stroke-miterlimit="10" stroke-linecap="round" stroke-linejoin="round"/>
<path d="M236.699 290.602C236.699 290.602 242.299 322.002 240.099 340.402" stroke="black" stroke-width="5.1257" stroke-miterlimit="10" stroke-linecap="round" stroke-linejoin="round"/>
<path d="M220.601 320.801C220.601 320.801 205.801 323.001 192.801 322.401" stroke="black" stroke-width="5.1257" stroke-miterlimit="10" stroke-linecap="round" stroke-linejoin="round"/>
<path d="M106.1 214.603C104.7 210.603 104.1 206.503 104.4 202.303C104.4 201.903 104.7 201.703 105.1 201.703C105.4 201.703 105.7 202.003 105.7 202.303C106 206.103 107.1 210.003 108.9 213.303C109.8 215.303 106.8 216.603 106.1 214.603Z" fill="black"/>
<path d="M173.702 219.903C170.902 213.603 164.002 210.403 157.902 208.203C154.102 207.003 149.902 206.103 145.902 205.503C136.202 204.003 122.502 201.703 112.802 200.703C112.702 200.703 112.702 200.503 112.802 200.503C115.602 200.203 118.402 200.203 121.202 200.203C129.602 200.403 138.002 201.303 146.302 202.603C154.602 203.903 163.502 206.403 169.802 212.403C171.802 214.503 173.602 216.903 174.102 219.803C174.202 220.103 173.802 220.203 173.702 219.903Z" fill="black"/>
<path d="M183.003 245.6C180.903 255.9 167.303 262.1 144.403 252.8C120.603 243.2 110.303 220.3 107.703 213.5C121.803 187.1 112.003 168.8 112.003 168.8C144.503 166 172.903 204 172.903 204L177.303 222.8C177.703 224.4 178.503 225.8 179.703 226.8C181.803 230.5 184.303 239 183.003 245.6Z" fill="white"/>
<path d="M107.203 213.8C109.103 210.9 110.303 207.5 111.103 204.2C112.603 197.3 113.103 190.3 113.203 183.3V180.7C112.903 178.1 112.003 175.4 111.003 173C109.703 169.8 114.403 167.8 115.903 171C116.103 171.4 116.103 172.1 116.103 172.5C116.403 186.1 117.003 203.6 108.403 214.9C107.803 215.5 106.603 214.6 107.203 213.8Z" fill="black"/>
<path d="M174.001 203.802C175.501 204.702 176.001 205.902 176.201 207.102C176.801 209.502 176.601 212.102 177.201 214.602C177.701 217.002 179.201 219.302 179.601 221.802C180.101 224.402 181.601 229.902 182.201 232.602C182.401 233.202 182.001 233.902 181.301 234.002C180.901 234.102 180.601 234.002 180.301 233.802C179.001 232.702 178.401 231.602 177.601 230.202C176.301 227.802 175.401 225.602 174.601 222.902C173.901 220.502 174.201 217.902 173.601 215.402C173.101 213.002 171.701 210.702 171.201 208.202C170.901 207.002 170.801 205.702 171.701 204.202C172.301 203.602 173.301 203.402 174.001 203.802Z" fill="black"/>
<path d="M181.201 230.202C162.101 229.202 146.501 223.202 131.301 196.102C144.101 207.402 159.201 211.702 175.101 213.702L177.201 222.902C177.601 224.502 180.001 229.202 181.201 230.202Z" fill="black"/>
<path d="M180.402 226.499C183.802 232.899 185.802 240.899 183.702 247.999C182.102 252.999 177.502 256.699 172.502 258.099C160.902 261.199 147.502 256.299 137.202 250.799C124.502 243.699 115.102 231.799 109.102 218.799C108.702 217.799 110.102 216.999 110.702 217.999C112.802 222.199 115.202 226.299 117.902 229.999C120.602 233.799 123.702 237.299 127.202 240.399C137.402 249.599 151.202 255.299 165.002 255.299C179.202 254.899 184.602 247.399 181.302 233.599C180.802 231.399 180.002 229.099 178.902 227.199C178.302 226.399 179.802 225.499 180.402 226.499Z" fill="black"/>
<path d="M219.102 106.4C220.902 114.8 219.502 120.4 218.702 143.6C209.502 182 210.202 203.3 205.102 208.4C201.102 212.4 177.202 217.6 159.502 213.1C150.502 210.8 142.902 205.6 136.702 201.9C128.902 197.2 123.002 181.9 117.402 172.6C113.002 165.3 112.502 174.9 106.802 168.6C98.9021 160 89.4021 142.7 94.1021 112.1C101.702 62.5001 141.002 56.7001 170.102 62.2001C199.302 67.7001 214.302 84.3001 219.102 106.4Z" fill="white"/>
<path d="M111.702 177.399C108.202 171.599 103.202 166.799 100.002 160.799C90.3023 142.599 88.3023 120.499 93.9023 100.699C105.602 58.4989 148.002 52.2989 184.802 64.6989C205.402 71.6989 219.902 89.0989 222.002 110.999C222.202 117.999 220.402 124.499 220.302 131.399C219.802 149.599 214.102 167.099 211.902 184.599C211.402 190.099 211.402 195.899 210.602 201.499C210.402 202.699 210.202 203.799 209.802 205.099C208.902 207.799 206.902 209.699 204.702 211.199C196.402 216.299 187.002 217.199 177.602 217.699C158.002 218.499 140.802 212.799 129.102 196.499C128.702 195.899 129.502 195.199 130.002 195.799C143.102 209.799 158.802 214.299 177.402 213.399C185.302 212.999 202.202 211.499 205.702 203.799C207.402 197.499 207.402 190.899 208.402 184.299C209.502 176.499 212.502 165.599 214.302 157.899C216.302 149.199 218.002 140.399 218.102 131.499C218.202 126.999 218.202 122.499 218.202 117.999C218.402 113.499 217.502 109.599 216.402 105.299C212.402 88.1989 200.102 73.9989 183.502 67.6989C167.202 61.3989 148.302 59.7989 131.602 65.2989C114.602 70.6989 103.002 85.2989 98.6023 102.299C96.3023 110.699 95.1023 119.499 94.5023 128.199C94.0023 136.999 94.9023 145.999 98.4023 154.199C100.902 160.399 105.002 165.799 109.802 170.299L114.502 175.199C116.702 177.199 113.302 179.799 111.702 177.399Z" fill="black"/>
<path d="M123.501 145.6C123.501 145.6 120.401 130.6 105.801 132.4C93.2014 134 88.8014 164.2 117.401 172.6" fill="white"/>
<path d="M116.103 159.499C113.803 158.199 112.203 155.999 112.103 153.299C112.203 151.299 112.503 148.999 112.003 146.999C111.703 145.099 109.703 144.599 108.203 144.699C106.603 144.999 105.603 146.999 105.303 148.599C105.303 148.699 105.203 148.999 105.203 149.099C105.103 149.599 104.303 149.599 104.103 149.099C102.803 145.199 105.703 140.899 109.903 141.399C115.803 141.799 116.603 147.999 115.503 152.699C114.903 154.699 115.703 156.499 116.803 158.199L117.003 158.499C117.503 159.099 116.703 159.899 116.103 159.499Z" fill="black"/>
<path d="M196.102 135C197.602 142.1 200.402 148.7 203.902 154.9C207.002 162.5 199.002 169.7 191.902 169.4C191.102 169.4 191.002 168.3 191.702 168.1C196.202 166.7 200.302 163.7 201.002 159.1C201.302 157.7 200.902 156.5 200.202 155.3C196.902 149.1 194.902 142 195.402 135C195.402 134.5 196.102 134.5 196.102 135Z" fill="black"/>
<path d="M123 145.7C120.7 139.8 115.7 134.2 109 134.3C108.4 134.2 107.4 134.4 106.8 134.4C105.1 134.5 103.7 135.1 102.4 136.3C96 142.7 97.1 154 102.3 161.1C104.1 163.6 106.4 165.8 109 167.6C111.6 169.4 114.5 170.8 117.6 172C118.3 172.2 118 173.3 117.3 173.2C110.6 171.8 104.2 168.5 99.8 163C93 154.8 91.6 141.1 99.7 133.1C101.5 131.5 104 130.3 106.5 130.3C107.3 130.3 108.5 130.1 109.3 130.3C113.5 130.5 117.5 132.6 120.1 135.9C122.4 138.7 123.7 142.1 124.1 145.5C124.1 146.1 123.2 146.3 123 145.7Z" fill="black"/>
<path d="M187.675 55.8625L187.675 55.8627C187.675 55.8627 187.675 55.8627 187.676 55.862L188.58 55.46C186.47 48.1125 187.701 43.8057 190.439 41.9359C193.222 40.0357 197.869 40.4151 203.128 43.1902C213.583 48.7069 225.82 63.4055 228.403 85.4561C229.496 94.8009 228.899 103.148 227.509 110.1L227.508 110.106C227.099 112.286 225.535 113.412 224.008 113.499C222.498 113.584 220.94 112.658 220.489 110.499C219.18 103.802 216.365 98.1595 212.278 95.5873C210.217 94.2898 207.845 93.7847 205.232 94.3158C202.632 94.8443 199.828 96.3911 196.86 99.1306L196.859 99.1319C195.644 100.262 194.544 100.835 193.521 101.037C192.502 101.238 191.509 101.08 190.489 100.662C189.461 100.24 188.42 99.5595 187.318 98.7309C186.667 98.2414 186.017 97.718 185.342 97.1745C184.863 96.7887 184.371 96.3927 183.857 95.9914C181.421 94.0893 178.643 92.1913 175.247 91.5123C171.83 90.8291 167.854 91.3921 163.044 94.2683C157.57 97.5119 153.574 101.893 149.654 106.199L149.61 106.247C145.693 110.551 141.85 114.774 136.644 117.868L136.644 117.868L136.633 117.875C133.986 119.541 130.733 120.826 127.045 122.022L126.74 122.121L126.703 122.44C126.472 124.422 126.264 126.375 126.063 128.256C125.741 131.283 125.438 134.125 125.091 136.604C124.811 138.61 124.505 140.356 124.142 141.75C123.929 142.569 123.701 143.243 123.461 143.768C122.88 142 121.668 139.18 119.459 136.714C116.676 133.608 112.32 131.079 105.737 131.902L105.734 131.902C102.49 132.328 99.8033 134.496 98.0018 137.58C96.1998 140.665 95.2576 144.702 95.5 148.976C95.9819 157.474 101.147 166.932 113.599 171.84C113.621 173.18 113.896 174.75 114.238 176.368C114.388 177.078 114.55 177.793 114.711 178.508C114.958 179.597 115.204 180.686 115.408 181.754C115.744 183.515 115.944 185.129 115.823 186.428C115.736 187.36 115.491 188.075 115.055 188.575C115.026 188.432 114.992 188.272 114.952 188.096C114.757 187.239 114.412 186.003 113.815 184.467C112.621 181.393 110.419 177.121 106.383 172.278L106.382 172.277C100.191 164.887 86.8248 146.935 89.6949 125.063L89.7909 124.331L89.0759 124.513C83.5318 125.924 79.6663 124.459 77.1885 122.005C74.6835 119.524 73.5512 115.986 73.5991 113.207L73.5991 113.205C73.747 102.261 78.6001 94.248 83.4308 88.9602C85.8466 86.3158 88.2535 84.357 90.0553 83.06C90.9559 82.4118 91.7045 81.9296 92.226 81.6104C92.4868 81.4508 92.6907 81.332 92.8284 81.2537C92.8973 81.2145 92.9496 81.1854 92.9842 81.1664L93.0227 81.1455L93.0317 81.1406L93.0335 81.1396L93.0337 81.1396L93.0338 81.1395L93.905 80.677L93.0168 80.2478L93.0167 80.2478L93.0164 80.2476L93.0139 80.2464L93.0027 80.2409L92.9556 80.2175C92.9135 80.1964 92.8506 80.1645 92.7689 80.122C92.6056 80.0371 92.3678 79.91 92.0731 79.7431C91.4834 79.4092 90.6681 78.9173 89.769 78.287C87.9621 77.0201 85.8554 75.2208 84.5392 73.0511C83.2351 70.9016 82.7178 68.4154 84.012 65.6822C85.325 62.9095 88.5392 59.7991 94.9263 56.5434C109.596 49.0841 121.23 47.8538 129.173 48.4715C133.147 48.7805 136.203 49.5525 138.26 50.2438C139.289 50.5894 140.067 50.9149 140.586 51.1522C140.845 51.2709 141.039 51.3675 141.167 51.4335C141.231 51.4665 141.278 51.4919 141.309 51.5086L141.342 51.527L141.349 51.531L141.35 51.5315L141.35 51.5317L187.675 55.8625ZM187.675 55.8625L187.674 55.8608L187.669 55.8524L187.645 55.8158C187.624 55.7828 187.591 55.7328 187.547 55.6669C187.459 55.5351 187.325 55.3396 187.144 55.0892C186.783 54.5885 186.236 53.8686 185.498 52.9999C184.021 51.2622 181.78 48.9311 178.73 46.5682C172.634 41.8445 163.307 36.993 150.381 36.4976C144.813 36.2989 141.606 37.147 139.87 38.4227C138.187 39.6598 137.813 41.3607 138.093 43.1714C138.378 45.0086 139.335 46.9024 140.248 48.3608C140.701 49.0847 141.136 49.6903 141.457 50.1144C141.618 50.3263 141.749 50.4925 141.841 50.6049C141.886 50.6612 141.921 50.7039 141.945 50.7323L141.971 50.7638L141.978 50.7712L141.979 50.7728L141.979 50.773L141.979 50.7731C141.979 50.7731 141.979 50.7731 141.979 50.7735L141.351 51.5299L187.675 55.8625Z" fill="black" stroke="#323232"/>
<path d="M179.501 130.4C181.701 130.7 183.401 128.4 182.601 126.2C182.201 125 181.501 123.9 180.401 123.2C177.001 121.1 164.301 120.9 157.601 125.7C151.601 130.1 169.501 129 179.501 130.4Z" fill="black"/>
<path d="M207.199 131.502C205.399 131.502 204.299 129.202 205.199 127.302C205.699 126.302 206.399 125.402 207.399 124.902C210.499 123.402 218.799 124.302 222.499 129.402C225.799 133.902 215.499 131.402 207.199 131.502Z" fill="black"/>
<path d="M175.801 143.299C170.701 141.099 164.901 141.699 159.601 142.899C159.001 143.099 158.601 142.299 159.101 141.899C163.701 138.099 172.401 137.599 176.101 142.799C176.401 142.999 176.201 143.399 175.801 143.299Z" fill="black"/>
<path d="M215.101 145.402C212.701 143.702 209.201 144.002 206.401 144.302C205.401 144.402 204.401 144.602 203.301 144.902C203.001 145.002 202.701 144.502 202.901 144.302L203.101 144.102C205.601 141.502 209.501 140.902 212.901 142.202C214.101 142.702 215.301 143.402 215.901 144.802C216.201 145.302 215.501 145.802 215.101 145.402Z" fill="black"/>
<path d="M188.502 185.399C182.102 191.499 170.002 186.599 166.802 179.199C166.402 178.299 167.402 177.499 168.202 177.899C169.902 178.799 171.402 179.699 173.002 180.399C177.602 182.499 182.402 184.199 187.502 183.699C188.502 183.499 189.202 184.699 188.502 185.399Z" fill="black"/>
</svg>
