<svg width="83" height="83" viewBox="0 0 85 85" fill="none" xmlns="http://www.w3.org/2000/svg">
<path d="M49.6394 66.6175C49.0697 69.4113 45.3809 71.093 39.1694 68.5704C32.7139 65.9665 29.9201 59.755 29.2148 57.9106C33.0394 50.7498 30.3812 45.7861 30.3812 45.7861C39.1965 45.0266 46.8998 55.3338 46.8998 55.3338L48.0933 60.4332C48.2018 60.8671 48.4188 61.2469 48.7443 61.5181C49.3139 62.5217 49.992 64.8273 49.6394 66.6175Z" fill="white"/>
<path d="M29.0795 57.9922C29.5949 57.2056 29.9204 56.2834 30.1374 55.3883C30.5442 53.5167 30.6798 51.618 30.707 49.7193V49.0141C30.6256 48.3089 30.3815 47.5765 30.1102 46.9255C29.7576 46.0576 31.0325 45.5151 31.4393 46.383C31.4936 46.4915 31.4936 46.6814 31.4936 46.7899C31.5749 50.4788 31.7377 55.2255 29.405 58.2906C29.2423 58.4533 28.9168 58.2092 29.0795 57.9922Z" fill="black"/>
<path d="M47.2001 55.2791C47.6069 55.5232 47.7425 55.8487 47.7968 56.1742C47.9595 56.8252 47.9053 57.5304 48.068 58.2085C48.2037 58.8595 48.6105 59.4834 48.719 60.1615C48.8546 60.8667 49.2615 62.3585 49.4242 63.0909C49.4785 63.2536 49.37 63.4435 49.1801 63.4706C49.0716 63.4977 48.9903 63.4706 48.9089 63.4164C48.5563 63.118 48.3935 62.8196 48.1765 62.4399C47.8239 61.7889 47.5798 61.1922 47.3628 60.4598C47.1729 59.8088 47.2543 59.1036 47.0916 58.4255C46.956 57.7745 46.5762 57.1507 46.4406 56.4726C46.3592 56.1471 46.3321 55.7945 46.5762 55.3876C46.739 55.2249 47.0102 55.1706 47.2001 55.2791Z" fill="black"/>
<path d="M49.1522 62.4407C43.9714 62.1695 39.7401 60.5421 35.6172 53.1914C39.0891 56.2564 43.1848 57.4228 47.4976 57.9653L48.0672 60.4607C48.1757 60.8947 48.8267 62.1695 49.1522 62.4407Z" fill="black"/>
<path d="M48.9329 61.438C49.8552 63.174 50.3977 65.3439 49.828 67.2697C49.3941 68.6259 48.1463 69.6295 46.7901 70.0093C43.6437 70.8501 40.0091 69.521 37.2153 68.0292C33.7705 66.1034 31.2209 62.8756 29.5934 59.3495C29.4849 59.0782 29.8646 58.8612 30.0274 59.1325C30.597 60.2717 31.248 61.3838 31.9803 62.3874C32.7127 63.4181 33.5535 64.3674 34.5029 65.2083C37.2696 67.7037 41.0127 69.2498 44.7558 69.2498C48.6075 69.1413 50.0722 67.107 49.1771 63.3638C49.0414 62.7671 48.8245 62.1432 48.5261 61.6279C48.3633 61.4109 48.7702 61.1668 48.9329 61.438Z" fill="black"/>
<path d="M59.4319 28.8609C59.9202 31.1393 59.5404 32.6583 59.3234 38.9511C56.8279 49.3668 57.0179 55.1442 55.6346 56.5276C54.5496 57.6125 48.0669 59.023 43.2659 57.8024C40.8247 57.1785 38.7633 55.7681 37.0816 54.7645C34.9659 53.4897 33.3656 49.3397 31.8466 46.8171C30.6532 44.837 30.5176 47.441 28.9715 45.7321C26.8287 43.3995 24.2519 38.707 25.5267 30.407C27.5881 16.9534 38.2479 15.3802 46.1411 16.872C54.0613 18.3638 58.13 22.8665 59.4319 28.8609Z" fill="white"/>
<path d="M30.299 48.119C29.3496 46.5458 27.9934 45.2439 27.1255 43.6164C24.4944 38.6798 23.9519 32.6854 25.4709 27.3148C28.6444 15.8684 40.1451 14.1867 50.1268 17.5501C55.7143 19.4488 59.6474 24.1684 60.217 30.1086C60.2712 32.0073 59.783 33.7703 59.7559 35.6419C59.6202 40.5785 58.0742 45.3252 57.4774 50.072C57.3418 51.5638 57.3418 53.137 57.1248 54.656C57.0706 54.9815 57.0163 55.2798 56.9078 55.6324C56.6637 56.3648 56.1212 56.8801 55.5245 57.287C53.2732 58.6703 50.7235 58.9145 48.1738 59.0501C42.8575 59.2671 38.1921 57.721 35.0186 53.2998C34.9101 53.137 35.1271 52.9471 35.2627 53.1099C38.816 56.9073 43.0745 58.1279 48.1196 57.8837C50.2624 57.7752 54.8464 57.3684 55.7957 55.2798C56.2568 53.571 56.2568 51.7808 56.5281 49.9906C56.8264 47.8749 57.6402 44.9184 58.1284 42.8298C58.6709 40.47 59.132 38.0831 59.1591 35.669C59.1862 34.4485 59.1862 33.2279 59.1862 32.0073C59.2405 30.7867 58.9964 29.7288 58.698 28.5625C57.613 23.9243 54.2768 20.0726 49.7742 18.3638C45.3529 16.655 40.2264 16.221 35.6967 17.7128C31.0856 19.1775 27.9392 23.1377 26.7457 27.7488C26.1219 30.0272 25.7964 32.4141 25.6336 34.7739C25.498 37.1609 25.7421 39.602 26.6915 41.8262C27.3696 43.5079 28.4817 44.9726 29.7836 46.1932L31.0585 47.5223C31.6552 48.0648 30.733 48.77 30.299 48.119Z" fill="black"/>
<path d="M33.4979 39.4941C33.4979 39.4941 32.6571 35.4255 28.6969 35.9137C25.2793 36.3477 24.0858 44.5392 31.8433 46.8176" fill="white"/>
<path d="M31.4923 43.264C30.8684 42.9114 30.4344 42.3147 30.4073 41.5823C30.4344 41.0398 30.5158 40.416 30.3802 39.8735C30.2988 39.3582 29.7563 39.2225 29.3495 39.2497C28.9155 39.331 28.6442 39.8735 28.5629 40.3075C28.5629 40.3346 28.5357 40.416 28.5357 40.4431C28.5086 40.5787 28.2916 40.5787 28.2374 40.4431C27.8848 39.3853 28.6714 38.2189 29.8106 38.3546C31.4109 38.4631 31.6279 40.1448 31.3295 41.4196C31.1668 41.9621 31.3838 42.4503 31.6822 42.9114L31.7364 42.9928C31.872 43.1555 31.655 43.3725 31.4923 43.264Z" fill="black"/>
<path d="M53.1915 36.6193C53.5984 38.5451 54.3579 40.3353 55.3072 42.017C56.1481 44.0784 53.9781 46.0314 52.0523 45.95C51.8353 45.95 51.8082 45.6516 51.9981 45.5974C53.2187 45.2177 54.3307 44.4039 54.5206 43.1562C54.602 42.7765 54.4935 42.451 54.3036 42.1255C53.4085 40.4438 52.866 38.518 53.0017 36.6193C53.0017 36.4837 53.1915 36.4837 53.1915 36.6193Z" fill="black"/>
<path d="M33.3648 39.5215C32.741 37.9212 31.3848 36.4023 29.5674 36.4294C29.4047 36.4023 29.1334 36.4565 28.9707 36.4565C28.5096 36.4836 28.1299 36.6464 27.7772 36.9719C26.0413 38.7078 26.3397 41.7729 27.7501 43.6987C28.2384 44.3768 28.8622 44.9735 29.5674 45.4617C30.2727 45.95 31.0593 46.3297 31.9001 46.6552C32.09 46.7095 32.0086 47.0078 31.8187 46.9807C30.0014 46.601 28.2655 45.7059 27.072 44.214C25.2276 41.9898 24.8478 38.2738 27.0449 36.1039C27.5331 35.6699 28.2112 35.3444 28.8893 35.3444C29.1063 35.3444 29.4318 35.2902 29.6488 35.3444C30.788 35.3987 31.873 35.9683 32.5782 36.8634C33.2021 37.6229 33.5547 38.5451 33.6632 39.4673C33.6632 39.63 33.4191 39.6843 33.3648 39.5215Z" fill="black"/>
<path d="M62.088 23.1631C60.6776 11.12 48.7158 7.05136 51.0214 15.0801C51.0214 15.0801 47.8749 10.035 40.7955 9.76378C34.7197 9.54679 38.4086 13.8595 38.4086 13.8595C38.4086 13.8595 33.689 11.1471 25.6874 15.2157C18.7164 18.769 25.172 21.8883 25.172 21.8883C25.172 21.8883 19.9099 24.6821 19.8285 30.7037C19.8014 32.2769 21.1034 34.6909 24.1955 33.9043C23.4089 39.8988 27.0707 44.8082 28.7524 46.8154C30.9223 49.4193 31.1122 51.3994 31.1122 51.3994C32.2243 50.7755 30.9223 47.9818 30.9495 46.5171C24.1684 43.9131 25.389 36.3455 28.6981 35.9115C32.17 35.4775 33.255 38.5697 33.4449 39.3291C34.0145 38.651 34.1772 36.02 34.5027 33.2262C35.5063 32.9007 36.4014 32.5481 37.1338 32.087C40.0089 30.3782 41.3651 27.4216 44.2946 25.6857C49.421 22.6206 50.7501 29.5373 53.4897 26.9876C56.6632 24.0582 58.9687 26.3909 59.674 29.9984C59.9452 31.3004 61.5998 31.1919 61.8439 29.8899C62.2236 27.9912 62.3864 25.7128 62.088 23.1631Z" fill="black"/>
<path d="M45.0735 41.3836C44.4225 41.3565 43.9342 40.814 43.9885 40.163L44.0156 39.4035C44.0427 38.7526 44.5852 38.2643 45.2362 38.3186C45.8872 38.3457 46.3754 38.8882 46.3212 39.5392L46.294 40.2986C46.2669 40.9225 45.7244 41.4107 45.0735 41.3836Z" fill="black"/>
<path d="M56.4928 41.7904C55.8961 41.7632 55.435 41.2479 55.4621 40.6511L55.4892 39.9459C55.5163 39.3492 56.0317 38.8881 56.6284 38.9152C57.2251 38.9423 57.6863 39.4577 57.6591 40.0544L57.632 40.7596C57.6049 41.3564 57.0895 41.8175 56.4928 41.7904Z" fill="black"/>
<path d="M47.5133 39.9197C46.6182 39.3229 45.6417 38.9161 44.5567 39.1331C44.2041 39.1873 43.8515 39.2958 43.6345 39.5399C43.5532 39.6484 43.3633 39.6213 43.3633 39.4586C43.3904 38.9161 43.8515 38.5635 44.2855 38.3465C45.1264 37.9125 46.2927 37.9939 47.0522 38.5635C47.3234 38.7262 48.2456 39.7298 47.7574 39.9468C47.6489 40.001 47.5947 39.9739 47.5133 39.9197Z" fill="black"/>
<path d="M55.2695 40.0548C55.2695 38.9156 56.68 38.5087 57.548 38.9156C58.0362 39.1326 58.3888 39.5666 58.5244 40.0819C58.5787 40.2447 58.3346 40.3803 58.2261 40.2447C57.765 39.7022 56.9784 39.4309 56.3545 39.7564C56.1646 39.8649 56.1375 39.9463 56.0833 40.0548C56.0833 40.5973 55.2967 40.5702 55.2695 40.0548Z" fill="black"/>
<path d="M48.8157 35.4438C49.3853 35.6337 49.9549 35.1183 49.8464 34.4945C49.7922 34.169 49.6565 33.8435 49.3853 33.5994C48.5716 32.867 45.2082 32.216 43.1739 33.1654C41.3837 34.0334 46.2118 34.5758 48.8157 35.4438Z" fill="black"/>
<path d="M56.9277 35.8788C56.4666 36.0415 55.9784 35.5533 56.0597 34.9837C56.0869 34.6853 56.1954 34.3869 56.4123 34.1699C57.0633 33.5189 59.2875 33.0036 60.698 34.0072C61.9186 34.848 59.0434 35.0921 56.9277 35.8788Z" fill="black"/>
<path d="M51.1294 50.6607C49.3935 52.3152 46.1114 50.9862 45.2435 48.979C45.135 48.7348 45.4062 48.5179 45.6232 48.6263C46.0843 48.8705 46.4912 49.1146 46.9252 49.3045C48.1729 49.8741 49.4748 50.3352 50.8582 50.1996C51.1294 50.1453 51.3193 50.4708 51.1294 50.6607Z" fill="black"/>
</svg>
