<svg width="270" height="250" viewBox="0 0 270 250" fill="none" xmlns="http://www.w3.org/2000/svg">
<g clip-path="url(#clip0_143_760)">
<g filter="url(#filter0_d_143_760)">
<path d="M101.662 201.281C99.9266 200.552 92.4618 196.69 94.831 185.303C89.7864 182.625 85.2311 179.787 81.3253 176.904C76.8948 179.844 71.0201 182.246 65.4281 179.888C63.5633 179.104 61.9337 177.835 60.7142 176.233C59.5461 174.689 54.7769 167.24 63.5068 158.217C62.2351 157.207 61.0111 156.19 59.8396 155.182C44.5217 141.953 41.0589 131.37 41.8252 123.777C30.4898 112.25 26.6831 101.828 30.5051 92.7549C30.8342 91.9727 31.223 91.2093 31.6689 90.4695C31.8834 89.6524 32.1502 88.8564 32.474 88.0841C34.272 83.8106 38.582 78.1883 48.8715 75.4508C49.1135 75.3756 49.3654 75.3056 49.617 75.2482L50.4071 75.069C51.0738 74.9198 51.7755 74.7763 52.4819 74.648C55.3552 74.1282 58.5799 73.8184 62.0607 73.7193C62.394 73.7111 62.7398 73.7031 63.0856 73.6951C63.6995 73.6827 64.3282 73.678 64.9642 73.6835C66.1813 73.6908 67.4479 73.7242 68.7242 73.7753L69.56 73.81C69.6901 73.8151 69.8176 73.8252 69.9452 73.8354C70.7883 73.8801 71.6463 73.9327 72.5241 73.9958C77.2442 67.4252 83.8061 62.0318 91.8189 58.1983C94.6264 56.8532 97.6001 55.7093 100.7 54.7708C94.0819 51.5124 91.0681 43.589 93.9663 36.7057C96.975 29.5641 105.234 26.2015 112.375 29.2102C116.229 30.8317 118.982 33.9937 120.224 37.6832C127.191 42.2261 131.129 47.5987 133.362 52.3153C142.156 53.3841 150.909 55.7345 159.463 59.3406C168.147 63.0019 176.045 67.6991 183.027 73.3568C187.951 71.6692 194.539 70.7494 202.624 72.5527C206.135 70.8687 210.32 70.6337 214.174 72.2553C221.315 75.2639 224.678 83.5225 221.669 90.6641C218.75 97.5996 210.882 100.965 203.894 98.4105C205.344 101.223 206.568 104.08 207.544 106.965C210.34 115.217 211.092 123.533 209.785 131.373C210.477 131.958 211.158 132.538 211.82 133.12C211.958 133.231 212.094 133.346 212.226 133.467C212.226 133.467 212.91 134.079 212.915 134.082C214.531 135.52 216.094 136.987 217.562 138.442C217.957 138.833 218.345 139.227 218.728 139.618C219.579 140.489 220.347 141.291 221.057 142.07C221.976 143.078 222.832 144.06 223.599 144.994C224.03 145.512 224.437 146.023 224.823 146.53L225.377 147.245C225.53 147.446 225.671 147.647 225.81 147.852C232.205 156.636 233.939 164.659 230.973 171.708C230.644 172.491 230.252 173.259 229.814 173.996C229.599 174.813 229.325 175.612 229.004 176.379C227.314 180.387 223.39 185.769 214.264 188.638C210.156 189.932 205.227 190.63 199.57 190.73C194.56 196.42 184.574 201.095 164.825 199.409C163.287 199.277 161.713 199.107 160.104 198.907C159.742 211.457 151.083 213.249 149.159 213.49C147.166 213.745 145.12 213.46 143.25 212.673C137.668 210.32 135.283 204.46 134.288 199.243C129.178 198.41 123.602 197.008 117.78 195.086C111.297 204.626 103.368 201.995 101.638 201.268L101.662 201.281Z" fill="white"/>
<path d="M101.662 201.281C99.9266 200.552 92.4618 196.69 94.831 185.303C89.7864 182.625 85.2311 179.787 81.3253 176.904C76.8948 179.844 71.0201 182.246 65.4281 179.888C63.5633 179.104 61.9337 177.835 60.7142 176.233C59.5461 174.689 54.7769 167.24 63.5068 158.217C62.2351 157.207 61.0111 156.19 59.8396 155.182C44.5217 141.953 41.0589 131.37 41.8252 123.777C30.4898 112.25 26.6831 101.828 30.5051 92.7549C30.8342 91.9727 31.223 91.2093 31.6689 90.4695C31.8834 89.6524 32.1502 88.8564 32.474 88.0841C34.272 83.8106 38.582 78.1883 48.8715 75.4508C49.1135 75.3756 49.3654 75.3056 49.617 75.2482L50.4071 75.069C51.0738 74.9198 51.7755 74.7763 52.4819 74.648C55.3552 74.1282 58.5799 73.8184 62.0607 73.7193C62.394 73.7111 62.7398 73.7031 63.0856 73.6951C63.6995 73.6827 64.3282 73.678 64.9642 73.6835C66.1813 73.6908 67.4479 73.7242 68.7242 73.7753L69.56 73.81C69.6901 73.8151 69.8176 73.8252 69.9452 73.8354C70.7883 73.8801 71.6463 73.9327 72.5241 73.9958C77.2442 67.4252 83.8061 62.0318 91.8189 58.1983C94.6264 56.8532 97.6001 55.7093 100.7 54.7708C94.0819 51.5124 91.0681 43.589 93.9663 36.7057C96.975 29.5641 105.234 26.2015 112.375 29.2102C116.229 30.8317 118.982 33.9937 120.224 37.6832C127.191 42.2261 131.129 47.5987 133.362 52.3153C142.156 53.3841 150.909 55.7345 159.463 59.3406C168.147 63.0019 176.045 67.6991 183.027 73.3568C187.951 71.6692 194.539 70.7494 202.624 72.5527C206.135 70.8687 210.32 70.6337 214.174 72.2553C221.315 75.2639 224.678 83.5225 221.669 90.6641C218.75 97.5996 210.882 100.965 203.894 98.4105C205.344 101.223 206.568 104.08 207.544 106.965C210.34 115.217 211.092 123.533 209.785 131.373C210.477 131.958 211.158 132.538 211.82 133.12C211.958 133.231 212.094 133.346 212.226 133.467C212.226 133.467 212.91 134.079 212.915 134.082C214.531 135.52 216.094 136.987 217.562 138.442C217.957 138.833 218.345 139.227 218.728 139.618C219.579 140.489 220.347 141.291 221.057 142.07C221.976 143.078 222.832 144.06 223.599 144.994C224.03 145.512 224.437 146.023 224.823 146.53L225.377 147.245C225.53 147.446 225.671 147.647 225.81 147.852C232.205 156.636 233.939 164.659 230.973 171.708C230.644 172.491 230.252 173.259 229.814 173.996C229.599 174.813 229.325 175.612 229.004 176.379C227.314 180.387 223.39 185.769 214.264 188.638C210.156 189.932 205.227 190.63 199.57 190.73C194.56 196.42 184.574 201.095 164.825 199.409C163.287 199.277 161.713 199.107 160.104 198.907C159.742 211.457 151.083 213.249 149.159 213.49C147.166 213.745 145.12 213.46 143.25 212.673C137.668 210.32 135.283 204.46 134.288 199.243C129.178 198.41 123.602 197.008 117.78 195.086C111.297 204.626 103.368 201.995 101.638 201.268L101.662 201.281Z" stroke="white" stroke-width="2" stroke-miterlimit="10" stroke-linecap="round"/>
</g>
<path d="M110.838 181.03C132.282 190.065 151.869 192.159 154.588 185.707C157.306 179.255 142.125 166.701 120.681 157.666C99.2368 148.631 79.6493 146.538 76.9311 152.989C74.2129 159.441 89.3934 171.995 110.838 181.03Z" fill="#6748BF"/>
<path d="M110.548 181.724C88.3879 172.388 73.3232 159.64 76.2425 152.704C79.1644 145.764 98.8117 147.643 120.971 156.98C143.131 166.316 158.196 179.064 155.276 186C152.355 192.94 132.707 191.061 110.548 181.724ZM120.392 158.358C97.5795 148.748 79.8556 147.975 77.6207 153.284C75.3858 158.593 88.314 170.736 111.127 180.346C133.94 189.957 151.663 190.73 153.898 185.421C156.133 180.112 143.205 167.968 120.392 158.358Z" fill="#302348"/>
<path d="M113.504 174.544C152.132 190.818 187.725 193.855 193.003 181.328C198.281 168.801 171.245 145.452 132.617 129.178C93.9889 112.903 58.396 109.866 53.1181 122.393C47.8402 134.921 74.8759 158.269 113.504 174.544Z" fill="#7666CB"/>
<path d="M113.215 175.232C94.462 167.333 77.8244 157.528 66.3606 147.629C54.6876 137.55 49.7436 128.485 52.4336 122.106C55.1237 115.726 65.0637 112.932 80.4298 114.243C95.5234 115.53 114.161 120.592 132.914 128.492C151.667 136.391 168.305 146.196 179.768 156.095C191.441 166.174 196.386 175.239 193.695 181.618C191.005 187.997 181.065 190.792 165.699 189.481C150.606 188.193 131.968 183.132 113.215 175.232ZM132.328 129.872C113.716 122.028 95.2377 117.012 80.2966 115.735C65.8456 114.5 56.1889 117.033 53.8043 122.687C51.4222 128.336 56.3514 137.02 67.3329 146.501C78.6785 156.301 95.1802 166.015 113.791 173.859C132.403 181.703 150.879 186.724 165.822 187.996C180.273 189.231 189.93 186.698 192.315 181.044C194.697 175.395 189.765 166.716 178.786 157.23C167.44 147.431 150.939 137.716 132.328 129.872Z" fill="#302348"/>
<path d="M219.148 172.228C213.394 185.89 171.795 181.389 122.433 160.589C73.0701 139.789 34.6366 110.572 40.3908 96.9092C40.7277 96.1121 41.1986 95.3729 41.801 94.6965C40.9717 109.171 77.8225 136.297 124.402 155.918C170.876 175.497 210.463 180.636 219.744 169.771C219.672 170.631 219.48 171.453 219.156 172.226L219.148 172.228Z" fill="#175E17"/>
<path d="M122.141 161.276C98.3645 151.261 75.816 138.645 60.2848 126.664C44.1025 114.189 36.7944 103.52 39.703 96.6171C40.0662 95.758 40.5838 94.9421 41.2402 94.1991L42.6733 92.5804L42.5516 94.7368C41.7533 108.671 78.6039 135.809 124.694 155.23C169.333 174.04 209.959 180.08 219.178 169.283L220.682 167.518L220.492 169.829C220.413 170.774 220.196 171.678 219.846 172.513C216.9 179.51 205.255 182.193 187.065 180.068C168.958 177.954 145.9 171.277 122.148 161.274L122.141 161.276ZM41.1943 96.9331C41.15 97.0174 41.113 97.1118 41.0736 97.1987C38.4915 103.325 45.8244 113.633 61.1931 125.478C76.6307 137.385 99.0579 149.93 122.72 159.898C146.345 169.853 169.253 176.49 187.231 178.586C204.413 180.593 215.791 178.18 218.447 171.973C206.11 181.048 167.567 174.921 124.115 156.608C79.0453 137.617 43.8523 112.09 41.2018 96.9308L41.1943 96.9331Z" fill="#302348"/>
<path d="M221.12 167.552C220.783 168.349 220.317 169.091 219.739 169.768C210.458 180.633 170.869 175.499 124.397 155.915C77.8201 136.289 40.9667 109.168 41.796 94.6939C41.8463 93.8283 42.0308 93.0081 42.3547 92.2358C43.7314 88.968 47.366 86.7356 52.7832 85.5164C56.9602 84.5624 62.1991 84.2237 68.2775 84.4782C71.9261 84.6254 75.8783 84.9892 80.0792 85.5659C81.408 87.2135 83.1059 89.1817 85.1627 91.3576C95.0243 101.838 113.033 117.361 137.148 127.321C160.25 136.862 179.299 137.294 192.113 136.504C194.884 136.335 195.994 135.825 197.755 135.422C200.632 137.663 203.324 139.894 205.784 142.086C210.074 145.91 213.674 149.625 216.351 153.089C220.763 158.787 222.679 163.817 221.107 167.552L221.12 167.552Z" fill="#8F84CB"/>
<path d="M124.107 156.611C76.6862 136.629 40.2027 109.418 41.0505 94.6561C41.1051 93.6979 41.3115 92.788 41.6693 91.9513C43.1171 88.5121 46.808 86.1005 52.6202 84.7917C56.8374 83.8335 62.1167 83.4781 68.3127 83.7375C71.9662 83.8873 75.961 84.2545 80.1869 84.8318L80.4816 84.8729L80.6697 85.1046C82.1524 86.9407 83.8485 88.8763 85.7141 90.8505C94.0093 99.6657 111.758 116.007 137.44 126.633C155.158 133.951 173.03 136.933 192.076 135.757C194.029 135.639 195.107 135.346 196.248 135.041C196.684 134.922 197.117 134.808 197.6 134.695L197.945 134.617L198.223 134.833C201.105 137.076 203.822 139.333 206.291 141.53C210.726 145.488 214.316 149.223 216.956 152.635C221.798 158.888 223.426 164.008 221.81 167.852C221.447 168.711 220.944 169.522 220.313 170.266C210.531 181.722 170.07 175.983 124.109 156.618L124.107 156.611ZM79.6891 86.2717C75.6205 85.7202 71.7731 85.3736 68.2496 85.2289C62.1838 84.9747 57.0375 85.3178 52.9486 86.2486C47.6245 87.4471 44.2928 89.5605 43.0425 92.5278C42.7556 93.2057 42.5851 93.9511 42.5414 94.7441C41.7431 108.678 78.5937 135.817 124.686 155.232C169.326 174.042 209.951 180.082 219.171 169.286C219.702 168.66 220.126 167.985 220.429 167.265C221.803 164.002 220.192 159.258 215.773 153.55C213.192 150.207 209.668 146.538 205.299 142.647C202.933 140.542 200.339 138.388 197.586 136.238C197.254 136.316 196.944 136.4 196.634 136.484C195.471 136.796 194.267 137.124 192.163 137.252C172.889 138.44 154.797 135.418 136.866 128.014C110.93 117.318 92.9974 100.772 84.6237 91.8776C82.8121 89.9571 81.1525 88.0723 79.6914 86.2793L79.6891 86.2717Z" fill="#302348"/>
<path d="M174.191 151.05C174.299 148.848 175.278 146.902 176.731 145.509C178.19 144.119 180.136 143.282 182.261 143.305C184.387 143.329 186.313 144.215 187.739 145.641C189.165 147.068 190.094 149.043 190.144 151.246C190.194 153.448 189.336 155.464 187.876 156.93C186.419 158.39 184.349 159.295 182.073 159.268C179.792 159.239 177.748 158.291 176.323 156.789C174.896 155.292 174.089 153.254 174.196 151.052L174.191 151.05Z" fill="white"/>
<path d="M178.698 159.309C177.601 158.846 176.598 158.167 175.777 157.299C174.158 155.6 173.327 153.366 173.446 151.012C173.558 148.718 174.543 146.566 176.219 144.968C177.879 143.386 180.031 142.531 182.274 142.559C184.518 142.588 186.648 143.493 188.27 145.111C189.912 146.753 190.84 148.923 190.896 151.223C190.953 153.581 190.068 155.792 188.406 157.449C186.76 159.101 184.447 160.035 182.065 160.004C180.896 159.99 179.754 159.744 178.701 159.304L178.698 159.309ZM184.892 144.606C184.063 144.259 183.17 144.068 182.254 144.054C180.406 144.031 178.628 144.741 177.251 146.048C175.854 147.382 175.034 149.171 174.939 151.083C174.847 153.027 175.528 154.872 176.862 156.269C178.198 157.674 180.098 158.489 182.083 158.514C184.064 158.537 185.981 157.768 187.351 156.401C188.714 155.036 189.445 153.212 189.399 151.266C189.356 149.351 188.579 147.545 187.212 146.174C186.532 145.494 185.746 144.967 184.892 144.606Z" fill="#302348"/>
<path d="M216.364 153.089C215.245 153.652 213.966 153.967 212.609 153.949C210.331 153.927 208.284 152.971 206.864 151.472C205.43 149.978 204.63 147.938 204.738 145.736C204.8 144.402 205.186 143.163 205.799 142.081C210.089 145.905 213.69 149.621 216.366 153.084L216.364 153.089Z" fill="white"/>
<path d="M209.242 154C208.145 153.537 207.142 152.858 206.32 151.99C204.704 150.299 203.873 148.065 203.984 145.701C204.048 144.304 204.452 142.923 205.145 141.712L205.605 140.91L206.294 141.525C210.731 145.478 214.319 149.218 216.959 152.63L217.513 153.345L216.703 153.755C215.44 154.388 214.024 154.712 212.604 154.693C211.44 154.681 210.298 154.435 209.245 153.995L209.242 154ZM206.03 143.303C205.705 144.088 205.518 144.913 205.481 145.779C205.386 147.728 206.069 149.568 207.406 150.96C208.742 152.365 210.644 153.188 212.622 153.203C213.493 153.218 214.36 153.073 215.175 152.787C212.808 149.841 209.743 146.66 206.034 143.306L206.03 143.303Z" fill="#302348"/>
<path d="M135.751 144.837C136.423 142.742 137.858 141.106 139.572 140.109C141.293 139.109 143.297 138.727 145.296 139.209C147.297 139.686 148.937 140.946 150.025 142.619C151.107 144.302 151.628 146.416 151.245 148.587C150.865 150.753 149.629 152.564 147.875 153.698C146.126 154.834 143.865 155.271 141.577 154.726C139.289 154.181 137.448 152.751 136.398 150.934C135.343 149.114 135.077 146.937 135.751 144.837Z" fill="white"/>
<path d="M139.977 154.979C138.201 154.229 136.702 152.941 135.759 151.306C134.568 149.263 134.317 146.879 135.044 144.604C135.737 142.445 137.212 140.614 139.199 139.457C141.151 138.32 143.382 137.975 145.478 138.476C147.582 138.975 149.421 140.302 150.664 142.209C151.919 144.153 152.393 146.464 151.996 148.71C151.583 151.049 150.27 153.04 148.295 154.317C146.32 155.607 143.815 156.017 141.42 155.447C140.926 155.326 140.446 155.169 139.984 154.977L139.977 154.979ZM136.468 145.062C135.871 146.931 136.079 148.881 137.052 150.556C138.041 152.259 139.754 153.514 141.76 153.993C143.756 154.468 145.837 154.132 147.474 153.063C149.101 152.015 150.179 150.374 150.519 148.452C150.848 146.575 150.451 144.646 149.403 143.02C148.373 141.441 146.858 140.34 145.126 139.929C143.378 139.51 141.589 139.797 139.949 140.75C138.279 141.725 137.046 143.253 136.468 145.062Z" fill="#302348"/>
<path d="M101.66 126.19C102.976 124.421 104.878 123.353 106.856 123.008C108.839 122.665 110.906 123.043 112.645 124.223C114.379 125.4 115.472 127.171 115.88 129.138C116.286 131.097 116.006 133.253 114.863 135.138C113.725 137.026 111.912 138.261 109.872 138.688C107.835 139.109 105.581 138.715 103.669 137.419C101.76 136.117 100.577 134.18 100.226 132.141C99.869 130.1 100.344 127.959 101.657 126.195L101.66 126.19Z" fill="white"/>
<path d="M104.824 138.892C104.275 138.661 103.747 138.377 103.246 138.031C101.257 136.676 99.8876 134.576 99.4867 132.259C99.0881 129.949 99.6413 127.634 101.058 125.734C102.43 123.894 104.444 122.663 106.729 122.264C108.983 121.874 111.233 122.348 113.063 123.595C114.888 124.84 116.149 126.749 116.61 128.977C117.077 131.241 116.684 133.565 115.504 135.519C114.275 137.555 112.329 138.936 110.022 139.412C108.294 139.775 106.472 139.582 104.826 138.888L104.824 138.892ZM101.659 126.19L102.259 126.638C101.095 128.202 100.635 130.111 100.964 132.011C101.293 133.924 102.43 135.673 104.09 136.799C105.757 137.935 107.807 138.355 109.719 137.956C111.613 137.566 113.212 136.427 114.225 134.752C115.21 133.119 115.54 131.18 115.151 129.286C114.768 127.44 113.731 125.863 112.226 124.838C110.717 123.81 108.854 123.419 106.989 123.742C105.081 124.073 103.402 125.101 102.262 126.633L101.662 126.185L101.659 126.19Z" fill="#302348"/>
<path d="M72.2159 100.593C75.3302 97.4731 80.3108 97.3971 83.4266 100.326C86.5399 103.26 86.7539 108.231 83.8287 111.532C80.9062 114.828 75.7848 115.052 72.4798 111.941C69.1797 108.833 69.0966 103.71 72.2109 100.59L72.2159 100.593Z" fill="white"/>
<path d="M74.6124 114.214C73.6489 113.808 72.7592 113.227 71.968 112.482C70.2159 110.833 69.2319 108.614 69.1929 106.234C69.1555 103.899 70.0418 101.708 71.6859 100.061C75.0405 96.7008 80.5356 96.5727 83.9413 99.7805C87.3961 103.039 87.5917 108.418 84.3923 112.024C82.8515 113.764 80.7195 114.774 78.3807 114.879C77.0721 114.938 75.7895 114.706 74.615 114.209L74.6124 114.214ZM80.8335 99.5191C78.1716 98.3977 74.917 98.9448 72.7487 101.12C71.396 102.477 70.6679 104.283 70.696 106.214C70.7283 108.186 71.5448 110.026 72.9994 111.398C74.4541 112.77 76.3455 113.48 78.3159 113.39C80.2412 113.302 82.0014 112.469 83.2729 111.037C85.8928 108.088 85.7281 103.529 82.9171 100.874C82.2955 100.288 81.5883 99.8401 80.8385 99.5217L80.8335 99.5191Z" fill="#302348"/>
<path d="M66.3199 88.5982C63.3973 91.8945 58.276 92.1179 54.971 89.0074C53.9094 88.0064 53.1804 86.7943 52.7832 85.5164C56.9603 84.5624 62.1992 84.2237 68.2775 84.4782C68.0395 85.9535 67.3865 87.3878 66.3149 88.5956L66.3199 88.5982Z" fill="white"/>
<path d="M57.1085 91.2826C56.145 90.8772 55.2553 90.2955 54.464 89.5505C53.3459 88.5008 52.5213 87.1816 52.0751 85.7323L51.8354 84.9611L52.6255 84.7818C56.8427 83.8237 62.122 83.4682 68.318 83.7276L69.1587 83.7648L69.0266 84.5937C68.7597 86.2562 68.0191 87.8089 66.8834 89.0906C65.3427 90.8298 63.2107 91.8406 60.8767 91.9482C59.5682 92.0066 58.2856 91.775 57.1035 91.28L57.1085 91.2826ZM53.7914 86.0655C54.1863 86.9627 54.7632 87.7784 55.4856 88.4619C56.9452 89.8367 58.8317 90.5439 60.807 90.4566C62.7323 90.3682 64.4925 89.5351 65.7591 88.1008C66.5103 87.2496 67.0565 86.259 67.3589 85.1907C62.0804 85.0152 57.5236 85.3077 53.7865 86.0629L53.7914 86.0655Z" fill="#302348"/>
<path d="M197.049 137.126C197.049 137.126 197.037 137.126 197.032 137.123C194.866 137.332 192.382 137.557 189.611 137.725C176.797 138.515 157.749 138.083 134.646 128.542C110.528 118.587 92.5274 103.062 82.6609 92.5788C80.604 90.4029 78.9111 88.4373 77.5773 86.7871C77.5773 86.7871 77.5674 86.7819 77.5625 86.7793C87.5071 63.1744 122.316 55.3128 155.309 69.2137C188.303 83.1146 206.992 113.514 197.044 137.123L197.049 137.126Z" fill="#2C7F4D"/>
<path d="M133.418 128.845C107.98 118.127 90.3849 101.891 82.1168 93.0961C80.2757 91.1475 78.5917 89.2372 77.1162 87.4113L76.9871 87.3561L76.7689 86.7605L76.882 86.4974C86.9689 62.5498 122.285 54.4932 155.606 68.5285C188.928 82.5639 207.829 113.473 197.74 137.413L197.626 137.689L197.06 137.935L196.929 137.885C194.73 138.095 192.329 138.307 189.666 138.475C170.392 139.664 152.301 136.642 134.369 129.238C134.056 129.111 133.741 128.977 133.43 128.845L133.418 128.845ZM78.4339 86.6618C79.8485 88.3988 81.4543 90.2174 83.2072 92.069C91.5024 100.884 109.251 117.251 134.933 127.852C152.651 135.169 170.523 138.152 189.569 136.976C192.112 136.82 194.412 136.619 196.53 136.417C205.907 113.291 187.39 83.5393 155.022 69.9041C122.654 56.269 88.4386 63.797 78.4339 86.6618Z" fill="#302348"/>
<path d="M136.464 113.541C148.712 118.701 161.781 115.432 165.654 106.239C169.527 97.0454 162.738 85.4096 150.49 80.2493C138.242 75.0891 125.173 78.3585 121.299 87.5517C117.426 96.745 124.216 108.381 136.464 113.541Z" fill="white"/>
<path d="M136.168 114.23C123.559 108.915 116.578 96.8185 120.611 87.2609C124.638 77.7008 138.17 74.2456 150.78 79.56C163.389 84.8745 170.37 96.9713 166.343 106.531C162.315 116.092 148.783 119.547 136.173 114.232L136.168 114.23ZM150.196 80.9356C138.346 75.9448 125.692 79.0397 121.989 87.8401C118.28 96.6379 124.906 107.858 136.75 112.847C148.6 117.837 161.253 114.743 164.957 105.942C168.661 97.1418 162.04 85.9238 150.191 80.933L150.196 80.9356Z" fill="#302348"/>
<path d="M149.341 101.653C149.128 102.155 151.85 103.884 151.613 104.36C147.999 111.581 141.461 115.653 136.48 113.552C131.171 111.318 129.647 102.919 133.069 94.7988C136.491 86.6789 143.569 81.9047 148.87 84.1419C153.717 86.1845 155.409 93.3621 153.066 100.778C152.841 101.482 149.636 100.948 149.341 101.653Z" fill="#302348"/>
<path d="M178.668 88.891C178.601 88.8621 178.539 88.8233 178.48 88.7795C178.162 88.5175 178.111 88.0481 178.376 87.7255C178.466 87.6146 187.462 76.9789 205.65 83.8474C206.053 83.9834 206.231 84.4253 206.086 84.8105C205.94 85.1958 205.508 85.3923 205.123 85.2467C187.981 78.7702 179.868 88.2694 179.534 88.6758C179.321 88.9369 178.963 89.0148 178.668 88.891Z" fill="#302348"/>
<path d="M207.174 88.1663C208.805 89.0241 210.823 88.397 211.681 86.7658C212.539 85.1345 211.912 83.1168 210.28 82.259C208.649 81.4013 206.631 82.0283 205.774 83.6596C204.916 85.2909 205.543 87.3086 207.174 88.1663Z" fill="#EBB017"/>
<path d="M207.143 88.9722C205.067 88.0957 204.089 85.6964 204.965 83.6205C205.842 81.5446 208.239 80.5718 210.317 81.4433C212.396 82.3148 213.371 84.719 212.497 86.7899C211.623 88.8609 209.221 89.8436 207.145 88.9672L207.143 88.9722ZM209.73 82.8238C208.414 82.271 206.894 82.8885 206.341 84.2047C205.788 85.5208 206.406 87.0411 207.722 87.594C209.038 88.1468 210.558 87.5292 211.111 86.2131C211.664 84.897 211.046 83.3767 209.73 82.8238Z" fill="#302348"/>
<path d="M125.29 66.2459C124.995 66.1221 124.798 65.81 124.835 65.4752C124.894 64.9429 126.017 52.5083 109.415 44.7655C109.038 44.5925 108.879 44.1484 109.052 43.7713C109.23 43.3967 109.664 43.2328 110.046 43.4084C127.663 51.6278 126.335 65.4983 126.32 65.6358C126.274 66.0481 125.905 66.3411 125.492 66.2951C125.42 66.2886 125.347 66.2696 125.285 66.2433L125.29 66.2459Z" fill="#302348"/>
<path d="M105.373 45.1136C107.004 45.9714 109.022 45.3443 109.88 43.7131C110.737 42.0818 110.11 40.0641 108.479 39.2063C106.848 38.3486 104.83 38.9756 103.972 40.6069C103.115 42.2382 103.742 44.2559 105.373 45.1136Z" fill="#EBB017"/>
<path d="M105.339 45.9244C103.263 45.048 102.285 42.6487 103.162 40.5728C104.038 38.4969 106.437 37.5191 108.513 38.3955C110.589 39.272 111.567 41.6713 110.691 43.7472C109.814 45.823 107.415 46.8009 105.339 45.9244ZM107.927 39.7761C106.61 39.2232 105.09 39.8408 104.537 41.1569C103.984 42.473 104.602 43.9934 105.918 44.5462C107.234 45.0991 108.755 44.4815 109.307 43.1654C109.86 41.8493 109.243 40.3289 107.927 39.7761Z" fill="#302348"/>
<path d="M64.7046 135.763C63.7003 136.987 61.1922 136.668 59.0654 134.734C57.0997 132.878 56.4301 130.47 57.5207 129.31C58.6064 128.148 61.0843 128.717 63.0009 130.521C64.8205 132.174 65.724 134.534 64.7095 135.766L64.7046 135.763Z" fill="white"/>
<path d="M60.9281 136.605C60.1558 136.281 59.3871 135.782 58.6838 135.147C56.4773 133.063 55.7867 130.334 57.1029 128.926C57.5611 128.439 58.2104 128.167 58.9872 128.145C60.3831 128.101 62.0261 128.839 63.3751 130.111C65.2536 131.82 66.4302 134.539 65.1306 136.12C64.6888 136.66 64.0211 136.979 63.2109 137.04C62.4935 137.093 61.7077 136.939 60.9205 136.608L60.9281 136.605ZM60.6179 129.604C60.0592 129.367 59.5131 129.25 59.0244 129.266C58.5482 129.281 58.1746 129.426 57.9262 129.694C57.0634 130.613 57.7639 132.734 59.4494 134.328C60.6173 135.392 62.0349 136.004 63.1361 135.919C63.4848 135.894 63.9604 135.783 64.2711 135.409C65.0288 134.485 64.2717 132.436 62.6194 130.934C61.9977 130.348 61.3007 129.893 60.6229 129.606L60.6179 129.604Z" fill="#302348"/>
<path d="M61.4716 134.032C61.4255 134.083 61.8027 134.497 61.7516 134.546C61.0134 135.252 59.9093 135.355 59.1446 134.655C58.3928 133.944 58.4448 132.75 59.2002 131.939C59.9632 131.126 61.1796 131.038 61.8897 131.708C62.5239 132.295 62.6075 133.351 62.0623 134.171C62.0081 134.25 61.5282 133.96 61.464 134.034L61.4716 134.032Z" fill="#302348"/>
<path d="M79.9103 146.631C79.0589 147.973 76.5085 147.891 74.2605 146.367C72.0099 144.849 70.9705 142.518 71.9036 141.225C72.8315 139.942 75.3147 140.128 77.4862 141.592C79.6578 143.057 80.7693 145.286 79.9179 146.628L79.9103 146.631Z" fill="white"/>
<path d="M75.3722 147.61C74.8904 147.407 74.4073 147.147 73.9454 146.834C72.3816 145.778 71.297 144.316 71.0474 142.926C70.9104 142.151 71.0476 141.445 71.4445 140.895C72.5452 139.367 75.3382 139.469 77.7938 141.128C80.2964 142.817 81.4075 145.311 80.3851 146.931C80.0202 147.505 79.4237 147.893 78.649 148.055C77.6756 148.258 76.5169 148.092 75.3771 147.612L75.3722 147.61ZM75.9252 141.385C74.403 140.743 72.9223 140.767 72.3552 141.557C72.082 141.932 72.095 142.401 72.1533 142.735C72.3441 143.816 73.2734 145.032 74.5704 145.91C75.8623 146.786 77.3393 147.189 78.4134 146.963C78.7403 146.895 79.187 146.731 79.433 146.335C80.0929 145.297 79.0534 143.34 77.1636 142.061C76.7585 141.785 76.3373 141.564 75.9226 141.39L75.9252 141.385Z" fill="#302348"/>
<path d="M76.4988 145.299C76.4626 145.356 76.8834 145.722 76.8399 145.769C76.2049 146.567 75.1157 146.798 74.3251 146.269C73.48 145.71 73.3246 144.49 73.9569 143.576C74.5918 142.657 75.7545 142.383 76.5824 142.926C77.331 143.427 77.5427 144.468 77.1062 145.359C77.0619 145.443 76.5557 145.215 76.4988 145.299Z" fill="#302348"/>
<path d="M96.0862 156.003C95.7188 156.701 94.8941 157.103 93.8739 157.142C92.8538 157.181 91.6251 156.883 90.4362 156.233C88.0663 154.917 86.8192 152.705 87.621 151.337C88.4281 149.958 90.9261 149.911 93.2191 151.193C94.3759 151.82 95.2676 152.675 95.7882 153.55C96.3038 154.422 96.4562 155.299 96.0836 156.008L96.0862 156.003Z" fill="white"/>
<path d="M90.9568 157.108C90.6936 156.994 90.4257 156.866 90.1631 156.728C88.5039 155.805 87.2944 154.448 86.9264 153.091C86.7214 152.337 86.7934 151.635 87.1308 151.054C88.0961 149.41 90.8869 149.252 93.4895 150.703C94.6909 151.353 95.6791 152.265 96.2673 153.264C96.9113 154.349 97.0223 155.413 96.5741 156.266C96.1207 157.128 95.1406 157.656 93.8874 157.706C92.97 157.742 91.9474 157.534 90.9492 157.11L90.9568 157.108ZM92.2294 151.331C90.4491 150.578 88.6615 150.669 88.1061 151.617C87.9193 151.936 87.8886 152.331 88.0145 152.79C88.301 153.845 89.3323 154.976 90.7067 155.742C91.7495 156.31 92.8978 156.616 93.8478 156.578C94.6875 156.545 95.3224 156.24 95.5856 155.74C95.9347 155.075 95.5607 154.259 95.304 153.833C94.8149 153.006 93.9814 152.245 92.9485 151.683C92.7083 151.551 92.4678 151.431 92.2294 151.331Z" fill="#302348"/>
<path d="M92.5758 154.967C92.5446 155.026 92.9937 155.351 92.9575 155.408C92.3941 156.263 91.3305 156.589 90.4958 156.131C89.604 155.65 89.343 154.45 89.8887 153.484C90.4396 152.509 91.5718 152.136 92.4437 152.607C93.2414 153.039 93.5362 154.055 93.1842 154.977C93.1498 155.066 92.6251 154.885 92.5732 154.972L92.5758 154.967Z" fill="#302348"/>
<path d="M112.963 164.042C112.339 165.504 109.828 165.803 107.354 164.711C104.892 163.581 103.473 161.481 104.163 160.047C104.856 158.609 107.338 158.364 109.735 159.46C112.143 160.524 113.589 162.574 112.965 164.037L112.963 164.042Z" fill="white"/>
<path d="M107.279 165.285C107.23 165.259 107.18 165.246 107.131 165.22C105.404 164.426 104.092 163.167 103.618 161.842C103.353 161.108 103.37 160.402 103.662 159.797C104.492 158.075 107.267 157.694 109.974 158.946C112.694 160.149 114.239 162.48 113.484 164.253C113.224 164.868 112.703 165.341 111.986 165.622C110.724 166.122 108.976 165.994 107.285 165.276L107.279 165.285ZM109.288 159.877C107.275 159.026 105.19 159.202 104.669 160.288C104.507 160.62 104.509 161.014 104.67 161.465C105.04 162.495 106.161 163.539 107.587 164.195C109.035 164.823 110.557 164.984 111.569 164.587C112.008 164.413 112.302 164.156 112.446 163.821C112.943 162.659 111.592 160.898 109.502 159.976C109.432 159.94 109.358 159.913 109.286 159.882L109.288 159.877Z" fill="#302348"/>
<path d="M109.387 163.275C109.356 163.334 109.836 163.625 109.804 163.684C109.31 164.576 108.273 164.985 107.409 164.607C106.485 164.197 106.131 163.018 106.598 162.011C107.067 160.998 108.168 160.527 109.074 160.934C109.901 161.299 110.279 162.289 109.996 163.235C109.97 163.322 109.431 163.191 109.392 163.277L109.387 163.275Z" fill="#302348"/>
<path d="M130.405 170.765C130.149 171.516 129.395 172.024 128.389 172.229C127.38 172.439 126.128 172.305 124.862 171.849C122.316 170.94 120.752 168.922 121.328 167.441C121.91 165.963 124.36 165.549 126.841 166.437C128.08 166.885 129.086 167.617 129.74 168.384C130.39 169.156 130.663 170.009 130.405 170.765Z" fill="white"/>
<path d="M124.236 172.209C122.687 171.559 121.471 170.502 120.934 169.321C120.606 168.598 120.561 167.879 120.809 167.238C121.504 165.458 124.181 164.892 127.035 165.912C128.295 166.366 129.405 167.12 130.172 168.03C130.982 168.993 131.259 170.031 130.939 170.951C130.62 171.871 129.757 172.525 128.507 172.785C127.393 173.015 126.031 172.874 124.676 172.383C124.527 172.33 124.38 172.272 124.241 172.212L124.236 172.209ZM126.998 167.101C126.884 167.054 126.775 167.009 126.658 166.966C124.465 166.18 122.31 166.489 121.86 167.645C121.686 168.084 121.819 168.541 121.958 168.854C122.414 169.853 123.604 170.801 125.056 171.324C126.219 171.746 127.366 171.875 128.282 171.686C129.127 171.51 129.698 171.121 129.88 170.584C130.125 169.865 129.634 169.126 129.314 168.749C128.742 168.068 127.929 167.496 126.998 167.101Z" fill="#302348"/>
<path d="M126.78 170.282C126.759 170.347 127.252 170.6 127.226 170.662C126.796 171.588 125.797 172.068 124.91 171.747C123.96 171.399 123.51 170.271 123.904 169.232C124.294 168.19 125.365 167.621 126.299 167.961C127.147 168.274 127.596 169.237 127.386 170.202C127.364 170.292 126.82 170.196 126.785 170.285L126.78 170.282Z" fill="#302348"/>
<path d="M148.283 176.237C147.873 177.774 145.419 178.483 142.833 177.711C141.536 177.339 140.455 176.688 139.758 175.942C139.068 175.187 138.76 174.329 138.996 173.568C139.231 172.806 139.956 172.282 140.933 172.037C141.917 171.776 143.157 171.802 144.426 172.166C146.953 172.919 148.69 174.692 148.285 176.232L148.283 176.237Z" fill="white"/>
<path d="M141.699 177.906C140.756 177.511 139.943 176.963 139.347 176.327C138.497 175.393 138.176 174.332 138.46 173.406C138.745 172.48 139.575 171.804 140.798 171.498C141.914 171.205 143.263 171.25 144.58 171.633C147.488 172.504 149.314 174.54 148.828 176.378C148.652 177.038 148.187 177.597 147.496 177.987C146.264 178.68 144.462 178.776 142.679 178.244C142.343 178.149 142.02 178.03 141.707 177.903L141.699 177.906ZM145.076 173.001C144.817 172.89 144.546 172.792 144.265 172.714C143.145 172.39 142.011 172.344 141.074 172.586C140.586 172.708 139.753 173.017 139.528 173.734C139.362 174.266 139.599 174.935 140.167 175.563C140.812 176.249 141.836 176.839 142.984 177.17C144.465 177.614 145.979 177.55 146.94 177.011C147.236 176.844 147.618 176.551 147.737 176.096C148.017 175.047 146.861 173.756 145.073 173.006L145.076 173.001Z" fill="#302348"/>
<path d="M144.633 176.007C144.617 176.074 145.129 176.293 145.102 176.355C144.74 177.309 143.779 177.86 142.868 177.596C141.902 177.316 141.368 176.226 141.683 175.158C141.998 174.09 143.025 173.447 143.981 173.722C144.85 173.97 145.37 174.908 145.225 175.881C145.213 175.976 144.658 175.912 144.633 176.007Z" fill="#302348"/>
<path d="M166.497 180.469C166.192 182.048 163.806 182.856 161.163 182.301C158.516 181.763 156.687 179.973 157.049 178.43C157.416 176.877 159.783 176.141 162.367 176.665C164.948 177.206 166.792 178.922 166.492 180.466L166.497 180.469Z" fill="white"/>
<path d="M159.508 182.38C158.378 181.906 157.461 181.196 156.922 180.356C156.488 179.678 156.342 178.969 156.503 178.301C156.942 176.456 159.51 175.517 162.479 176.116C165.401 176.73 167.407 178.689 167.043 180.573C166.917 181.234 166.505 181.814 165.862 182.241C164.704 183.012 162.904 183.235 161.046 182.847C160.507 182.741 159.992 182.577 159.51 182.375L159.508 182.38ZM163.52 177.613C163.125 177.449 162.697 177.313 162.253 177.219C159.971 176.759 157.877 177.36 157.592 178.564C157.483 179.025 157.682 179.465 157.866 179.751C158.458 180.683 159.765 181.446 161.266 181.754C162.815 182.082 164.339 181.915 165.238 181.312C165.634 181.052 165.866 180.731 165.938 180.365C166.123 179.399 165.067 178.268 163.515 177.61L163.52 177.613Z" fill="#302348"/>
<path d="M162.838 180.474C162.821 180.541 163.351 180.725 163.332 180.785C163.039 181.763 162.115 182.378 161.188 182.181C160.202 181.973 159.598 180.921 159.84 179.834C160.083 178.747 161.064 178.036 162.035 178.236C162.922 178.425 163.498 179.315 163.422 180.301C163.418 180.393 162.86 180.372 162.84 180.469L162.838 180.474Z" fill="#302348"/>
<path d="M184.943 183.513C184.711 185.086 182.387 186.053 179.745 185.663C177.076 185.241 175.131 183.623 175.393 182.053C175.656 180.483 177.977 179.546 180.58 179.96C183.217 180.347 185.174 181.932 184.946 183.508L184.943 183.513Z" fill="white"/>
<path d="M177.701 185.664C176.696 185.243 175.874 184.64 175.362 183.928C174.91 183.298 174.728 182.621 174.839 181.964C175.156 180.062 177.718 178.942 180.667 179.411C183.651 179.848 185.777 181.687 185.5 183.597C185.36 184.561 184.635 185.363 183.463 185.847C182.387 186.293 181.039 186.426 179.666 186.223C178.964 186.113 178.3 185.922 177.704 185.672L177.701 185.664ZM182.237 180.996C181.713 180.777 181.126 180.607 180.496 180.517C178.232 180.155 176.151 180.901 175.94 182.144C175.882 182.506 175.992 182.887 176.265 183.271C176.901 184.155 178.269 184.862 179.829 185.107C181.003 185.281 182.142 185.171 183.031 184.804C183.824 184.474 184.303 183.986 184.387 183.429C184.52 182.525 183.615 181.575 182.237 180.996Z" fill="#302348"/>
<path d="M181.297 183.734C181.286 183.804 181.824 183.948 181.807 184.015C181.569 185.009 180.696 185.683 179.767 185.549C178.769 185.39 178.103 184.37 178.271 183.269C178.439 182.168 179.371 181.406 180.352 181.561C181.251 181.692 181.89 182.547 181.872 183.53C181.873 183.626 181.317 183.637 181.302 183.737L181.297 183.734Z" fill="#302348"/>
<path d="M105.829 191.402C107.015 191.902 109.29 189.186 110.912 185.336C112.535 181.486 112.888 177.96 111.703 177.46C110.517 176.961 108.241 179.677 106.619 183.527C104.997 187.377 104.644 190.903 105.829 191.402Z" fill="#6748BF"/>
<path d="M105.534 192.088C103.588 191.267 104.373 186.923 105.926 183.235C107.479 179.548 110.042 175.949 111.989 176.77C113.935 177.591 113.15 181.935 111.597 185.623C110.044 189.31 107.481 192.91 105.534 192.088ZM111.405 178.145C110.946 178.031 108.989 179.817 107.304 183.815C105.619 187.812 105.708 190.459 106.114 190.71C106.572 190.825 108.53 189.039 110.214 185.041C111.899 181.043 111.81 178.397 111.405 178.145Z" fill="#302348"/>
<path d="M76.7051 167.041C80.0348 164.517 82.1042 161.641 81.3273 160.616C80.5504 159.59 77.2213 160.805 73.8915 163.328C70.5618 165.851 68.4924 168.727 69.2693 169.753C70.0463 170.778 73.3754 169.564 76.7051 167.041Z" fill="#6748BF"/>
<path d="M69.3029 170.69C69.0497 170.583 68.835 170.425 68.6667 170.204C67.3887 168.52 70.2427 165.15 73.4352 162.735C75.104 161.475 76.8349 160.481 78.306 159.945C80.5366 159.131 81.5009 159.619 81.9205 160.169C82.34 160.718 82.5462 161.782 81.1619 163.705C80.2468 164.976 78.8233 166.372 77.1569 167.64C74.3815 169.742 70.9839 171.403 69.3079 170.693L69.3029 170.69ZM80.6558 161.022C80.1219 160.798 77.6244 161.433 74.3401 163.926C70.8829 166.543 69.6329 168.884 69.8623 169.302C70.1962 169.629 72.7925 169.059 76.2497 166.442C79.7068 163.825 80.9543 161.489 80.7275 161.066C80.7103 161.051 80.6881 161.033 80.6607 161.025L80.6558 161.022Z" fill="#302348"/>
<path d="M147.852 202.857C149.128 202.697 149.741 199.207 149.221 195.062C148.7 190.917 147.244 187.686 145.968 187.846C144.691 188.006 144.078 191.497 144.599 195.642C145.119 199.787 146.575 203.018 147.852 202.857Z" fill="#6748BF"/>
<path d="M147.147 203.493C145.469 202.788 144.282 199.197 143.852 195.744C143.591 193.665 143.595 191.674 143.869 190.13C144.28 187.796 145.181 187.201 145.872 187.115C146.562 187.029 147.579 187.38 148.554 189.544C149.202 190.972 149.698 192.903 149.954 194.98C150.454 198.95 150.033 203.347 147.939 203.612C147.668 203.647 147.398 203.606 147.15 203.501L147.147 203.493ZM146.131 188.618C146.102 188.602 146.077 188.602 146.052 188.601C145.596 188.735 144.795 191.255 145.336 195.557C145.877 199.858 147.281 202.108 147.754 202.123C148.207 201.995 149.01 199.469 148.472 195.163C147.957 191.077 146.67 188.844 146.131 188.618Z" fill="#302348"/>
</g>
<defs>
<filter id="filter0_d_143_760" x="24.064" y="27.1075" width="213.315" height="195.473" filterUnits="userSpaceOnUse" color-interpolation-filters="sRGB">
<feFlood flood-opacity="0" result="BackgroundImageFix"/>
<feColorMatrix in="SourceAlpha" type="matrix" values="0 0 0 0 0 0 0 0 0 0 0 0 0 0 0 0 0 0 127 0" result="hardAlpha"/>
<feOffset dy="4"/>
<feGaussianBlur stdDeviation="2"/>
<feComposite in2="hardAlpha" operator="out"/>
<feColorMatrix type="matrix" values="0 0 0 0 0 0 0 0 0 0 0 0 0 0 0 0 0 0 0.25 0"/>
<feBlend mode="normal" in2="BackgroundImageFix" result="effect1_dropShadow_143_760"/>
<feBlend mode="normal" in="SourceGraphic" in2="effect1_dropShadow_143_760" result="shape"/>
</filter>
<clipPath id="clip0_143_760">
<rect width="216.323" height="167.773" fill="white" transform="translate(78.0815) rotate(27.7361)"/>
</clipPath>
</defs>
</svg>
