<svg width="512" height="372" viewBox="0 0 512 372" fill="none" xmlns="http://www.w3.org/2000/svg">
<path d="M345.864 350.083C338.324 350.481 331.684 348.593 325.528 345.058C320.09 341.936 315.472 337.828 311.815 332.683C311.142 331.735 310.641 330.103 309.402 330.287C307.899 330.511 308.134 332.329 307.779 333.514C302.046 352.633 282.249 364.891 266.26 365.137C264.3 365.167 262.339 365.104 260.38 365.156C245.231 365.561 228.724 355.974 225.193 339.217C225.071 338.64 224.997 337.613 224.374 337.568C223.662 337.518 223.645 338.167 223.537 338.696C220.068 355.71 203.601 365.532 188.475 365.152C183.264 365.021 173.204 366.186 159.619 357.596C148.871 350.799 142.452 340.337 140.83 333.014C140.587 331.917 140.595 330.287 139.162 330.179C138.041 330.094 137.665 331.571 137.046 332.429C117.592 359.387 78.9681 354.885 69.0791 326.665C65.5541 316.605 65.8541 304.771 71.7021 293.195C73.3601 289.914 73.3411 289.891 69.9151 288.73C36.1361 277.284 33.8931 232.241 69.1261 217.329C81.0901 212.265 82.8741 216.97 80.4191 209.67C72.6641 186.617 83.9701 162.844 109.822 156.127C116.393 154.42 118.058 155.202 122.772 154.985C129.886 154.656 135.117 156.457 141.19 158.636C142.307 159.037 142.266 157.572 142.338 156.473C145.097 114.686 212.071 107.522 222.906 147.866C223.581 150.377 223.374 150.85 224.344 150.806C226.598 150.703 224.448 140.932 236.782 130.399C260.778 109.907 305.673 124.482 306.442 157.552C306.505 160.272 308.234 157.311 318.565 155.444C322.217 154.784 324.593 155.067 328.654 154.99C347.107 154.637 367.151 167.451 370.282 189.547C371.479 197.996 369.87 206.853 367.72 211.027C364.564 217.155 375.843 211.604 390.836 224.135C414.922 244.265 406.709 279.664 378.594 288.818C375.299 289.891 375.374 289.958 376.908 293.044C379.894 299.055 381.92 305.317 381.687 312.156C381.576 315.414 381.801 318.679 381 321.899C377.653 335.36 368.716 344.32 358.921 347.949C354.591 349.553 350.152 350.493 345.864 350.083Z" fill="#FF8EDE"/>
<path d="M354.379 240.252C359.929 238.544 365.336 238.824 370.539 241.496C384.88 248.859 382.505 268.582 374.39 277.426C371.794 280.255 369.879 279.755 369.685 278.011C369.502 276.359 370.14 275.296 371.685 271.528C375.307 262.692 374.582 250.882 365.374 247.915C359.21 245.929 354.598 249.152 350.804 250.914C346.479 252.923 342.152 252.894 343.111 248.409C343.817 245.106 344.064 241.752 344.219 238.391C344.595 230.21 338.089 223.723 331.248 224.92C327.098 225.646 324.323 229.456 320.375 230.369C316.779 231.201 315.542 227.8 317.928 224.982C323.726 218.135 331.874 215.688 340.584 219.446C347.136 222.272 350.545 227.631 350.949 234.807C351.334 241.604 349.631 241.713 354.379 240.252Z" fill="#FC09B2"/>
<path d="M75.0531 261.694C74.9031 271.696 81.2371 277.013 78.4681 279.145C76.2171 280.876 73.0441 276.13 72.1271 274.599C60.0471 254.424 74.3411 233.02 96.4831 240.944C98.0401 241.501 97.8981 239.824 97.6841 238.12C95.8451 223.495 111.09 213.337 123.768 219.609C127.06 221.238 131.3 224.558 131.921 227.215C132.346 229.028 131.184 230.478 129.308 230.486C125.17 230.505 119.188 222.096 112.193 225.383C105.022 228.753 103.643 235.443 104.797 243.185C105.068 245.005 105.161 246.846 105.573 248.665C106.173 251.312 104.175 253.528 99.0861 251.387C97.3831 250.67 95.7401 249.811 94.0681 249.019C84.4001 244.441 74.9821 249.327 75.0531 261.694Z" fill="#FC09B2"/>
<path d="M185.292 322.86C184.088 312.086 197.169 302.775 209.319 310.003C210.342 310.611 211.255 311.405 212.217 312.115C214.922 314.111 213.751 311.595 216.164 306.542C228.015 281.728 260.393 289.831 266.264 314.846C267.44 319.856 262.254 322.526 259.79 316.571C250.153 293.288 227.943 293.832 221.003 310.639C216.992 320.353 219.46 323.318 216.786 324.354C215.508 324.849 214.191 324.812 213.153 323.74C208.759 319.201 202.983 310.992 195.499 314.665C192.695 316.042 190.431 321.263 190.139 325.036C190.037 326.348 189.838 327.633 189.411 328.872C188.635 331.122 185.701 330.11 185.501 326.771C185.422 325.469 185.36 324.164 185.292 322.86Z" fill="#FC09B2"/>
<path d="M299.989 178.419C301.264 183.502 300.874 178.68 307.476 177.085C314.22 175.456 319.949 176.965 324.695 182.646C331.159 190.387 328.561 198.221 326.423 198.29C323.77 198.375 325.912 189.901 318.188 184.201C313.994 181.107 309.487 181.878 305.683 185.128C303.429 187.053 302.157 189.543 300.806 189.832C294.249 191.23 298.729 184.394 290.787 173.128C279.811 157.558 260.445 159.545 248.323 176.196C246.717 178.402 244.952 179.719 242.6 178.462C239.921 177.032 242.06 172.882 243.734 170.332C247.692 164.307 253.17 160.203 259.871 157.679C275.951 151.621 295.596 160.908 299.989 178.419Z" fill="#FC09B2"/>
<path d="M126.721 179.95C131.447 175.975 139.282 174.756 146.112 179.503C146.556 179.812 146.926 180.226 147.37 180.536C148.182 181.105 148.206 179.808 148.732 178.088C154.656 158.695 174.669 151.124 191.256 158.718C202.212 163.733 210.736 176.284 205.912 178.569C201.521 180.649 201.006 174.576 191.939 167.745C176.741 156.296 156.122 164.008 152.039 187.492C151.595 190.045 148.822 190.897 146.789 189.208C145.967 188.526 143.892 185.003 140.051 183.192C133.145 179.937 126.548 185.852 124.795 192.259C124.455 193.503 124.311 196.706 123.362 197.622C119.672 201.178 116.317 188.702 126.721 179.95Z" fill="#FC09B2"/>
<path d="M351.612 317.687C350.322 320.327 347.509 319.868 346.525 317.92C344.539 313.988 345.928 309.227 339.572 306.052C337.595 305.065 335.308 305.426 333.175 305.925C327.857 307.169 324.583 311.401 323.468 312.23C321.416 313.756 318.795 312.239 318.796 308.678C318.798 302.998 319.086 299.397 315.117 293.483C312.809 290.044 309.482 288.466 305.522 288.13C303.67 287.973 301.874 288.619 300.177 289.367C288.585 294.477 287.369 306.018 284.059 305.518C278.811 304.726 286.213 283.288 304.589 280.824C315.976 279.297 323.811 289.202 325.319 299.431C325.408 300.035 325.168 302.462 326.714 301.389C331.684 297.938 340.471 296.542 345.169 300.183C348.646 302.877 350.902 306.383 351.98 310.631C352.452 312.5 352.538 315.79 351.612 317.687Z" fill="#FC09B2"/>
<path d="M110.596 298.09C121.122 298.034 122.985 304.29 123.298 300.386C124.057 290.925 128.714 284.123 137.927 281.273C149.709 277.627 166.342 291.088 166.01 302.937C165.919 306.194 163.77 306.337 162.288 303.989C159.944 300.274 157.747 294.711 150.81 290.508C144.067 286.422 137.813 288.115 134.327 292.514C128.291 300.129 130.959 307.008 129.265 311.206C128.64 312.754 126.845 313.322 125.47 312.369C124.586 311.756 123.874 310.899 123.058 310.182C117.421 305.237 109.41 303.026 104.992 309.725C102.476 313.54 103.657 319.731 99.4751 319.512C94.6601 319.26 95.2321 306.518 102.767 300.748C105.342 298.776 108.063 297.83 110.596 298.09Z" fill="#FC09B2"/>
<path d="M157.381 242.288C164.913 233.916 180.68 233.53 190.012 238.92C199.25 244.255 198.689 256.119 184.61 260.205C165.324 265.802 147.612 253.149 157.381 242.288Z" fill="#FC09B2"/>
<path d="M291.083 242.288C283.552 233.916 267.784 233.53 258.452 238.92C249.214 244.255 249.774 256.119 263.854 260.205C283.141 265.802 300.853 253.149 291.083 242.288Z" fill="#FC09B2"/>
<g opacity="0.5">
<path d="M347.079 350.208C331.834 350.219 321.171 344.372 312.803 333.912C309.98 330.384 309.14 328.165 307.965 332.612C303.294 350.279 287.699 361.814 269.452 364.951C267.557 365.277 263.368 365.079 260.314 365.156C245.194 365.539 228.671 355.964 225.178 339.149C225.072 338.639 224.823 337.575 224.303 337.542C223.733 337.505 223.636 338.3 223.534 338.788C219.997 355.701 203.642 365.559 188.38 365.154C187.074 365.119 185.766 365.146 184.46 365.15C166.006 365.207 146.252 352.378 140.898 333.231C140.379 331.376 140.289 330.363 139.378 330.142C138.434 329.913 138.112 330.844 137.714 331.433C121.133 355.965 89.1641 355.468 74.8351 337.08C74.1491 336.199 73.7791 335.19 75.1031 332.873C78.1331 327.568 81.4501 322.513 85.9421 318.247C92.7591 311.773 101.286 302.469 120.391 300.101C156.539 295.62 173.093 326.019 207.587 329.634C220.447 330.982 236.577 326.311 245.029 313.166C251.286 303.436 257.278 295.035 267.443 289.476C290.235 277.015 316.557 300.587 338.494 287.861C365.477 272.208 343.297 253.552 333.613 235.923C330.409 230.09 329.204 219.626 329.286 217.318C329.964 198.325 338.363 193.89 345.182 180.505C353.608 163.967 348.998 159.123 354.879 163.601C371.093 175.948 373.945 196.312 367.581 211.356C367.039 212.636 367.142 214.055 368.444 214.335C369.186 214.494 369.965 214.481 370.705 214.644C414.623 224.344 415.276 276.94 378.557 288.837C375.29 289.896 375.373 289.951 376.931 293.085C379.92 299.098 381.919 305.368 381.689 312.205C381.58 315.464 381.799 318.729 380.997 321.949C377.634 335.459 368.574 344.405 358.875 347.969C354.541 349.559 350.101 350.515 347.079 350.208Z" fill="#FC09B2"/>
</g>
<g opacity="0.5">
<path d="M90.0402 196.865C90.4962 190.49 92.1352 184.485 95.7072 179.091C99.3882 173.533 104.173 169.243 110.196 166.335C113.586 164.698 117.235 164.121 120.904 163.816C122.474 163.685 124.136 164.173 125.577 165.016C126.702 165.674 126.698 167.001 125.484 167.585C122.294 169.119 119.622 169.172 116.199 170.538C106.234 174.516 100.103 183.276 98.5492 192.716C97.8402 197.026 98.1592 200.517 98.0072 202.128C97.5502 206.961 91.7382 206.673 90.8222 202.671C90.3892 200.777 89.8842 198.866 90.0402 196.865Z" fill="white"/>
<path d="M74.8061 223.296C75.6121 223.068 76.3151 223.403 76.7791 224.099C78.8481 227.198 70.0111 229.589 63.3111 240.43C52.3871 258.106 67.8951 268.932 63.0261 272.453C61.9681 273.218 59.8391 273.25 58.7161 272.357C57.9641 271.759 57.3061 270.999 56.7451 270.212C45.4971 254.442 56.1901 228.574 74.8061 223.296Z" fill="white"/>
<path d="M180.8 134.259C171.187 136.788 163.755 142.177 158.687 150.765C158.301 151.42 157.973 152.12 157.512 152.717C155.697 155.066 151.943 153.809 152.052 150.651C152.161 147.475 156.026 142.949 157.95 140.69C165.964 131.281 181.543 124.39 194.346 129.397C198.891 131.175 198.121 133.091 196.695 133.519C195.984 133.733 195.204 133.773 194.452 133.789C187.036 133.948 184.027 133.41 180.8 134.259Z" fill="white"/>
</g>
<path d="M223.919 250.618C219.121 250.618 214.684 248.831 210.989 245.389C205.777 240.532 202.671 232.827 202.886 225.282C202.92 224.09 203.972 223.132 205.103 223.187C206.292 223.223 207.231 224.214 207.198 225.404C207.017 231.749 209.596 238.197 213.928 242.233C216.204 244.353 220.041 246.78 225.463 246.229C235.85 245.198 241.372 234.707 241.294 225.362C241.284 224.171 242.241 223.198 243.431 223.187C243.437 223.187 243.444 223.187 243.45 223.187C244.633 223.187 245.595 224.141 245.606 225.324C245.699 236.578 238.821 249.235 225.889 250.519C225.226 250.584 224.57 250.618 223.919 250.618Z" fill="#000E3F"/>
<path d="M268.35 226.676C265.668 226.676 263.159 225.666 261.028 223.712C257.622 220.59 255.506 215.165 255.637 209.891C255.666 208.72 256.626 207.79 257.793 207.79C257.81 207.79 257.829 207.79 257.848 207.79C259.037 207.819 259.978 208.809 259.949 210C259.848 214.017 261.454 218.25 263.943 220.534C265.469 221.93 267.2 222.536 269.09 222.321C274.355 221.732 277.153 215.513 277.111 209.961C277.103 208.77 278.06 207.797 279.25 207.788C279.256 207.788 279.262 207.788 279.267 207.788C280.45 207.788 281.414 208.742 281.423 209.927C281.48 217.363 277.345 225.733 269.57 226.607C269.16 226.653 268.752 226.676 268.35 226.676Z" fill="#000E3F"/>
<path d="M180.131 226.676C179.729 226.676 179.323 226.653 178.912 226.609C171.142 225.738 167.007 217.365 167.06 209.932C167.068 208.747 168.033 207.791 169.216 207.791C169.22 207.791 169.226 207.791 169.231 207.791C170.422 207.799 171.381 208.772 171.372 209.961C171.332 215.515 174.13 221.734 179.393 222.323C181.283 222.534 183.016 221.931 184.542 220.534C187.03 218.252 188.635 214.018 188.534 210.002C188.505 208.811 189.446 207.823 190.635 207.792C190.654 207.792 190.673 207.792 190.69 207.792C191.856 207.792 192.816 208.722 192.846 209.893C192.979 215.164 190.863 220.588 187.457 223.712C185.324 225.664 182.813 226.676 180.131 226.676Z" fill="#000E3F"/>
<path d="M392.86 222.537C387.072 217.697 380.543 214.37 373.455 212.646C373.086 212.557 372.714 212.486 372.341 212.413C371.966 212.342 371.594 212.271 371.223 212.182C370.889 212.101 370.676 211.971 370.577 211.789C370.364 211.4 370.607 210.708 370.887 209.904L371.021 209.515C375.211 197.107 373.836 184.308 367.153 173.477C360.19 162.195 348.279 154.613 334.469 152.674C324.325 151.253 317.35 152.818 309.906 154.853C309.546 154.948 309.116 155.054 308.96 154.944C308.798 154.833 308.749 154.337 308.685 153.654C308.517 151.917 308.205 148.682 305.595 143.137C296.085 122.944 270.189 113.084 247.843 121.154C232.743 126.612 227.668 136.845 225.228 141.764C224.894 142.438 224.614 143.003 224.363 143.445C224.059 142.967 223.796 142.386 223.476 141.685C223.154 140.976 222.787 140.172 222.263 139.192C215.446 126.49 201.708 118.734 185.508 118.442C185.198 118.436 184.89 118.434 184.58 118.434C167.972 118.434 152.615 126.449 145.274 139.022C140.808 146.673 140.304 151.333 140.063 153.571C139.974 154.383 139.911 154.968 139.715 155.094C139.604 155.169 139.363 155.134 138.982 155.007C130.095 152.001 120.32 151.254 112.163 152.959C87.7292 158.066 72.7592 177.921 75.7612 201.239C76.3062 205.471 77.2052 208.133 77.7422 209.724C78.1092 210.807 78.3512 211.525 78.1692 211.828C78.0622 212.008 77.7562 212.13 77.1812 212.227C69.1632 213.568 59.9982 218.26 53.8252 224.184C48.7802 229.026 45.1272 234.743 42.9662 241.179C41.8102 244.618 41.3482 248.245 40.9002 251.75L40.8152 252.418C40.6612 253.635 40.8682 254.816 41.0702 255.96C41.1672 256.515 41.2692 257.092 41.3252 257.655C42.2442 267.056 46.4752 275.327 53.8992 282.245C59.1612 287.148 63.5572 289.013 66.4672 290.248C67.4412 290.663 68.2832 291.019 68.9092 291.39C69.4442 291.708 69.3162 292.107 68.8142 293.168C68.7352 293.332 68.6562 293.502 68.5772 293.678C60.0132 313.022 64.0752 332.638 79.1792 344.87C95.1682 357.821 119.733 355.168 135.11 338.847C135.839 338.073 136.461 337.287 136.959 336.656C137.577 335.872 138.215 335.066 138.496 335.066C138.504 335.066 138.51 335.066 138.518 335.066C138.583 335.078 138.688 335.198 138.795 335.505C143.463 348.903 153.846 359.254 168.032 364.651C176.623 367.918 186.738 368.922 195.1 367.334C208.176 364.851 218.248 357.684 223.46 347.155L223.618 346.827C223.802 346.448 224.183 345.656 224.361 345.642C224.375 345.644 224.436 345.685 224.517 345.822C224.805 346.298 225.104 346.841 225.432 347.434C227.609 351.369 230.898 357.317 239.845 362.422C246.498 366.219 254.274 368.092 262.229 368.092C271.942 368.09 281.918 365.297 290.427 359.801C303.66 351.257 307.315 341.917 309.073 337.429C309.549 336.214 309.958 335.165 310.248 335.1C310.319 335.078 310.416 335.167 310.471 335.217C310.807 335.529 311.245 336.045 311.798 336.697C314.275 339.615 319.433 345.687 329.798 349.907C345.286 356.211 361.921 352.979 373.218 341.48C379.682 334.898 383.323 326.954 384.352 317.19C385.52 306.114 382.149 298.56 379.919 293.562C379.648 292.955 379.39 292.379 379.159 291.837C379.104 291.712 379.125 291.641 379.143 291.598C379.262 291.322 379.884 291.098 380.435 290.899C380.571 290.85 380.706 290.8 380.838 290.751C394.978 285.329 404.824 273.657 407.179 259.527C409.472 245.782 404.118 231.95 392.86 222.537ZM374.176 289.809C373.945 290.408 374.093 291.135 374.628 292.031C380.71 302.207 382.192 315.436 378.405 325.736C374.893 335.285 368.111 342.604 359.304 346.346C350.26 350.19 339.718 350.036 330.381 345.927C320.508 341.581 315.186 334.556 312.628 331.18C312.108 330.491 311.697 329.949 311.387 329.617C310.783 328.969 309.977 328.675 309.143 328.787C308.298 328.911 307.579 329.453 307.17 330.277C306.972 330.682 306.862 331.122 306.757 331.549L306.674 331.881C303.727 343.224 295.87 352.738 284.547 358.672C272.915 364.768 259.305 365.965 248.149 361.878C231.223 355.673 227.847 343.443 226.575 338.84C226.362 338.067 226.208 337.509 226.05 337.183C225.692 336.444 225.078 336.025 224.361 336.025C224.341 336.025 224.321 336.025 224.298 336.025C223.537 336.051 222.848 336.552 222.546 337.297C222.345 337.797 222.218 338.328 222.096 338.84L222.005 339.215C219.492 349.367 213.131 356.54 202.561 361.145C192.498 365.521 178.381 364.501 170.201 361.317C148.647 352.925 143.957 337.926 142.191 332.278C141.881 331.29 141.658 330.575 141.438 330.174C141.007 329.392 140.298 328.88 139.494 328.771C138.676 328.652 137.831 328.972 137.187 329.625C136.831 329.986 136.545 330.407 136.268 330.816L136.173 330.958C130.586 339.17 122.481 345.092 113.349 347.631C104.375 350.126 94.9952 349.237 86.9222 345.132C73.0822 338.097 63.1242 319.901 70.8692 298.742C71.7562 296.324 72.7142 294.542 73.4152 293.24C74.2942 291.61 74.8252 290.625 74.5232 289.773C74.3252 289.218 73.7782 288.779 72.7492 288.351C72.2872 288.158 71.8052 288.005 71.3392 287.857C70.9802 287.743 70.6222 287.63 70.2722 287.498C53.5792 281.23 43.9572 267.271 45.1582 251.065C45.7432 243.159 49.0002 235.437 54.3262 229.325C60.1202 222.674 68.1072 218.104 77.4232 216.107C77.9662 215.991 78.5352 215.91 79.0862 215.831C80.6252 215.612 82.0772 215.408 82.7192 214.45C83.0812 213.911 83.1442 213.203 82.9132 212.285C82.8142 211.893 82.6052 211.307 82.3402 210.566C81.2282 207.463 79.1592 201.686 79.3712 194.561C79.9322 175.658 93.4362 160.473 112.975 156.776C115.699 156.262 118.461 156.229 121.659 156.193L122.718 156.181C127.993 155.869 133.81 157.042 140.029 159.636L140.228 159.719C140.568 159.865 140.921 160.015 141.293 160.094C142.336 160.319 143.326 159.729 143.626 158.693C143.806 158.071 143.849 157.239 143.901 156.184C144.073 152.782 144.361 147.089 149.774 139.537C157.962 128.109 172.579 121.335 187.009 122.293C204.826 123.466 218.478 134.183 221.791 149.6C222.214 151.57 222.753 152.2 224.094 152.297C225.587 152.406 226.494 151.56 226.865 149.62C229.172 137.511 238.528 127.92 251.892 123.965C267.589 119.319 284.258 123.635 295.376 135.241C304.313 144.571 304.742 154.14 304.882 157.283C304.906 157.8 304.921 158.14 304.963 158.344C305.099 159.022 305.465 159.565 305.992 159.875C306.502 160.171 307.12 160.223 307.74 160.025C307.861 159.985 308.088 159.891 308.41 159.76C310.658 158.834 317.485 156.005 326.009 156.143C330.756 156.21 335.025 156.362 339.187 157.557C351.097 160.982 360.415 168.422 365.427 178.509C370.245 188.203 370.629 199.417 366.512 210.081C366.439 210.265 366.356 210.444 366.271 210.624C366.17 210.841 366.069 211.059 365.985 211.284C365.503 212.606 365.469 213.546 365.874 214.241C366.293 214.958 367.184 215.407 368.683 215.659C388.641 218.996 402.975 234.175 403.542 252.568C404.034 268.5 393.208 283.049 377.217 287.95C375.591 288.442 374.516 288.928 374.176 289.809Z" fill="#000E3F"/>
<path d="M404.006 320.068C413.806 319.289 425.517 312.982 431.532 307.553C465.514 276.877 442.097 213.621 395.84 216.451C376.349 217.643 368.974 232.317 384.194 244.021C391.314 249.495 392.273 248.887 392.963 249.622C393.601 250.303 395.191 250.708 394.769 251.631C394.124 253.04 392.841 251.839 391.966 251.514C383.22 248.265 374.993 245.796 366.334 249.277C356.656 253.167 356.821 267.461 372.643 277.746C374.008 278.633 375.384 279.507 376.711 280.448C377.5 281.008 377.018 282.43 375.178 282.037C371.64 281.279 366.436 279.808 360.664 281.112C349.774 283.574 348.306 296.379 361.781 307.898C372.416 316.989 389.72 321.203 404.006 320.068Z" fill="#FF8EDE"/>
<path d="M392.431 213.535C392.368 214.863 392.865 215.317 394.2 215.269C417.084 214.44 423.619 223.369 428.061 225.103C428.765 225.378 429.337 225.064 429.631 224.364C430.15 223.13 431.915 214.754 432.233 208.312C434.012 172.345 394.595 167.758 392.431 213.535Z" fill="#FF8EDE"/>
<g opacity="0.5">
<path d="M399.602 320.305C415.567 320.511 430.61 310.998 439.432 298.055C451.436 280.442 449.695 255.328 438.282 238.523C437.127 236.822 436.476 235.728 435.138 236.619C425.471 243.058 424.315 257.112 421.63 267.363C418.855 277.962 412.961 293.606 399.269 292.104C394.316 291.561 390.071 288.708 386.345 285.585C382.478 282.344 379.094 281.292 374.008 280.54C367.43 279.567 357.305 279.454 353.391 286.055C348.86 293.697 356.121 303.065 361.67 307.806C371.963 316.601 386.71 320.139 399.602 320.305Z" fill="#FC09B2"/>
<path d="M392.462 213.004C392.297 216.768 397.411 215.052 399.933 215.133C408.874 215.421 418.644 217.927 425.693 223.7C427.628 225.285 429.715 226.068 429.817 223.588C430.04 218.151 425.267 213.146 421.023 209.772C416.025 205.798 412.972 202.863 410.119 196.236C407.809 190.868 410.135 184.961 410.277 183.43C410.35 182.641 411.264 181.732 410.286 181.064C409.598 180.593 408.813 181.159 408.135 181.459C396.482 186.616 393.018 200.338 392.462 213.004Z" fill="#FC09B2"/>
</g>
<path opacity="0.5" d="M388.512 233.475C392.102 233.215 395.268 231.294 398.869 230.998C409.867 230.094 417.879 234.461 421.948 234.621C423.839 234.695 424.579 232.588 422.204 229.942C416.704 223.815 399.07 217.507 387.58 225.822C383.3 228.918 384.223 233.785 388.512 233.475Z" fill="white"/>
<path d="M432.849 227.976C431.875 226.933 431.928 226.665 432.794 222.194C433.138 220.418 433.61 217.986 434.185 214.609C436.623 200.293 433.176 187.981 424.966 181.677C419.417 177.416 412.392 176.576 406.17 179.431C401.696 181.482 391.156 188.682 389.888 211.196C389.874 211.453 389.864 211.697 389.854 211.928C389.775 213.785 389.739 214.63 387.946 215.06C381.68 216.559 376.688 220.508 374.59 225.623C372.818 229.945 373.28 234.632 375.892 238.819C377.733 241.769 380.584 244.36 381.801 245.468C381.91 245.567 382.018 245.664 382.111 245.749C382.07 245.743 382.03 245.733 381.987 245.725C381.238 245.577 379.486 245.229 375.081 245.022C374.749 245.008 374.419 245 374.087 245C368.194 245 362.564 247.428 359.546 251.333C356.95 254.691 356.338 258.91 357.774 263.535C359.755 269.916 363.41 273.424 366.634 276.518C367.152 277.018 367.663 277.508 368.157 278C367.74 278.18 367.298 278.111 366.804 278.038C366.516 277.998 366.223 277.963 365.923 277.959C358.926 278.149 353.671 280.608 351.123 284.883C348.78 288.816 348.903 293.966 351.461 299.017C358.638 313.191 377.116 322.766 396.908 322.764C397.635 322.764 398.364 322.752 399.095 322.725C420.714 321.952 437.701 310.574 445.7 291.513C452.977 275.242 453.422 250.006 432.849 227.976ZM377.284 283.5C377.976 283.318 378.531 282.807 378.768 282.133C378.999 281.481 378.898 280.79 378.491 280.243C378.001 279.583 376.911 278.906 375.402 277.971C372.733 276.317 369.075 274.048 365.813 270.116C361.327 264.709 358.903 257.278 363.599 252.87C371.165 245.766 383.577 249.948 390.244 252.196C392.415 252.927 393.995 253.445 394.756 253.403C395.473 253.352 396.091 252.842 396.331 252.099C396.56 251.388 396.384 250.657 395.877 250.236C394.51 249.096 392.874 248.136 391.144 247.119C387.138 244.768 382.598 242.104 378.906 236.014C376.907 232.713 377.045 228.716 379.273 225.322C381.211 222.369 387.641 215.757 405.525 218.218C414.867 219.5 423.539 223.965 430.603 231.13C437.163 237.783 442.09 246.629 444.475 256.034C450.579 280.101 439.686 304.083 417.984 314.355C406.202 319.936 389.429 319.79 375.255 313.984C364.56 309.601 357.059 302.79 354.135 294.805C352.964 291.607 353.483 288.343 355.559 285.848C357.732 283.236 361.201 281.844 365.361 281.844C366.479 281.844 367.649 281.945 368.856 282.15C371.469 282.594 373.17 282.964 374.296 283.209C375.934 283.559 376.543 283.693 377.284 283.5ZM428.559 222.587C428.486 222.905 428.34 223.304 428.067 223.409C427.771 223.52 427.36 223.292 427.06 223.081C425.853 222.234 424.557 221.495 423.305 220.782C422.333 220.227 421.326 219.653 420.381 219.04C417.323 217.049 413.903 216.194 410.597 215.367C410.08 215.237 409.566 215.11 409.052 214.976C405.103 213.955 402.045 213.717 399.743 213.717C398.532 213.717 397.531 213.783 396.719 213.835C395.382 213.922 394.497 213.985 394.151 213.641C393.958 213.453 393.881 213.088 393.912 212.497C394.198 206.723 396.302 194.064 402.225 187.478C406.684 182.514 412.375 180.623 417.869 182.292C424.37 184.267 429.157 190.706 430.36 199.097C431.322 205.778 430.749 213.241 428.559 222.587Z" fill="#000E3F"/>
<path d="M428.389 124.641C429.298 115.048 423.278 105.767 416.973 99.1049C413.758 95.7079 415.933 98.2459 403.004 106.794C396.239 111.267 388.02 110.714 379.464 110.226C377.512 110.115 377.271 110.271 377.103 112.13C372.43 163.62 426.334 146.342 428.389 124.641Z" fill="#6280FF"/>
<path d="M426.384 123.719C430.171 119.876 427.338 114.587 425.543 116.729C416.458 127.569 399.108 134.728 380.847 131.935C378.355 131.554 379.624 137.197 384.221 137.828C399.898 139.978 416.433 133.815 426.384 123.719Z" fill="#322BBF"/>
<path d="M421.064 112.27C424.416 109.163 424.461 108.14 421.997 105.723C421.336 105.074 420.448 105.797 419.775 106.422C407.665 117.65 391.233 121.481 379.949 120.354C379.341 120.293 378.726 120.263 378.116 120.275C376.261 120.311 376.835 124.456 378.348 125.005C379.031 125.253 379.777 125.342 380.501 125.461C394.241 127.722 409.354 123.124 421.064 112.27Z" fill="#322BBF"/>
<path d="M362.496 5.1062C337.298 13.4842 324.671 38.7832 330.522 64.2522C340.791 108.945 401.986 130.589 424.373 80.5222C443.357 38.0682 407.868 -9.9788 362.496 5.1062Z" fill="#FFCF00"/>
<path d="M348.759 55.3067C350.72 44.1987 359.615 45.2157 361.739 43.9127C364.314 42.3337 365.865 39.6237 368.476 38.0007C371.987 35.8177 376.057 34.2977 380.242 34.4137C383.157 34.4947 386.444 35.8517 389.201 34.3877C392.542 32.6137 396.11 31.8337 399.824 33.4987C407.862 37.1027 410.482 44.9367 411.976 53.6507C413.242 61.0427 416.816 97.6537 409.285 101.632C408.62 101.983 407.617 101.531 407.58 100.79C407.342 95.9097 408.897 98.1747 408.549 78.3967C408.38 68.8257 407.505 49.8857 401.617 42.3597C398.306 38.1267 393.659 38.5497 393.344 39.0967C393.069 39.5747 394.023 40.2917 394.893 41.4057C399.928 47.8547 400.863 56.5857 399.592 60.0687C397.845 64.8547 392.22 66.6367 388.086 63.6697C382.384 59.5787 381.087 49.5857 382.962 42.9967C383.2 42.1617 382.943 41.4347 382.11 41.2397C376.863 40.0107 373.368 41.0337 369.777 44.8717C366.881 47.9687 371.639 46.6627 376.96 56.7347C383.323 68.7807 371.287 77.5547 364.721 69.2257C360.794 64.2457 359.33 60.2517 359.102 52.4947C359.032 50.1147 355.176 52.2807 354.611 56.9867C353.07 69.8207 375.205 97.9497 384.092 106.632C384.612 107.14 385.071 107.729 385.464 108.341C385.877 108.983 385.373 109.885 384.624 110.035C382.464 110.465 379.401 108.47 378.072 107.184C375.074 104.283 371.996 101.472 369.509 98.0687C361.399 86.9747 346.497 68.1217 348.759 55.3067ZM369.767 64.6257C371.048 66.3557 372.917 62.3347 370.595 58.1347C369.596 56.3287 368.454 54.5517 366.444 53.6307C364.936 56.8807 368.599 63.0487 369.767 64.6257ZM389.867 46.0837C388.17 44.0277 386.832 54.0227 391.908 57.3727C394.381 59.0047 393.364 50.3207 389.867 46.0837Z" fill="#FD8A02"/>
<path opacity="0.25" d="M424.967 133.334C425.314 132.797 425.02 132.003 424.383 131.853C418.797 130.543 414.128 132.8 408.581 132.781C397.128 132.743 388.134 125.9 384.218 115.266C382.96 111.849 383.017 110.522 380.677 110.302C377.358 109.99 377.223 110.056 376.963 113.49C376.335 121.808 377.002 131.384 382.254 138.264C387.098 144.608 395.761 145.902 403.211 144.873C410.802 143.824 420.662 139.999 424.967 133.334Z" fill="#000E3F"/>
<path opacity="0.5" d="M423.608 82.2008C425.457 78.5188 425.191 78.0388 421.202 76.8638C412.021 74.1588 403.007 78.0978 394.916 82.2278C363.226 98.4028 339.776 70.1908 341.961 37.4098C342.982 22.0868 351.932 12.5468 351.027 11.3268C349.907 9.81981 324.371 28.2908 329.608 60.5278C336.506 102.982 397.379 134.451 423.608 82.2008Z" fill="#FD8A02"/>
<path opacity="0.75" d="M416.191 38.3162C421.972 33.9532 409.566 20.7932 406.732 18.4322C385.751 0.955179 358.878 14.8942 365.844 19.4332C368.525 21.1802 371.472 20.3802 374.394 19.8912C385.691 17.9992 395.731 21.1232 403.65 27.7522C406.109 29.8112 412.737 40.9232 416.191 38.3162Z" fill="white"/>
<path d="M418.168 17.8365C431.822 34.1835 434.675 54.3355 430.238 71.3825C427.202 83.0465 424.816 85.7345 418.958 94.3275C416.675 97.6755 419.002 94.8125 426.85 108.067C440.32 130.818 419.285 149.902 396.143 148.249C378.059 146.957 373.176 130.003 374.435 111.833C374.639 108.88 369.521 111.362 356.271 103.484C326.302 85.6655 318.084 48.6405 335.012 22.9365C353.501 -5.13654 396.462 -8.15053 418.168 17.8365ZM392.873 106.631C409.183 103.181 420.338 89.7245 425.522 74.4885C430.11 61.0075 428.627 45.5955 425.668 38.0445C419.325 21.8555 406.754 8.26746 389.376 4.34046C366.819 -0.757536 342.273 11.4625 333.48 32.9995C318.763 69.0465 353.376 114.985 392.873 106.631ZM420.967 136.456C425.411 132.546 427.713 127.603 427.434 121.591C427.311 118.944 425.098 111.611 422.386 107.665C415.391 97.4835 415.005 98.6525 413.667 99.9225C405.18 107.973 394.657 112.158 382.912 111.566C380.397 111.439 378.143 110.473 377.979 113.624C375.894 153.838 407.856 147.991 420.967 136.456Z" fill="#000E3F"/>
<path d="M25.9181 209.749C23.9051 212.104 19.7461 215.026 16.1151 224.672C15.7891 225.537 15.4481 226.409 14.9921 227.207C14.3571 228.319 13.0061 228.389 12.2561 227.321C10.5621 224.905 10.4661 221.064 4.81912 214.426C1.50412 210.531 -1.72288 209.304 1.05112 206.948C7.96512 201.073 10.3411 192.264 11.6001 189.934C12.1441 188.928 13.4341 188.849 14.1411 189.735C14.8981 190.685 15.2891 191.836 15.7451 192.949C19.1121 201.185 23.7561 204.949 25.6521 206.779C26.1291 207.238 26.6131 208.938 25.9181 209.749Z" fill="#FD8A02"/>
<path d="M78.8841 112.02C78.4011 112.586 77.9101 113.151 77.3711 113.662C69.7661 120.857 67.9771 129.191 66.3011 132.129C65.5701 133.409 64.0131 133.491 63.1501 132.26C62.5481 131.402 62.0931 130.41 61.7301 129.419C56.0751 113.958 45.4661 112.855 50.2441 108.795C58.2081 102.029 60.9451 91.8833 62.3951 89.1993C63.0211 88.0413 64.5071 87.9503 65.3211 88.9703C66.1931 90.0643 66.6441 91.3903 67.1681 92.6713C71.0551 102.174 76.4221 106.517 78.5791 108.6C79.1261 109.127 79.6851 111.084 78.8841 112.02Z" fill="#FD8A02"/>
<path d="M475.946 26.1601C473.933 28.5151 469.774 31.4371 466.143 41.0841C465.818 41.9481 465.476 42.8201 465.021 43.6191C464.387 44.7311 463.035 44.8011 462.285 43.7321C460.591 41.3161 460.495 37.4751 454.847 30.8371C451.533 26.9421 448.306 25.7151 451.079 23.3591C457.993 17.4841 460.37 8.67605 461.629 6.34505C462.172 5.33905 463.463 5.26006 464.169 6.14606C464.926 7.09606 465.317 8.24705 465.773 9.36005C469.141 17.5961 473.785 21.3591 475.68 23.1901C476.156 23.6491 476.64 25.3491 475.946 26.1601Z" fill="#FD8A02"/>
<path d="M490.462 333.314C488.449 335.669 484.29 338.591 480.659 348.238C480.333 349.103 479.992 349.975 479.536 350.773C478.902 351.885 477.549 351.955 476.8 350.886C475.106 348.47 475.01 344.629 469.363 337.991C466.048 334.096 462.821 332.869 465.595 330.513C472.509 324.638 474.885 315.829 476.144 313.499C476.687 312.493 477.978 312.414 478.684 313.3C479.441 314.25 479.832 315.401 480.288 316.514C483.655 324.75 488.3 328.514 490.195 330.344C490.673 330.802 491.157 332.503 490.462 333.314Z" fill="#FD8A02"/>
<path d="M46.3881 352.93C44.3741 355.285 40.2161 358.208 36.5851 367.854C36.2591 368.719 35.9181 369.591 35.4621 370.389C34.8281 371.501 33.4761 371.572 32.7261 370.503C31.0331 368.087 30.9361 364.246 25.2891 357.608C21.9741 353.713 18.7471 352.487 21.5211 350.13C28.4361 344.255 30.8121 335.446 32.0711 333.116C32.6141 332.11 33.9051 332.031 34.6111 332.917C35.3681 333.867 35.7591 335.018 36.2151 336.131C39.5831 344.367 44.2271 348.131 46.1221 349.961C46.5991 350.419 47.0831 352.12 46.3881 352.93Z" fill="#FD8A02"/>
<path d="M511.601 202.326C509.282 205.037 504.497 208.39 500.31 219.514C499.935 220.51 499.542 221.514 499.017 222.433C498.286 223.714 496.729 223.795 495.866 222.563C493.913 219.778 493.805 215.357 487.3 207.711C483.483 203.224 479.766 201.812 482.96 199.098C490.924 192.331 493.661 182.186 495.111 179.502C495.737 178.343 497.223 178.252 498.037 179.273C498.909 180.367 499.36 181.693 499.884 182.975C503.771 192.478 509.137 196.821 511.295 198.904C511.843 199.434 512.401 201.392 511.601 202.326Z" fill="#FD8A02"/>
</svg>
