<svg width="131" height="132" viewBox="0 0 131 132" fill="none" xmlns="http://www.w3.org/2000/svg">
<g filter="url(#filter0_dd_143_894)">
<path d="M84.875 43.1255C87.6162 43.1255 90.3307 43.6654 92.8633 44.7144C95.3959 45.7634 97.6973 47.3013 99.6357 49.2397C101.574 51.1782 103.112 53.4796 104.161 56.0122C105.21 58.5448 105.75 61.2593 105.75 64.0005H64.0732C66.7896 64.01 69.4783 64.5487 71.9883 65.5884C74.5209 66.6374 76.8223 68.1754 78.7607 70.1138C80.6991 72.0522 82.2371 74.3536 83.2861 76.8862C84.3351 79.4188 84.875 82.1333 84.875 84.8745C84.875 87.6157 84.3351 90.3302 83.2861 92.8628C82.2371 95.3954 80.6991 97.6968 78.7607 99.6353C76.8223 101.574 74.5209 103.112 71.9883 104.161C69.4557 105.21 66.7412 105.75 64 105.75V63.9995C64.0001 61.2586 64.54 58.5445 65.5889 56.0122C66.6379 53.4796 68.1759 51.1781 70.1143 49.2397C72.0527 47.3013 74.3541 45.7634 76.8867 44.7144C79.4193 43.6653 82.1338 43.1255 84.875 43.1255ZM64 64.0005C64 66.7418 63.4592 69.4562 62.4102 71.9888C61.3611 74.5213 59.8241 76.8229 57.8857 78.7612C55.9473 80.6996 53.6459 82.2376 51.1133 83.2866C48.5807 84.3356 45.8662 84.8755 43.125 84.8755C40.3838 84.8755 37.6693 84.3356 35.1367 83.2866C32.6041 82.2376 30.3027 80.6996 28.3643 78.7612C26.4259 76.8228 24.8879 74.5214 23.8389 71.9888C22.7899 69.4562 22.25 66.7417 22.25 64.0005H64ZM64 64.0005C61.2587 64.0005 58.5443 63.4597 56.0117 62.4106C53.4791 61.3616 51.1776 59.8246 49.2393 57.8862C47.3009 55.9478 45.7629 53.6464 44.7139 51.1138C43.6648 48.5812 43.125 45.8667 43.125 43.1255C43.125 40.3843 43.6649 37.6697 44.7139 35.1372C45.7629 32.6046 47.3009 30.3031 49.2393 28.3647C51.1777 26.4263 53.4791 24.8884 56.0117 23.8394C58.5443 22.7904 61.2588 22.2505 64 22.2505V64.0005Z" fill="white"/>
<path d="M84.875 43.1255V31.6255H84.8749L84.875 43.1255ZM92.8633 44.7144L97.2641 34.0897L97.264 34.0897L92.8633 44.7144ZM99.6357 49.2397L107.767 41.108V41.108L99.6357 49.2397ZM104.161 56.0122L114.786 51.6115L114.786 51.6113L104.161 56.0122ZM105.75 64.0005V75.5005C112.101 75.5005 117.25 70.3518 117.25 64.0005H105.75ZM64.0732 64.0005V52.5005C57.7298 52.5005 52.5844 57.6369 52.5733 63.9803C52.5621 70.3237 57.6895 75.4782 64.0329 75.5004L64.0732 64.0005ZM71.9883 65.5884L76.3891 54.9638L76.389 54.9637L71.9883 65.5884ZM78.7607 70.1138L86.8925 61.9821L86.8925 61.982L78.7607 70.1138ZM83.2861 76.8862L93.9108 72.4855L93.9108 72.4854L83.2861 76.8862ZM84.875 84.8745L96.375 84.8746V84.8745H84.875ZM83.2861 92.8628L93.9107 97.2637L93.9108 97.2635L83.2861 92.8628ZM78.7607 99.6353L86.8925 107.767L86.8925 107.767L78.7607 99.6353ZM71.9883 104.161L76.389 114.785L76.3891 114.785L71.9883 104.161ZM64 105.75H52.5C52.5 108.8 53.7116 111.725 55.8683 113.881C58.0249 116.038 60.95 117.25 64 117.25L64 105.75ZM64 63.9995L52.5 63.999V63.9995H64ZM65.5889 56.0122L54.9643 51.6113L54.9642 51.6116L65.5889 56.0122ZM70.1143 49.2397L61.9825 41.108L61.9825 41.1081L70.1143 49.2397ZM76.8867 44.7144L72.4859 34.0897L72.4859 34.0897L76.8867 44.7144ZM62.4102 71.9888L73.0348 76.3896L73.0348 76.3896L62.4102 71.9888ZM57.8857 78.7612L66.0175 86.893L66.0176 86.8929L57.8857 78.7612ZM51.1133 83.2866L55.5141 93.9112H55.5141L51.1133 83.2866ZM43.125 84.8755V96.3755H43.1251L43.125 84.8755ZM35.1367 83.2866L30.7359 93.9112L30.7361 93.9113L35.1367 83.2866ZM28.3643 78.7612L20.2325 86.893L20.2325 86.893L28.3643 78.7612ZM23.8389 71.9888L13.2142 76.3895L13.2143 76.3896L23.8389 71.9888ZM22.25 64.0005V52.5005C15.8987 52.5005 10.75 57.6492 10.75 64.0005H22.25ZM56.0117 62.4106L51.6109 73.0353L51.6109 73.0353L56.0117 62.4106ZM49.2393 57.8862L41.1075 66.018L41.1076 66.0181L49.2393 57.8862ZM44.7139 51.1138L34.0892 55.5146L34.0893 55.5146L44.7139 51.1138ZM43.125 43.1255H31.625V43.1256L43.125 43.1255ZM44.7139 35.1372L34.0893 30.7363L34.0892 30.7366L44.7139 35.1372ZM49.2393 28.3647L41.1075 20.233L41.1075 20.233L49.2393 28.3647ZM56.0117 23.8394L51.611 13.2147L51.6109 13.2147L56.0117 23.8394ZM64 22.2505H75.5C75.5 15.8992 70.3513 10.7505 64 10.7505V22.2505ZM84.875 43.1255V54.6255C86.1062 54.6255 87.3253 54.868 88.4626 55.339L92.8633 44.7144L97.264 34.0897C93.3361 32.4628 89.1263 31.6255 84.875 31.6255V43.1255ZM92.8633 44.7144L88.4624 55.339C89.5994 55.8099 90.6332 56.5006 91.504 57.3715L99.6357 49.2397L107.767 41.108C104.761 38.102 101.192 35.7169 97.2641 34.0897L92.8633 44.7144ZM99.6357 49.2397L91.504 57.3715C92.3748 58.2423 93.0656 59.2761 93.5365 60.4131L104.161 56.0122L114.786 51.6113C113.159 47.6831 110.773 44.114 107.767 41.108L99.6357 49.2397ZM104.161 56.0122L93.5365 60.4129C94.0075 61.5502 94.25 62.7693 94.25 64.0005H105.75H117.25C117.25 59.7492 116.413 55.5394 114.786 51.6115L104.161 56.0122ZM105.75 64.0005V52.5005H64.0732V64.0005V75.5005H105.75V64.0005ZM64.0732 64.0005L64.0329 75.5004C65.2554 75.5047 66.4627 75.7471 67.5875 76.213L71.9883 65.5884L76.389 54.9637C72.4938 53.3503 68.3238 52.5153 64.1136 52.5006L64.0732 64.0005ZM71.9883 65.5884L67.5874 76.213C68.7244 76.684 69.7582 77.3747 70.629 78.2455L78.7607 70.1138L86.8925 61.982C83.8865 58.9761 80.3174 56.5909 76.3891 54.9638L71.9883 65.5884ZM78.7607 70.1138L70.629 78.2455C71.4998 79.1163 72.1906 80.1501 72.6615 81.2871L83.2861 76.8862L93.9108 72.4854C92.2836 68.5571 89.8984 64.988 86.8925 61.9821L78.7607 70.1138ZM83.2861 76.8862L72.6614 81.2869C73.1325 82.4242 73.375 83.6434 73.375 84.8745H84.875H96.375C96.375 80.6233 95.5377 76.4134 93.9108 72.4855L83.2861 76.8862ZM84.875 84.8745L73.375 84.8745C73.375 86.1057 73.1325 87.3249 72.6615 88.462L83.2861 92.8628L93.9108 97.2635C95.5378 93.3356 96.375 89.1257 96.375 84.8746L84.875 84.8745ZM83.2861 92.8628L72.6615 88.4619C72.1906 89.5989 71.4998 90.6327 70.629 91.5035L78.7607 99.6353L86.8925 107.767C89.8985 104.761 92.2836 101.192 93.9107 97.2637L83.2861 92.8628ZM78.7607 99.6353L70.629 91.5035C69.7582 92.3744 68.7244 93.0651 67.5874 93.536L71.9883 104.161L76.3891 114.785C80.3174 113.158 83.8865 110.773 86.8925 107.767L78.7607 99.6353ZM71.9883 104.161L67.5876 93.536C66.4503 94.007 65.2312 94.2495 64 94.2495L64 105.75L64 117.25C68.2512 117.25 72.4611 116.412 76.389 114.785L71.9883 104.161ZM64 105.75H75.5V63.9995H64H52.5V105.75H64ZM64 63.9995L75.5 64C75.5001 62.7691 75.7425 61.5501 76.2136 60.4129L65.5889 56.0122L54.9642 51.6116C53.3375 55.5389 52.5002 59.7482 52.5 63.999L64 63.9995ZM65.5889 56.0122L76.2135 60.4131C76.6844 59.2761 77.3752 58.2423 78.246 57.3714L70.1143 49.2397L61.9825 41.1081C58.9766 44.114 56.5914 47.6831 54.9643 51.6113L65.5889 56.0122ZM70.1143 49.2397L78.246 57.3715C79.1168 56.5006 80.1506 55.8099 81.2876 55.339L76.8867 44.7144L72.4859 34.0897C68.5576 35.7169 64.9885 38.102 61.9825 41.108L70.1143 49.2397ZM76.8867 44.7144L81.2875 55.339C82.4246 54.868 83.6437 54.6255 84.8751 54.6255L84.875 43.1255L84.8749 31.6255C80.6238 31.6255 76.414 32.4627 72.4859 34.0897L76.8867 44.7144ZM64 64.0005H52.5C52.5 65.2291 52.2576 66.4482 51.7855 67.588L62.4102 71.9888L73.0348 76.3896C74.6608 72.4641 75.5 68.2545 75.5 64.0005H64ZM62.4102 71.9888L51.7855 67.5879C51.3138 68.7269 50.6232 69.7603 49.7539 70.6296L57.8857 78.7612L66.0176 86.8929C69.025 83.8854 71.4085 80.3158 73.0348 76.3896L62.4102 71.9888ZM57.8857 78.7612L49.754 70.6295C48.8832 71.5003 47.8494 72.191 46.7124 72.662L51.1133 83.2866L55.5141 93.9112C59.4424 92.2841 63.0115 89.8989 66.0175 86.893L57.8857 78.7612ZM51.1133 83.2866L46.7124 72.662C45.5754 73.133 44.3563 73.3755 43.1249 73.3755L43.125 84.8755L43.1251 96.3755C47.3761 96.3755 51.586 95.5383 55.5141 93.9112L51.1133 83.2866ZM43.125 84.8755V73.3755C41.8939 73.3755 40.6747 73.133 39.5374 72.6619L35.1367 83.2866L30.7361 93.9113C34.6638 95.5382 38.8737 96.3755 43.125 96.3755V84.8755ZM35.1367 83.2866L39.5376 72.662C38.4006 72.191 37.3668 71.5003 36.496 70.6295L28.3643 78.7612L20.2325 86.893C23.2385 89.8989 26.8076 92.2841 30.7359 93.9112L35.1367 83.2866ZM28.3643 78.7612L36.496 70.6295C35.6252 69.7587 34.9344 68.7249 34.4635 67.5879L23.8389 71.9888L13.2143 76.3896C14.8414 80.3179 17.2266 83.887 20.2325 86.893L28.3643 78.7612ZM23.8389 71.9888L34.4636 67.5881C33.9925 66.4508 33.75 65.2316 33.75 64.0005H22.25H10.75C10.75 68.2517 11.5873 72.4616 13.2142 76.3895L23.8389 71.9888ZM22.25 64.0005V75.5005H64V64.0005V52.5005H22.25V64.0005ZM64 64.0005V52.5005C62.7714 52.5005 61.5522 52.2581 60.4125 51.786L56.0117 62.4106L51.6109 73.0353C55.5364 74.6613 59.746 75.5005 64 75.5005V64.0005ZM56.0117 62.4106L60.4126 51.786C59.2736 51.3142 58.2402 50.6237 57.3709 49.7544L49.2393 57.8862L41.1076 66.0181C44.1151 69.0255 47.6847 71.409 51.6109 73.0353L56.0117 62.4106ZM49.2393 57.8862L57.371 49.7545C56.5002 48.8837 55.8094 47.8499 55.3385 46.7129L44.7139 51.1138L34.0893 55.5146C35.7164 59.4429 38.1016 63.012 41.1075 66.018L49.2393 57.8862ZM44.7139 51.1138L55.3385 46.7129C54.8675 45.5759 54.625 44.3568 54.625 43.1254L43.125 43.1255L31.625 43.1256C31.625 47.3766 32.4622 51.5865 34.0892 55.5146L44.7139 51.1138ZM43.125 43.1255H54.625C54.625 41.8944 54.8675 40.6752 55.3386 39.5379L44.7139 35.1372L34.0892 30.7366C32.4623 34.6643 31.625 38.8742 31.625 43.1255H43.125ZM44.7139 35.1372L55.3385 39.5381C55.8094 38.4011 56.5002 37.3673 57.371 36.4965L49.2393 28.3647L41.1075 20.233C38.1016 23.239 35.7164 26.8081 34.0893 30.7363L44.7139 35.1372ZM49.2393 28.3647L57.371 36.4965C58.2418 35.6256 59.2756 34.9349 60.4126 34.464L56.0117 23.8394L51.6109 13.2147C47.6826 14.8419 44.1135 17.227 41.1075 20.233L49.2393 28.3647ZM56.0117 23.8394L60.4124 34.464C61.5497 33.993 62.7688 33.7505 64 33.7505V22.2505V10.7505C59.7487 10.7505 55.5389 11.5878 51.611 13.2147L56.0117 23.8394ZM64 22.2505H52.5V64.0005H64H75.5V22.2505H64Z" fill="white"/>
<path d="M64 64.0003C61.2586 64.0003 58.5442 63.4604 56.0115 62.4113C53.4789 61.3623 51.1776 59.8247 49.2392 57.8862C47.3008 55.9478 45.7632 53.6466 44.7142 51.114C43.6651 48.5813 43.1252 45.8669 43.1252 43.1255C43.1252 40.3842 43.6651 37.6697 44.7142 35.1371C45.7632 32.6044 47.3008 30.3032 49.2392 28.3648C51.1776 26.4264 53.4789 24.8888 56.0115 23.8397C58.5442 22.7907 61.2586 22.2507 64 22.2507L64 43.1255L64 64.0003Z" fill="#F44052"/>
<path d="M64.0002 63.9997C66.7415 63.9997 69.456 64.5396 71.9886 65.5887C74.5213 66.6377 76.8225 68.1753 78.7609 70.1138C80.6993 72.0522 82.2369 74.3534 83.286 76.886C84.335 79.4187 84.875 82.1331 84.875 84.8745C84.875 87.6158 84.335 90.3303 83.286 92.8629C82.2369 95.3956 80.6993 97.6968 78.7609 99.6352C76.8225 101.574 74.5213 103.111 71.9886 104.16C69.456 105.209 66.7415 105.749 64.0002 105.749L64.0002 84.8745V63.9997Z" fill="#14A7E7"/>
<path d="M63.9996 64.0008C63.9996 66.7421 63.4597 69.4566 62.4106 71.9892C61.3615 74.5219 59.8239 76.8231 57.8855 78.7615C55.9471 80.6999 53.6459 82.2375 51.1132 83.2866C48.5806 84.3356 45.8661 84.8756 43.1248 84.8756C40.3835 84.8756 37.669 84.3356 35.1364 83.2866C32.6037 82.2375 30.3025 80.6999 28.3641 78.7615C26.4257 76.8231 24.8881 74.5219 23.839 71.9892C22.7899 69.4566 22.25 66.7421 22.25 64.0008L43.1248 64.0008H63.9996Z" fill="#429B7D"/>
<path d="M64.0005 64.0004C64.0005 61.2591 64.5405 58.5447 65.5895 56.012C66.6386 53.4794 68.1762 51.1781 70.1146 49.2397C72.053 47.3013 74.3542 45.7637 76.8869 44.7146C79.4195 43.6656 82.134 43.1256 84.8753 43.1256C87.6166 43.1256 90.3311 43.6656 92.8638 44.7146C95.3964 45.7637 97.6976 47.3013 99.636 49.2397C101.574 51.1781 103.112 53.4794 104.161 56.012C105.21 58.5447 105.75 61.2591 105.75 64.0004L84.8753 64.0004L64.0005 64.0004Z" fill="#FFE05D"/>
</g>
<defs>
<filter id="filter0_dd_143_894" x="-10.5" y="-10" width="152" height="152" filterUnits="userSpaceOnUse" color-interpolation-filters="sRGB">
<feFlood flood-opacity="0" result="BackgroundImageFix"/>
<feColorMatrix in="SourceAlpha" type="matrix" values="0 0 0 0 0 0 0 0 0 0 0 0 0 0 0 0 0 0 127 0" result="hardAlpha"/>
<feOffset dx="1.5" dy="2"/>
<feGaussianBlur stdDeviation="6"/>
<feColorMatrix type="matrix" values="0 0 0 0 0 0 0 0 0 0 0 0 0 0 0 0 0 0 0.24 0"/>
<feBlend mode="normal" in2="BackgroundImageFix" result="effect1_dropShadow_143_894"/>
<feColorMatrix in="SourceAlpha" type="matrix" values="0 0 0 0 0 0 0 0 0 0 0 0 0 0 0 0 0 0 127 0" result="hardAlpha"/>
<feOffset dx="0.75" dy="1"/>
<feGaussianBlur stdDeviation="2"/>
<feColorMatrix type="matrix" values="0 0 0 0 0 0 0 0 0 0 0 0 0 0 0 0 0 0 0.48 0"/>
<feBlend mode="normal" in2="effect1_dropShadow_143_894" result="effect2_dropShadow_143_894"/>
<feBlend mode="normal" in="SourceGraphic" in2="effect2_dropShadow_143_894" result="shape"/>
</filter>
</defs>
</svg>
