<svg width="140" height="120" viewBox="0 0 140 120" fill="none" xmlns="http://www.w3.org/2000/svg">
<g filter="url(#filter0_dd_143_876)">
<path fill-rule="evenodd" clip-rule="evenodd" d="M45.8626 89.5497C56.4456 89.5497 65.0249 76.3196 65.0249 59.9994C65.0248 43.6793 56.4456 30.4492 45.8625 30.4492C35.2795 30.4492 26.7002 43.6793 26.7002 59.9995C26.7002 76.3196 35.2795 89.5497 45.8626 89.5497ZM94.1369 89.5497C104.72 89.5497 113.299 76.3196 113.299 59.9994C113.299 43.6793 104.72 30.4492 94.1369 30.4492C83.5538 30.4492 74.9746 43.6793 74.9746 59.9995C74.9746 76.3196 83.5539 89.5497 94.1369 89.5497Z" fill="white"/>
<path d="M94.1369 30.4492L94.1368 18.9492L94.1369 30.4492ZM74.9746 59.9995L63.4746 59.9995L63.4746 59.9995L74.9746 59.9995ZM65.0249 59.9994L53.5249 59.9995C53.5249 66.2687 51.8553 71.412 49.7635 74.6377C47.5991 77.9754 45.9623 78.0497 45.8626 78.0497L45.8626 89.5497L45.8626 101.05C56.3459 101.05 64.2902 94.509 69.0612 87.1516C73.9049 79.6822 76.5249 70.0503 76.5249 59.9994L65.0249 59.9994ZM45.8625 30.4492L45.8625 41.9492C45.9622 41.9492 47.5991 42.0235 49.7635 45.3612C51.8552 48.5869 53.5248 53.7302 53.5249 59.9995L65.0249 59.9994L76.5249 59.9994C76.5248 49.9485 73.9048 40.3167 69.0612 32.8473C64.2902 25.4899 56.3458 18.9492 45.8625 18.9492L45.8625 30.4492ZM26.7002 59.9995L38.2002 59.9995C38.2002 53.7302 39.8698 48.5869 41.9616 45.3612C44.126 42.0235 45.7628 41.9492 45.8625 41.9492L45.8625 30.4492L45.8625 18.9492C35.3791 18.9492 27.4348 25.49 22.6638 32.8473C17.8202 40.3167 15.2002 49.9486 15.2002 59.9995L26.7002 59.9995ZM45.8626 89.5497L45.8626 78.0497C45.7629 78.0497 44.126 77.9754 41.9616 74.6377C39.8699 71.412 38.2002 66.2687 38.2002 59.9995L26.7002 59.9995L15.2002 59.9995C15.2002 70.0504 17.8203 79.6823 22.6639 87.1516C27.4349 94.509 35.3792 101.05 45.8626 101.05L45.8626 89.5497ZM113.299 59.9994L101.799 59.9994C101.799 66.2687 100.13 71.412 98.0378 74.6377C95.8735 77.9754 94.2366 78.0497 94.1369 78.0497L94.1369 89.5497L94.1369 101.05C104.62 101.05 112.565 94.509 117.336 87.1516C122.179 79.6822 124.799 70.0503 124.799 59.9994L113.299 59.9994ZM94.1369 30.4492L94.1369 41.9492C94.2366 41.9492 95.8734 42.0235 98.0378 45.3612C100.13 48.5869 101.799 53.7302 101.799 59.9994L113.299 59.9994L124.799 59.9994C124.799 49.9485 122.179 40.3167 117.336 32.8473C112.565 25.4899 104.62 18.9492 94.1368 18.9492L94.1369 30.4492ZM74.9746 59.9995L86.4746 59.9995C86.4746 53.7302 88.1442 48.5869 90.2359 45.3612C92.4003 42.0235 94.0372 41.9492 94.1369 41.9492L94.1369 30.4492L94.1368 18.9492C83.6535 18.9492 75.7092 25.4899 70.9382 32.8473C66.0946 40.3167 63.4746 49.9486 63.4746 59.9995L74.9746 59.9995ZM94.1369 89.5497L94.1369 78.0497C94.0372 78.0497 92.4004 77.9754 90.236 74.6377C88.1442 71.412 86.4746 66.2687 86.4746 59.9995L74.9746 59.9995L63.4746 59.9995C63.4746 70.0504 66.0946 79.6823 70.9383 87.1516C75.7093 94.509 83.6536 101.05 94.1369 101.05L94.1369 89.5497Z" fill="white"/>
<ellipse cx="45.8635" cy="60.0002" rx="19.1623" ry="29.5503" fill="white" stroke="black" stroke-width="3"/>
<ellipse cx="94.1365" cy="60.0002" rx="19.1623" ry="29.5503" fill="white" stroke="black" stroke-width="3"/>
<path d="M37.1626 40.1826C47.7456 40.1827 56.3247 51.2343 56.3247 64.8672C56.3247 65.0116 56.3227 65.1559 56.3208 65.2998L41.5884 65.2998L53.4097 77.957C50.7958 83.3298 46.6207 87.3115 41.7037 88.8515C33.1204 85.9222 26.6997 74.1185 26.6997 60.001C26.6998 53.0117 28.2743 46.5896 30.9048 41.5303C32.866 40.6577 34.9711 40.1826 37.1626 40.1826Z" fill="black"/>
<path d="M84.1626 40.1816C94.7454 40.182 103.325 51.2335 103.325 64.8662C103.325 65.0106 103.323 65.1549 103.321 65.2988L88.5874 65.2988L100.41 77.956C97.9139 83.086 93.994 86.9467 89.3648 88.626C81.0912 85.3549 74.9752 73.7797 74.9751 60.001C74.9751 52.7258 76.6811 46.0648 79.5083 40.916C80.9984 40.4371 82.5574 40.1816 84.1626 40.1816Z" fill="black"/>
</g>
<defs>
<filter id="filter0_dd_143_876" x="-10.5" y="-10" width="164" height="144" filterUnits="userSpaceOnUse" color-interpolation-filters="sRGB">
<feFlood flood-opacity="0" result="BackgroundImageFix"/>
<feColorMatrix in="SourceAlpha" type="matrix" values="0 0 0 0 0 0 0 0 0 0 0 0 0 0 0 0 0 0 127 0" result="hardAlpha"/>
<feOffset dx="1.5" dy="2"/>
<feGaussianBlur stdDeviation="6"/>
<feColorMatrix type="matrix" values="0 0 0 0 0 0 0 0 0 0 0 0 0 0 0 0 0 0 0.24 0"/>
<feBlend mode="normal" in2="BackgroundImageFix" result="effect1_dropShadow_143_876"/>
<feColorMatrix in="SourceAlpha" type="matrix" values="0 0 0 0 0 0 0 0 0 0 0 0 0 0 0 0 0 0 127 0" result="hardAlpha"/>
<feOffset dx="0.75" dy="1"/>
<feGaussianBlur stdDeviation="2"/>
<feColorMatrix type="matrix" values="0 0 0 0 0 0 0 0 0 0 0 0 0 0 0 0 0 0 0.48 0"/>
<feBlend mode="normal" in2="effect1_dropShadow_143_876" result="effect2_dropShadow_143_876"/>
<feBlend mode="normal" in="SourceGraphic" in2="effect2_dropShadow_143_876" result="shape"/>
</filter>
</defs>
</svg>
