<svg width="205" height="199" viewBox="0 0 205 199" fill="none" xmlns="http://www.w3.org/2000/svg">
<g filter="url(#filter0_dd_143_849)">
<path d="M102.427 99.4562C106.419 96.3977 111.463 95.0505 116.449 95.7109C121.435 96.3712 125.954 98.9852 129.012 102.978C132.071 106.97 133.418 112.014 132.758 117C132.097 121.985 129.484 126.505 125.491 129.563C121.499 132.622 116.455 133.969 111.469 133.308C106.483 132.648 101.964 130.034 98.9056 126.042C95.8471 122.049 94.4998 117.005 95.1602 112.02C95.8206 107.034 98.4345 102.515 102.427 99.4562Z" fill="white"/>
<path d="M49.2559 92.4136C53.2483 89.3551 58.2922 88.0078 63.278 88.6682C68.2637 89.3286 72.7829 91.9425 75.8414 95.9349L87.3735 110.988L72.3201 122.52C68.3277 125.579 63.2838 126.926 58.2981 126.266C53.3123 125.605 48.7931 122.991 45.7346 118.999C42.6761 115.007 41.3289 109.963 41.9892 104.977C42.6496 99.9913 45.2635 95.4721 49.2559 92.4136Z" fill="white"/>
<path d="M147.587 64.86L117.48 87.9242L129.012 102.978C132.071 106.97 136.59 109.584 141.576 110.244C146.562 110.905 151.605 109.557 155.598 106.499C159.59 103.44 162.204 98.9212 162.865 93.9354C163.525 88.9497 162.178 83.9058 159.119 79.9134L147.587 64.86Z" fill="white"/>
<path d="M109.47 46.2853C105.477 49.3438 102.863 53.863 102.203 58.8487C101.542 63.8345 102.89 68.8783 105.948 72.8707L117.48 87.9242L147.587 64.86L136.055 49.8066C132.997 45.8142 128.477 43.2003 123.492 42.5399C118.506 41.8795 113.462 43.2268 109.47 46.2853Z" fill="white"/>
<path d="M79.3627 69.3494C75.3703 72.4079 72.7564 76.9271 72.096 81.9129C71.4357 86.8986 72.7829 91.9425 75.8414 95.9349L87.3735 110.988L117.48 87.9242L105.948 72.8707C102.89 68.8783 98.3705 66.2644 93.3848 65.6041C88.399 64.9437 83.3552 66.2909 79.3627 69.3494Z" fill="white"/>
<path d="M129.012 102.978C125.954 98.9852 121.435 96.3712 116.449 95.7109C111.463 95.0505 106.419 96.3977 102.427 99.4562C98.4345 102.515 95.8206 107.034 95.1602 112.02C94.4998 117.005 95.8471 122.049 98.9056 126.042C101.964 130.034 106.483 132.648 111.469 133.308C116.455 133.969 121.499 132.622 125.491 129.563C129.484 126.505 132.097 121.985 132.758 117C133.418 112.014 132.071 106.97 129.012 102.978ZM129.012 102.978L117.48 87.9242M129.012 102.978C132.071 106.97 136.59 109.584 141.576 110.244C146.562 110.905 151.605 109.557 155.598 106.499C159.59 103.44 162.204 98.9212 162.865 93.9354C163.525 88.9497 162.178 83.9058 159.119 79.9134L147.587 64.86M75.8414 95.9349C72.7829 91.9425 68.2637 89.3286 63.278 88.6682C58.2922 88.0078 53.2483 89.3551 49.2559 92.4136C45.2635 95.4721 42.6496 99.9913 41.9892 104.977C41.3289 109.963 42.6761 115.007 45.7346 118.999C48.7931 122.991 53.3123 125.605 58.2981 126.266C63.2838 126.926 68.3277 125.579 72.3201 122.52L87.3735 110.988M75.8414 95.9349L87.3735 110.988M75.8414 95.9349C72.7829 91.9425 71.4357 86.8986 72.096 81.9129C72.7564 76.9271 75.3703 72.4079 79.3627 69.3494C83.3552 66.2909 88.399 64.9437 93.3848 65.604C98.3705 66.2644 102.89 68.8783 105.948 72.8707M87.3735 110.988L117.48 87.9242M147.587 64.86L117.48 87.9242M147.587 64.86L136.055 49.8066C132.997 45.8142 128.477 43.2003 123.492 42.5399C118.506 41.8795 113.462 43.2268 109.47 46.2853C105.477 49.3438 102.863 53.863 102.203 58.8487C101.542 63.8345 102.89 68.8783 105.948 72.8707M117.48 87.9242L105.948 72.8707" stroke="white" stroke-width="20" stroke-linejoin="round"/>
<path d="M102.427 99.4562C106.419 96.3977 111.463 95.0505 116.449 95.7109C121.435 96.3712 125.954 98.9852 129.012 102.978C132.071 106.97 133.418 112.014 132.758 117C132.097 121.985 129.484 126.505 125.491 129.563C121.499 132.622 116.455 133.969 111.469 133.308C106.483 132.648 101.964 130.034 98.9056 126.042C95.8471 122.049 94.4998 117.005 95.1602 112.02C95.8206 107.034 98.4345 102.515 102.427 99.4562Z" fill="#1ABCFE"/>
<path d="M49.2559 92.4136C53.2483 89.3551 58.2922 88.0078 63.278 88.6682C68.2637 89.3286 72.7829 91.9425 75.8414 95.9349L87.3735 110.988L72.3201 122.52C68.3277 125.579 63.2838 126.926 58.2981 126.266C53.3123 125.605 48.7931 122.991 45.7346 118.999C42.6761 115.007 41.3289 109.963 41.9892 104.977C42.6496 99.9913 45.2635 95.4721 49.2559 92.4136Z" fill="#0ACF83"/>
<path d="M147.587 64.86L117.48 87.9242L129.012 102.978C132.071 106.97 136.59 109.584 141.576 110.244C146.562 110.905 151.605 109.557 155.598 106.499C159.59 103.44 162.204 98.9212 162.865 93.9354C163.525 88.9497 162.178 83.9058 159.119 79.9134L147.587 64.86Z" fill="#FF7262"/>
<path d="M109.47 46.2853C105.477 49.3438 102.863 53.863 102.203 58.8487C101.542 63.8345 102.89 68.8783 105.948 72.8707L117.48 87.9242L147.587 64.86L136.055 49.8066C132.997 45.8142 128.477 43.2003 123.492 42.5399C118.506 41.8795 113.462 43.2268 109.47 46.2853Z" fill="#F24E1E"/>
<path d="M79.3627 69.3494C75.3703 72.4079 72.7564 76.9271 72.096 81.9129C71.4357 86.8986 72.7829 91.9425 75.8414 95.9349L87.3735 110.988L117.48 87.9242L105.948 72.8707C102.89 68.8783 98.3705 66.2644 93.3848 65.6041C88.399 64.9437 83.3552 66.2909 79.3627 69.3494Z" fill="#A259FF"/>
</g>
<defs>
<filter id="filter0_dd_143_849" x="-10.5004" y="-10" width="228.855" height="222.912" filterUnits="userSpaceOnUse" color-interpolation-filters="sRGB">
<feFlood flood-opacity="0" result="BackgroundImageFix"/>
<feColorMatrix in="SourceAlpha" type="matrix" values="0 0 0 0 0 0 0 0 0 0 0 0 0 0 0 0 0 0 127 0" result="hardAlpha"/>
<feOffset dx="1.5" dy="2"/>
<feGaussianBlur stdDeviation="6"/>
<feColorMatrix type="matrix" values="0 0 0 0 0 0 0 0 0 0 0 0 0 0 0 0 0 0 0.24 0"/>
<feBlend mode="normal" in2="BackgroundImageFix" result="effect1_dropShadow_143_849"/>
<feColorMatrix in="SourceAlpha" type="matrix" values="0 0 0 0 0 0 0 0 0 0 0 0 0 0 0 0 0 0 127 0" result="hardAlpha"/>
<feOffset dx="0.75" dy="1"/>
<feGaussianBlur stdDeviation="2"/>
<feColorMatrix type="matrix" values="0 0 0 0 0 0 0 0 0 0 0 0 0 0 0 0 0 0 0.48 0"/>
<feBlend mode="normal" in2="effect1_dropShadow_143_849" result="effect2_dropShadow_143_849"/>
<feBlend mode="normal" in="SourceGraphic" in2="effect2_dropShadow_143_849" result="shape"/>
</filter>
</defs>
</svg>
