<svg width="116" height="116" viewBox="0 0 116 116" fill="none" xmlns="http://www.w3.org/2000/svg">
<g filter="url(#filter0_dd_143_848)">
<path fill-rule="evenodd" clip-rule="evenodd" d="M39.1323 77.7531C30.1506 69.4252 27.6198 55.7654 33.7943 44.5506C41.0718 31.3324 57.6869 26.5165 70.9051 33.794C84.1234 41.0715 88.9393 57.6866 81.6618 70.9048C74.4239 84.0511 57.9498 88.8863 44.7671 81.7793C44.3386 81.9718 43.8686 82.0913 43.3719 82.121C41.1743 82.2525 39.2861 80.5775 39.1546 78.3799C39.142 78.1689 39.1347 77.96 39.1323 77.7531Z" fill="white"/>
<path d="M39.1323 77.7531L50.6316 77.6234C50.596 74.4679 49.2653 71.4657 46.9513 69.3201L39.1323 77.7531ZM44.7671 81.7793L50.2244 71.6566C47.0761 69.9593 43.3172 69.8235 40.0545 71.2892L44.7671 81.7793ZM43.3719 82.121L42.685 70.6415L42.685 70.6415L43.3719 82.121ZM39.1546 78.3799L50.6341 77.693L50.6341 77.6929L39.1546 78.3799ZM39.1323 77.7531L46.9513 69.3201C41.7491 64.4967 40.3003 56.5778 43.8683 50.0971L33.7943 44.5506L23.7202 39.0042C14.9394 54.9529 18.5521 74.3538 31.3134 86.186L39.1323 77.7531ZM33.7943 44.5506L43.8683 50.0971C48.0826 42.4426 57.7042 39.6538 65.3587 43.8681L70.9051 33.794L76.4515 23.7199C57.6695 13.3792 34.0609 20.2222 23.7202 39.0042L33.7943 44.5506ZM70.9051 33.794L65.3587 43.8681C73.0132 48.0823 75.802 57.7039 71.5877 65.3584L81.6618 70.9048L91.7359 76.4513C102.077 57.6693 95.2336 34.0606 76.4515 23.7199L70.9051 33.794ZM81.6618 70.9048L71.5877 65.3584C67.3966 72.9707 57.8563 75.7711 50.2244 71.6566L44.7671 81.7793L39.3098 91.9019C58.0433 102.001 81.4512 95.1315 91.7359 76.4513L81.6618 70.9048ZM43.3719 82.121L44.0588 93.6004C45.9677 93.4862 47.8001 93.0239 49.4797 92.2693L44.7671 81.7793L40.0545 71.2892C40.8772 70.9197 41.7695 70.6963 42.685 70.6415L43.3719 82.121ZM39.1546 78.3799L27.6751 79.0668C28.186 87.6044 35.5213 94.1113 44.0588 93.6004L43.3719 82.121L42.685 70.6415C46.8273 70.3936 50.3862 73.5507 50.6341 77.693L39.1546 78.3799ZM39.1323 77.7531L27.6331 77.8827C27.6375 78.2731 27.6513 78.668 27.6751 79.0669L39.1546 78.3799L50.6341 77.6929C50.6327 77.6699 50.6319 77.6468 50.6316 77.6234L39.1323 77.7531Z" fill="white"/>
<circle cx="57.728" cy="57.7277" r="27.3214" transform="rotate(118.836 57.728 57.7277)" fill="#FDD735"/>
<circle cx="57.728" cy="57.7277" r="27.3214" transform="rotate(118.836 57.728 57.7277)" stroke="black" stroke-width="3"/>
<path fill-rule="evenodd" clip-rule="evenodd" d="M48.306 74.0929C45.5192 72.1177 44.1398 71.0308 42.3584 68.7836C41.0445 70.2555 38.8846 73.8685 39.1545 78.3797C39.286 80.5773 41.1742 82.2522 43.3718 82.1207C45.5695 81.9892 47.2444 80.1011 47.1129 77.9034C47.0608 77.0323 47.2497 76.1811 47.5517 75.4357C47.7006 75.0682 47.8669 74.7522 48.0182 74.5052C48.0933 74.3827 48.1606 74.2838 48.2147 74.2098C48.2673 74.1379 48.306 74.0929 48.306 74.0929Z" fill="#EF4321" stroke="black" stroke-width="0.5"/>
<ellipse cx="68.2992" cy="54.3643" rx="2.50306" ry="8.22227" transform="rotate(118.836 68.2992 54.3643)" fill="black"/>
<ellipse cx="60.539" cy="68.4589" rx="2.50306" ry="8.22227" transform="rotate(118.836 60.539 68.4589)" fill="black"/>
<path d="M66.7717 41.302C62.4152 38.9035 57.2845 38.3339 52.508 39.7183C47.7316 41.1028 43.7008 44.328 41.3023 48.6844C38.9038 53.0408 38.3341 58.1715 39.7186 62.948C41.103 67.7244 44.3282 71.7552 48.6846 74.1537" stroke="black" stroke-width="3" stroke-linecap="round"/>
<path d="M48.3061 74.0931C48.3061 74.0931 48.2675 74.1381 48.2149 74.2101C48.1607 74.2841 48.0934 74.383 48.0183 74.5055C47.867 74.7524 47.7007 75.0685 47.5518 75.436C47.2498 76.1813 47.0609 77.0326 47.113 77.9037C47.2445 80.1013 45.5696 81.9895 43.3719 82.121C41.1743 82.2525 39.2861 80.5776 39.1546 78.3799C38.8847 73.8687 41.0446 70.2558 42.3585 68.7838" stroke="black" stroke-width="3"/>
<path d="M42.8348 75.8398C42.6716 76.652 43.1976 77.4427 44.0098 77.6059C44.822 77.7692 45.6127 77.2431 45.776 76.4309L42.8348 75.8398ZM45.6746 72.5446L44.4472 71.6823C44.0172 72.2944 43.2426 73.8108 42.8348 75.8398L44.3054 76.1354L45.776 76.4309C46.1078 74.7801 46.7274 73.6554 46.9019 73.4068L45.6746 72.5446Z" fill="black"/>
</g>
<defs>
<filter id="filter0_dd_143_848" x="-10.4999" y="-10.0003" width="139.456" height="139.456" filterUnits="userSpaceOnUse" color-interpolation-filters="sRGB">
<feFlood flood-opacity="0" result="BackgroundImageFix"/>
<feColorMatrix in="SourceAlpha" type="matrix" values="0 0 0 0 0 0 0 0 0 0 0 0 0 0 0 0 0 0 127 0" result="hardAlpha"/>
<feOffset dx="1.5" dy="2"/>
<feGaussianBlur stdDeviation="6"/>
<feColorMatrix type="matrix" values="0 0 0 0 0 0 0 0 0 0 0 0 0 0 0 0 0 0 0.24 0"/>
<feBlend mode="normal" in2="BackgroundImageFix" result="effect1_dropShadow_143_848"/>
<feColorMatrix in="SourceAlpha" type="matrix" values="0 0 0 0 0 0 0 0 0 0 0 0 0 0 0 0 0 0 127 0" result="hardAlpha"/>
<feOffset dx="0.75" dy="1"/>
<feGaussianBlur stdDeviation="2"/>
<feColorMatrix type="matrix" values="0 0 0 0 0 0 0 0 0 0 0 0 0 0 0 0 0 0 0.48 0"/>
<feBlend mode="normal" in2="effect1_dropShadow_143_848" result="effect2_dropShadow_143_848"/>
<feBlend mode="normal" in="SourceGraphic" in2="effect2_dropShadow_143_848" result="shape"/>
</filter>
</defs>
</svg>
