<svg width="142" height="143" viewBox="0 0 142 143" fill="none" xmlns="http://www.w3.org/2000/svg">
<g filter="url(#filter0_dd_143_852)">
<path d="M56.1253 36.1763L54.6342 22.2595L53.143 36.1763C51.5833 50.7329 39.358 62.8119 22.7656 66.1902C39.358 69.5685 51.5833 81.6475 53.143 96.204L54.6342 110.121L56.1253 96.204C57.685 81.6475 69.9103 69.5685 86.5027 66.1902C69.9103 62.8119 57.685 50.7329 56.1253 36.1763Z" fill="white"/>
<path d="M96.8578 67.6228L95.8699 58.4035L94.8821 67.6228C93.8489 77.2659 85.7502 85.2677 74.7584 87.5057C85.7502 89.7437 93.8489 97.7455 94.8821 107.389L95.8699 116.608L96.8578 107.389C97.891 97.7455 105.99 89.7437 116.981 87.5057C105.99 85.2677 97.891 77.2659 96.8578 67.6228Z" fill="white"/>
<path d="M56.1253 36.1763L54.6342 22.2595L53.143 36.1763C51.5833 50.7329 39.358 62.8119 22.7656 66.1902C39.358 69.5685 51.5833 81.6475 53.143 96.204L54.6342 110.121L56.1253 96.204C57.685 81.6475 69.9103 69.5685 86.5027 66.1902C69.9103 62.8119 57.685 50.7329 56.1253 36.1763Z" stroke="white" stroke-width="23" stroke-linejoin="round"/>
<path d="M96.8578 67.6228L95.8699 58.4035L94.8821 67.6228C93.8489 77.2659 85.7502 85.2677 74.7584 87.5057C85.7502 89.7437 93.8489 97.7455 94.8821 107.389L95.8699 116.608L96.8578 107.389C97.891 97.7455 105.99 89.7437 116.981 87.5057C105.99 85.2677 97.891 77.2659 96.8578 67.6228Z" stroke="white" stroke-width="23" stroke-linejoin="round"/>
<path d="M54.6342 22.2599L56.1253 36.1767C57.685 50.7332 69.9103 62.8122 86.5027 66.1906C69.9103 69.5689 57.685 81.6479 56.1253 96.2044L54.6342 110.121L53.143 96.2044C51.5833 81.6479 39.358 69.5689 22.7656 66.1906C39.358 62.8122 51.5833 50.7332 53.143 36.1767L54.6342 22.2599Z" fill="#FDD735" stroke="#FDD735" stroke-width="3" stroke-linejoin="round"/>
<path d="M95.8703 58.4038L96.8581 67.6231C97.8913 77.2662 105.99 85.268 116.982 87.506C105.99 89.7439 97.8913 97.7458 96.8581 107.389L95.8703 116.608L94.8825 107.389C93.8493 97.7458 85.7505 89.7439 74.7588 87.506C85.7505 85.268 93.8493 77.2662 94.8825 67.6231L95.8703 58.4038Z" fill="#FDD735" stroke="#FDD735" stroke-width="3" stroke-linejoin="round"/>
</g>
<defs>
<filter id="filter0_dd_143_852" x="-9.5" y="-10" width="164" height="164" filterUnits="userSpaceOnUse" color-interpolation-filters="sRGB">
<feFlood flood-opacity="0" result="BackgroundImageFix"/>
<feColorMatrix in="SourceAlpha" type="matrix" values="0 0 0 0 0 0 0 0 0 0 0 0 0 0 0 0 0 0 127 0" result="hardAlpha"/>
<feOffset dx="1.5" dy="2"/>
<feGaussianBlur stdDeviation="6"/>
<feColorMatrix type="matrix" values="0 0 0 0 0 0 0 0 0 0 0 0 0 0 0 0 0 0 0.24 0"/>
<feBlend mode="normal" in2="BackgroundImageFix" result="effect1_dropShadow_143_852"/>
<feColorMatrix in="SourceAlpha" type="matrix" values="0 0 0 0 0 0 0 0 0 0 0 0 0 0 0 0 0 0 127 0" result="hardAlpha"/>
<feOffset dx="0.75" dy="1"/>
<feGaussianBlur stdDeviation="2"/>
<feColorMatrix type="matrix" values="0 0 0 0 0 0 0 0 0 0 0 0 0 0 0 0 0 0 0.48 0"/>
<feBlend mode="normal" in2="effect1_dropShadow_143_852" result="effect2_dropShadow_143_852"/>
<feBlend mode="normal" in="SourceGraphic" in2="effect2_dropShadow_143_852" result="shape"/>
</filter>
</defs>
</svg>
