<svg width="351" height="387" viewBox="0 0 351 387" fill="none" xmlns="http://www.w3.org/2000/svg">
<g filter="url(#filter0_dd_143_761)">
<path fill-rule="evenodd" clip-rule="evenodd" d="M133.754 74.6705L143.875 168.33L136.063 169.174L125.942 75.5146L133.754 74.6705Z" fill="white" stroke="white" stroke-width="23" stroke-linecap="round" stroke-linejoin="round"/>
<path d="M146.673 186.512L68.8409 159.705L120.493 130.438L172.147 101.17L155.141 181.714L182.685 230.325L208.706 231.755L162.071 258.179L174.217 235.123L146.673 186.512Z" fill="white" stroke="white" stroke-width="23" stroke-linecap="round" stroke-linejoin="round"/>
<path d="M158.093 210.816L170.245 203.998C166.348 183.148 221.388 166.19 235.155 182.186C242.85 191.126 238.292 204.342 233.822 211.788C237.951 208.408 242.305 204.409 247.138 199.499C257.161 189.318 271.728 195.024 269.963 208.683C269.092 215.422 265.22 222.653 261.078 227.843C273.715 225.286 282.46 239.184 272.031 252.251C263.263 263.237 243.387 275.911 209.927 288.555C175.018 301.746 155.178 299.187 145.142 294.319C142.01 303.38 133.022 313.845 115.024 305.334C97.0255 296.823 76.8613 274.554 73.6882 260.622C70.5151 246.69 80.6422 238.034 91.8705 241.003C81.7684 223.217 91.0844 211.968 111.029 204.044C130.4 196.348 155.087 193.783 158.093 210.816Z" fill="white"/>
<path d="M91.8705 241.003C80.6422 238.034 70.5151 246.69 73.6882 260.622C76.8613 274.554 97.0255 296.823 115.024 305.334C133.022 313.845 142.01 303.38 145.142 294.319M91.8705 241.003C92.806 242.65 93.9107 244.352 95.186 246.114M91.8705 241.003C81.7684 223.217 91.0844 211.968 111.029 204.044C130.4 196.348 155.087 193.783 158.093 210.816M158.093 210.816L170.245 203.998M158.093 210.816C159.081 216.421 156.752 227.259 139.513 232.357M170.245 203.998C166.348 183.148 221.388 166.19 235.155 182.186C242.85 191.126 238.292 204.342 233.822 211.788M170.245 203.998C171.84 212.537 184.192 221.091 216.845 203.134M145.142 294.319C155.178 299.187 175.018 301.746 209.927 288.555C243.387 275.911 263.263 263.237 272.031 252.251C282.46 239.184 273.715 225.286 261.078 227.843M145.142 294.319C140.801 292.51 132.108 287.971 124.841 281.725M210.437 254.07C223.174 252.036 243.467 239.276 252.048 232.331C255.14 229.852 258.209 228.423 261.078 227.843M118.249 234.997C126.954 235.017 133.945 234.004 139.513 232.357M139.513 232.357C143.109 232.906 150.304 233.638 156.705 241.74M261.078 227.843C265.22 222.653 269.092 215.422 269.963 208.683C271.728 195.024 257.161 189.318 247.138 199.499C242.304 204.409 237.951 208.408 233.822 211.788M195.887 233.372C211.1 226.485 221.454 221.912 233.822 211.788M212.57 259.714C207.706 246.842 199.603 236.915 194.038 231.499" stroke="white" stroke-width="23" stroke-linecap="round"/>
<path d="M158.093 210.816L170.245 203.998C166.348 183.148 221.388 166.19 235.155 182.186C242.85 191.126 238.292 204.342 233.822 211.788C237.951 208.408 242.305 204.409 247.138 199.499C257.161 189.318 271.728 195.024 269.963 208.683C269.092 215.422 265.22 222.653 261.078 227.843C273.715 225.286 282.46 239.184 272.031 252.251C263.263 263.237 243.387 275.911 209.927 288.555C175.018 301.746 155.178 299.187 145.142 294.319C142.01 303.38 133.022 313.845 115.024 305.334C97.0255 296.823 76.8613 274.554 73.6882 260.622C70.5151 246.69 80.6422 238.034 91.8705 241.003C81.7684 223.217 91.0844 211.968 111.029 204.044C130.4 196.348 155.087 193.783 158.093 210.816Z" fill="white"/>
<path d="M91.8705 241.003C80.6422 238.034 70.5151 246.69 73.6882 260.622C76.8613 274.554 97.0255 296.823 115.024 305.334C133.022 313.845 142.01 303.38 145.142 294.319M91.8705 241.003C92.806 242.65 93.9107 244.352 95.186 246.114M91.8705 241.003C81.7684 223.217 91.0844 211.968 111.029 204.044C130.4 196.348 155.087 193.783 158.093 210.816M158.093 210.816L170.245 203.998M158.093 210.816C159.081 216.421 156.752 227.259 139.513 232.357M170.245 203.998C166.348 183.148 221.388 166.19 235.155 182.186C242.85 191.126 238.292 204.342 233.822 211.788M170.245 203.998C171.84 212.537 184.192 221.091 216.845 203.134M145.142 294.319C155.178 299.187 175.018 301.746 209.927 288.555C243.387 275.911 263.263 263.237 272.031 252.251C282.46 239.184 273.715 225.286 261.078 227.843M145.142 294.319C140.801 292.51 132.108 287.971 124.841 281.725M210.437 254.07C223.174 252.036 243.467 239.276 252.048 232.331C255.14 229.852 258.209 228.423 261.078 227.843M118.249 234.997C126.954 235.017 133.945 234.004 139.513 232.357M139.513 232.357C143.109 232.906 150.304 233.638 156.705 241.74M261.078 227.843C265.22 222.653 269.092 215.422 269.963 208.683C271.728 195.024 257.161 189.318 247.138 199.499C242.304 204.409 237.951 208.408 233.822 211.788M195.887 233.372C211.1 226.485 221.454 221.912 233.822 211.788M212.57 259.714C207.706 246.842 199.603 236.915 194.038 231.499" stroke="black" stroke-width="3" stroke-linecap="round"/>
<path fill-rule="evenodd" clip-rule="evenodd" d="M133.754 74.6697L143.875 168.329L136.063 169.173L125.942 75.5138L133.754 74.6697Z" fill="white" stroke="black" stroke-width="3" stroke-linejoin="round"/>
<path d="M146.671 186.509L68.8384 159.702L120.491 130.435L172.144 101.167L155.139 181.711L182.683 230.322L208.703 231.752L162.069 258.176L174.215 235.12L146.671 186.509Z" fill="#14A7E7" fill-opacity="0.5"/>
<path d="M146.671 186.509L68.8384 159.702L120.491 130.435L172.144 101.167L155.139 181.711L182.683 230.322L208.703 231.752L162.069 258.176L174.215 235.12L146.671 186.509Z" stroke="black" stroke-width="3" stroke-linejoin="round"/>
<path d="M97.0048 158.417L145.883 175.252L153.984 136.886L97.0048 158.417Z" fill="#FF862B"/>
</g>
<defs>
<filter id="filter0_dd_143_761" x="-46.5" y="-9.99997" width="410.678" height="410.678" filterUnits="userSpaceOnUse" color-interpolation-filters="sRGB">
<feFlood flood-opacity="0" result="BackgroundImageFix"/>
<feColorMatrix in="SourceAlpha" type="matrix" values="0 0 0 0 0 0 0 0 0 0 0 0 0 0 0 0 0 0 127 0" result="hardAlpha"/>
<feOffset dx="1.5" dy="2"/>
<feGaussianBlur stdDeviation="6"/>
<feColorMatrix type="matrix" values="0 0 0 0 0 0 0 0 0 0 0 0 0 0 0 0 0 0 0.24 0"/>
<feBlend mode="normal" in2="BackgroundImageFix" result="effect1_dropShadow_143_761"/>
<feColorMatrix in="SourceAlpha" type="matrix" values="0 0 0 0 0 0 0 0 0 0 0 0 0 0 0 0 0 0 127 0" result="hardAlpha"/>
<feOffset dx="0.75" dy="1"/>
<feGaussianBlur stdDeviation="2"/>
<feColorMatrix type="matrix" values="0 0 0 0 0 0 0 0 0 0 0 0 0 0 0 0 0 0 0.48 0"/>
<feBlend mode="normal" in2="effect1_dropShadow_143_761" result="effect2_dropShadow_143_761"/>
<feBlend mode="normal" in="SourceGraphic" in2="effect2_dropShadow_143_761" result="shape"/>
</filter>
</defs>
</svg>
