<svg width="19" height="27" viewBox="0 0 19 27" fill="none" xmlns="http://www.w3.org/2000/svg">
<path d="M18.7485 14.2939C18.4451 14.6344 18.1366 14.9744 17.798 15.2818C13.0204 19.6109 11.8965 24.6253 10.8436 26.393C10.3844 27.1632 9.40623 27.2125 8.86407 26.4718C8.48588 25.9556 8.20004 25.3587 7.972 24.7625C4.41941 15.4599 -2.24539 14.7963 0.756252 12.3534C5.75941 8.28249 7.47885 2.17787 8.38977 0.562965C8.78303 -0.133779 9.71657 -0.188534 10.2279 0.425178C10.7758 1.08341 11.0591 1.88124 11.3883 2.65199C13.8302 8.36974 17.2018 10.9828 18.5569 12.2361C18.9005 12.5532 19.2517 13.7307 18.7485 14.2939Z" fill="#FD8A02"/>
</svg>
