<svg width="423" height="315" viewBox="0 0 423 315" fill="none" xmlns="http://www.w3.org/2000/svg">
<path d="M18.2552 184.073C20.6151 184.073 22.5281 182.16 22.5281 179.8C22.5281 177.44 20.6151 175.527 18.2552 175.527C15.8954 175.527 13.9824 177.44 13.9824 179.8C13.9824 182.16 15.8954 184.073 18.2552 184.073Z" stroke="white" stroke-width="2"/>
<path d="M26.6284 180.236C35.2468 179.349 48.77 180.398 50.3683 187.064C51.9667 193.731 45.8631 196.169 42.6117 196.555C30.2326 198.522 13.8184 197.596 13.8184 187.064" stroke="white" stroke-width="2" stroke-linecap="round"/>
<path d="M23.5153 190.316C24.0599 190.316 24.5014 189.874 24.5014 189.33C24.5014 188.785 24.0599 188.344 23.5153 188.344C22.9708 188.344 22.5293 188.785 22.5293 189.33C22.5293 189.874 22.9708 190.316 23.5153 190.316Z" stroke="white" stroke-width="2"/>
<path d="M33.0468 189.33C33.0468 189.809 32.6006 190.316 31.8965 190.316C31.1924 190.316 30.7461 189.809 30.7461 189.33C30.7461 188.851 31.1924 188.344 31.8965 188.344C32.6006 188.344 33.0468 188.851 33.0468 189.33Z" stroke="white" stroke-width="2"/>
<path d="M40.2771 190.316C40.8216 190.316 41.2631 189.874 41.2631 189.33C41.2631 188.785 40.8216 188.344 40.2771 188.344C39.7325 188.344 39.291 188.785 39.291 189.33C39.291 189.874 39.7325 190.316 40.2771 190.316Z" stroke="white" stroke-width="2"/>
<path d="M342.497 63.775C344.675 63.775 346.441 62.0091 346.441 59.8309C346.441 57.6526 344.675 55.8867 342.497 55.8867C340.319 55.8867 338.553 57.6526 338.553 59.8309C338.553 62.0091 340.319 63.775 342.497 63.775Z" stroke="white" stroke-width="2"/>
<path d="M350.244 56.3828C353.134 56.3828 361.393 56.3828 365.278 56.3828C368.425 56.3828 369.939 57.0789 369.939 61.9513C369.939 66.6852 369.9 72.8174 369.939 75.2923C369.966 77.0324 369.1 78.9581 366.21 79.2365C363.32 79.5149 351.72 79.3525 346.282 79.2365C344.262 79.2365 340.688 78.0913 340.688 73.436V68.2156" stroke="white" stroke-width="2" stroke-linecap="round"/>
<path d="M348.248 64.5977L355.479 69.5278" stroke="white" stroke-width="2" stroke-linecap="round"/>
<path d="M355.48 69.5283L368.628 57.3672" stroke="white" stroke-width="2" stroke-linecap="round"/>
<path d="M358.812 66.5703L362.405 70.1858L365.998 73.8012" stroke="white" stroke-width="2" stroke-linecap="round"/>
<path d="M345.619 73.8012L350.92 66.5703" stroke="white" stroke-width="2" stroke-linecap="round"/>
<path d="M371.402 310.281C370.31 311.375 369.368 312.318 368.72 312.967C367.029 314.661 365.253 313.673 364.576 312.967L353.787 302.572C352.194 301.091 350.848 299.629 344.827 293.886C344.211 293.269 343.235 291.693 344.258 290.326C345.282 288.959 351.037 281.782 353.787 278.364C354.621 277.156 356.433 275.718 358.745 277.868C360.736 279.719 367.563 286.127 373.393 290.999" stroke="white" stroke-width="2" stroke-linecap="round"/>
<path d="M353.672 278.734C354.011 284.969 356.299 295.006 368.134 298.784" stroke="white" stroke-width="2" stroke-linecap="round"/>
<path d="M383.684 299.266C383.141 297.887 378.977 296.282 377.403 299.266C375.781 302.344 377.021 304.937 378.077 305.446C379.424 306.095 381.403 306.434 383.493 302.698" stroke="white" stroke-width="2" stroke-linecap="round"/>
<path d="M384.027 297.347C383.906 298.067 383.781 298.37 383.682 299.266C383.554 300.433 383.472 301.657 383.491 302.698C383.531 304.524 383.892 305.784 384.918 305.176C386.975 303.956 388.086 302.955 388.382 301.935C388.875 300.219 388.878 296.934 386.104 294.786C382.758 292.192 378.985 292.263 376.017 294.786C373.07 297.29 372.264 301.298 372.426 303.378C372.602 305.653 374.3 310.538 379.84 310.615C385.378 310.691 388.379 307.705 388.839 306.307" stroke="white" stroke-width="2" stroke-linecap="round"/>
<path d="M92.0444 258.213C90.8628 253.651 86.939 245.238 80.6994 248.082C74.4594 250.925 78.0992 256.02 80.6994 258.213C82.4489 259.397 86.2103 260.665 87.2581 256.257C88.306 251.85 83.8902 250.037 82.6491 251.992C81.9947 252.762 81.2555 254.693 83.5355 256.257" stroke="white" stroke-width="2" stroke-linecap="round"/>
<path d="M119.89 36.9763C119.6 35.3441 121.308 34.0884 122.78 34.8514L125.723 36.3773C126.892 36.9833 128.284 36.9753 129.446 36.356L132.371 34.7964C133.834 34.0167 135.556 35.2528 135.285 36.8881L134.744 40.159C134.528 41.4578 134.966 42.7793 135.914 43.6928L138.301 45.9934C139.495 47.1436 138.852 49.1633 137.213 49.4111L133.934 49.9066C132.633 50.1034 131.511 50.9281 130.935 52.112L129.485 55.0933C128.76 56.584 126.64 56.5961 125.898 55.1139L124.414 52.1493C123.824 50.9721 122.694 50.1603 121.39 49.9784L118.106 49.5205C116.464 49.2915 115.798 47.2793 116.978 46.1155L119.339 43.7877C120.276 42.8634 120.699 41.537 120.469 40.2407L119.89 36.9763Z" stroke="white" stroke-width="2"/>
<path d="M311.438 168.461L320.147 161.23" stroke="white" stroke-width="2" stroke-linecap="round"/>
<path d="M312.752 173.393C314.45 174.05 318.307 174.675 320.147 171.914" stroke="white" stroke-width="2" stroke-linecap="round"/>
<path d="M144.634 163.505L134.773 153.316" stroke="white" stroke-width="2" stroke-linecap="round"/>
<path d="M154.656 161.858L148.74 146.574" stroke="white" stroke-width="2" stroke-linecap="round"/>
<path d="M142.169 169.255L134.773 166.461" stroke="white" stroke-width="2" stroke-linecap="round"/>
<path d="M325.404 245.207C369.283 257.368 448.1 271.337 412.34 229.923C401.055 218.803 384.402 205.765 357.615 194.262" stroke="white" stroke-width="2" stroke-linecap="round"/>
<path d="M372.899 160.244C400.179 142.769 444.124 106.669 401.658 102.068C359.193 97.4661 320.42 113.407 306.342 121.953" stroke="white" stroke-width="2" stroke-linecap="round"/>
<path d="M267.23 134.704C285.307 95.7557 314.56 15.0323 286.951 3.72581C252.439 -10.4074 207.739 30.3487 171.256 127.637" stroke="white" stroke-width="2" stroke-linecap="round"/>
<path d="M131.051 101.155C90.6239 79.0243 8.09278 44.9842 1.38774 85.8717C-5.31729 126.759 76.6003 160.865 118.397 172.807" stroke="white" stroke-width="2" stroke-linecap="round"/>
<path d="M129.13 194.262C70.1328 224.336 -3.79042 265.928 37.1563 287.606C53.9186 296.481 96.8113 291.057 116.532 283.005" stroke="white" stroke-width="2" stroke-linecap="round"/>
</svg>
