<svg width="423" height="340" viewBox="0 0 423 340" fill="none" xmlns="http://www.w3.org/2000/svg">
<path d="M269.414 307.361C268.247 298.271 263.088 282.979 259.956 278.864C256.517 274.381 255.104 272.968 243.619 269.099C243.005 266.028 240.733 258.29 238.031 255.035C233.916 248.832 222.677 247.42 219.299 248.157C219.299 248.157 201.12 241.77 180.178 241.77C173.545 243.243 165.868 246.253 161.692 252.579C158.867 256.755 162.06 258.106 160.648 261.914C160.279 262.896 151.681 267.809 148.181 270.757C146.584 272.047 144.803 275.302 143.575 279.54C141.118 288.199 143.759 300.175 140.688 310.616C134.792 330.76 122.816 336.778 122.816 336.778H281.512C281.39 336.717 271.932 326.522 269.414 307.361Z" fill="white"/>
<path d="M268.493 307.482C267.264 299.437 264.808 291.453 261.676 283.96C260.14 280.337 257.806 276.836 254.551 274.687C252.893 273.643 251.051 272.844 249.147 272.046C247.243 271.309 245.278 270.633 243.374 269.958C243.067 269.835 242.821 269.589 242.76 269.282C242.514 268.054 242.207 266.887 241.839 265.659C240.242 260.684 238.522 255.157 233.855 252.27C230.293 250.121 226.055 249.077 221.94 248.892C221.142 248.892 220.282 248.892 219.545 249.015H219.299C219.238 249.015 219.115 249.015 219.054 248.954C216.106 247.541 212.851 246.681 209.657 245.822C200.076 243.611 190.066 242.689 180.239 242.628C174.221 244.041 165.807 247.357 162.122 253.498C161.508 254.481 161.201 255.464 161.324 256.569C161.447 257.797 161.876 259.149 161.569 260.438C161.447 260.991 161.324 261.605 161.078 262.097C160.587 262.772 159.788 263.202 159.174 263.632C155.981 265.72 152.726 267.562 149.655 269.712C148.611 270.449 147.628 271.125 146.891 272.169C144.742 275.239 143.452 278.924 142.899 282.609C141.917 290.102 142.899 297.717 141.917 305.21C140.811 312.702 137.925 319.949 133.871 326.336C131.046 330.636 127.607 334.627 123.247 337.391L122.817 335.672H281.513L280.837 337.207C278.995 335.119 277.521 332.846 276.169 330.451C271.993 323.45 269.537 315.527 268.493 307.482ZM270.335 307.236C271.011 312.457 272.3 317.616 274.266 322.529C276.231 327.381 278.688 332.109 282.127 336.101C282.618 336.654 282.188 337.698 281.451 337.637H122.755C122.264 337.637 121.834 337.207 121.834 336.716C121.834 336.347 122.018 336.04 122.325 335.917C123.308 335.364 124.291 334.566 125.212 333.768C133.257 326.521 138.293 315.773 139.951 305.087C141.364 295.076 138.723 284.267 143.206 274.748C144.25 272.537 145.54 270.203 147.628 268.791C151.436 265.966 155.612 263.878 159.358 261.114C159.42 261.114 159.42 261.052 159.42 261.052C159.358 261.114 159.297 261.237 159.297 261.298C159.666 260.438 159.788 259.701 159.666 258.719C159.481 257.49 159.174 255.832 159.604 254.543C159.788 253.806 160.157 253.13 160.525 252.577C164.947 245.944 172.747 242.997 180.178 241.338C182.266 241.4 184.416 241.031 186.504 241.031C189.39 241.031 192.338 241.461 195.225 241.83C203.516 243.119 211.5 245.33 219.668 247.111L219.115 247.05C221.019 246.681 222.8 246.866 224.642 247.111C236.434 248.892 240.426 254.051 243.62 265.044C243.988 266.273 244.295 267.501 244.602 268.791L243.988 268.054C249.884 270.142 256.517 272.046 260.263 277.512C261.614 279.17 262.597 281.135 263.457 283.1C266.589 290.962 269.045 298.884 270.335 307.236Z" fill="black"/>
<path d="M172.625 266.947C177.17 276.651 184.232 284.881 192.646 291.391C192.953 291.636 192.646 292.127 192.278 291.943C184.785 288.381 178.459 282.301 174.713 274.931C173.485 272.475 172.441 269.834 172.072 267.07C171.949 266.763 172.441 266.64 172.625 266.947Z" fill="black"/>
<path d="M244.541 268.974C244.725 279.231 240.549 289.733 232.565 296.365C232.381 296.55 232.135 296.488 231.951 296.304C231.767 296.12 231.828 295.874 232.013 295.69C233.794 293.97 235.575 292.189 236.926 290.101C239.751 286.048 241.47 281.257 242.269 276.405C242.637 274.01 242.883 271.431 242.699 269.036C242.637 267.869 244.48 267.746 244.541 268.974Z" fill="black"/>
<path d="M208.368 293.356C206.956 298.331 205.789 303.735 206.465 308.894C206.649 310.061 204.868 310.368 204.622 309.14C204.315 306.315 204.683 303.551 205.175 300.849C205.728 298.147 206.403 295.567 207.324 292.988C207.57 292.374 208.614 292.681 208.368 293.356Z" fill="black"/>
<path d="M227.898 292.437C229.925 296.798 231.338 301.343 232.443 305.949C232.566 306.44 232.259 306.931 231.768 307.054C231.276 307.177 230.785 306.87 230.662 306.379C230.048 302.939 229.25 299.5 228.144 296.122C227.776 295.017 227.407 293.911 226.977 292.806C226.731 292.253 227.591 291.823 227.898 292.437Z" fill="black"/>
<path d="M161.938 261.667C164.21 274.073 172.931 284.575 183.433 291.269C186.995 293.542 190.803 295.507 194.734 297.104C194.979 297.226 195.102 297.472 194.979 297.718C194.918 297.963 194.611 298.086 194.427 297.963C190.373 296.49 186.443 294.647 182.758 292.436C175.265 288.014 168.694 281.873 164.272 274.38C161.999 270.511 160.218 266.458 159.359 262.036C159.236 261.299 159.727 260.623 160.464 260.5C161.14 260.316 161.877 260.869 161.938 261.667Z" fill="black"/>
<path d="M204.682 310.247C202.963 310.063 201.734 308.466 202.103 306.747L202.778 303.492C203.024 302.202 204.252 301.281 205.542 301.465C206.832 301.588 207.876 302.693 207.876 304.044V307.361C207.937 309.08 206.463 310.431 204.682 310.247Z" fill="black"/>
<path d="M232.995 307.973C231.337 308.587 229.556 307.605 229.126 305.885L228.327 302.63C228.02 301.34 228.696 300.051 229.986 299.559C231.214 299.129 232.626 299.682 233.179 300.849L234.653 303.858C235.39 305.516 234.653 307.42 232.995 307.973Z" fill="black"/>
<path d="M152.971 336.716C152.971 336.716 152.419 323.021 150.576 319.336" stroke="black" stroke-width="5.1257" stroke-miterlimit="10" stroke-linecap="round" stroke-linejoin="round"/>
<path d="M261.369 306.133C261.369 306.133 264.808 325.417 263.457 336.717" stroke="black" stroke-width="5.1257" stroke-miterlimit="10" stroke-linecap="round" stroke-linejoin="round"/>
<path d="M251.482 324.68C251.482 324.68 242.392 326.031 234.408 325.662" stroke="black" stroke-width="5.1257" stroke-miterlimit="10" stroke-linecap="round" stroke-linejoin="round"/>
<path d="M181.161 259.458C180.301 257.001 179.932 254.483 180.117 251.904C180.117 251.658 180.301 251.535 180.547 251.535C180.731 251.535 180.915 251.719 180.915 251.904C181.099 254.237 181.775 256.633 182.88 258.659C183.433 259.888 181.591 260.686 181.161 259.458Z" fill="black"/>
<path d="M222.676 262.712C220.957 258.843 216.719 256.878 212.973 255.526C210.639 254.789 208.059 254.237 205.603 253.868C199.646 252.947 191.232 251.535 185.275 250.92C185.213 250.92 185.213 250.798 185.275 250.798C186.994 250.613 188.714 250.613 190.433 250.613C195.592 250.736 200.751 251.289 205.849 252.087C210.946 252.886 216.412 254.421 220.281 258.106C221.509 259.396 222.615 260.87 222.922 262.651C222.983 262.835 222.738 262.896 222.676 262.712Z" fill="black"/>
<path d="M228.39 278.495C227.1 284.821 218.748 288.629 204.684 282.917C190.067 277.021 183.741 262.957 182.145 258.781C190.804 242.568 184.785 231.329 184.785 231.329C204.745 229.609 222.187 252.947 222.187 252.947L224.889 264.493C225.135 265.476 225.626 266.335 226.363 266.949C227.653 269.222 229.188 274.442 228.39 278.495Z" fill="white"/>
<path d="M181.837 258.965C183.004 257.184 183.741 255.096 184.232 253.069C185.153 248.831 185.46 244.532 185.522 240.233V238.636C185.337 237.04 184.785 235.381 184.171 233.907C183.372 231.942 186.259 230.714 187.18 232.679C187.303 232.925 187.303 233.355 187.303 233.6C187.487 241.953 187.855 252.7 182.574 259.64C182.205 260.009 181.468 259.456 181.837 258.965Z" fill="black"/>
<path d="M222.862 252.823C223.783 253.376 224.09 254.113 224.213 254.85C224.582 256.324 224.459 257.921 224.827 259.456C225.135 260.93 226.056 262.342 226.301 263.878C226.608 265.475 227.53 268.852 227.898 270.511C228.021 270.879 227.775 271.309 227.345 271.37C227.1 271.432 226.916 271.37 226.731 271.248C225.933 270.572 225.564 269.896 225.073 269.037C224.275 267.563 223.722 266.212 223.231 264.553C222.801 263.079 222.985 261.483 222.616 259.947C222.309 258.473 221.45 257.061 221.143 255.525C220.958 254.788 220.897 253.99 221.45 253.069C221.818 252.7 222.432 252.577 222.862 252.823Z" fill="black"/>
<path d="M227.285 269.036C215.554 268.422 205.974 264.737 196.639 248.094C204.5 255.034 213.773 257.674 223.538 258.903L224.828 264.553C225.074 265.536 226.548 268.422 227.285 269.036Z" fill="black"/>
<path d="M226.793 266.764C228.881 270.695 230.11 275.608 228.82 279.968C227.837 283.039 225.012 285.312 221.941 286.171C214.817 288.075 206.588 285.066 200.262 281.688C192.462 277.328 186.689 270.019 183.004 262.035C182.759 261.421 183.619 260.93 183.987 261.544C185.277 264.123 186.751 266.641 188.409 268.914C190.067 271.247 191.971 273.397 194.12 275.301C200.385 280.951 208.86 284.452 217.335 284.452C226.056 284.206 229.373 279.6 227.346 271.125C227.039 269.774 226.548 268.361 225.872 267.194C225.503 266.703 226.425 266.15 226.793 266.764Z" fill="black"/>
<path d="M250.56 193.006C251.666 198.165 250.806 201.605 250.314 215.853C244.664 239.436 245.094 252.517 241.962 255.65C239.505 258.106 224.827 261.3 213.957 258.536C208.429 257.124 203.762 253.93 199.954 251.658C195.164 248.771 191.54 239.375 188.101 233.663C185.399 229.18 185.092 235.076 181.591 231.207C176.739 225.925 170.905 215.3 173.791 196.507C178.459 166.045 202.595 162.483 220.467 165.861C238.4 169.239 247.612 179.434 250.56 193.006Z" fill="white"/>
<path d="M184.601 236.612C182.451 233.05 179.381 230.102 177.415 226.417C171.458 215.239 170.23 201.667 173.669 189.507C180.855 163.59 206.894 159.782 229.495 167.397C242.147 171.696 251.052 182.382 252.341 195.832C252.464 200.131 251.359 204.123 251.297 208.361C250.99 219.538 247.49 230.286 246.139 241.034C245.831 244.411 245.832 247.974 245.34 251.413C245.217 252.15 245.095 252.825 244.849 253.624C244.296 255.282 243.068 256.449 241.717 257.37C236.619 260.502 230.846 261.055 225.073 261.362C213.036 261.853 202.473 258.353 195.287 248.342C195.041 247.974 195.533 247.544 195.84 247.912C203.885 256.51 213.527 259.274 224.95 258.721C229.802 258.475 240.181 257.554 242.331 252.825C243.375 248.956 243.375 244.903 243.989 240.849C244.665 236.059 246.507 229.365 247.613 224.636C248.841 219.293 249.885 213.888 249.946 208.422C250.008 205.659 250.008 202.895 250.008 200.131C250.131 197.368 249.578 194.973 248.902 192.332C246.446 181.83 238.892 173.109 228.697 169.24C218.686 165.371 207.079 164.388 196.822 167.766C186.382 171.082 179.258 180.049 176.556 190.489C175.143 195.648 174.406 201.053 174.038 206.396C173.73 211.8 174.283 217.328 176.433 222.364C177.968 226.171 180.486 229.488 183.434 232.251L186.321 235.261C187.672 236.489 185.584 238.086 184.601 236.612Z" fill="black"/>
<path d="M191.847 217.082C191.847 217.082 189.943 207.869 180.977 208.975C173.239 209.958 170.536 228.505 188.101 233.664" fill="white"/>
<path d="M187.303 225.617C185.89 224.819 184.907 223.468 184.846 221.809C184.907 220.581 185.092 219.169 184.785 217.94C184.6 216.773 183.372 216.466 182.451 216.528C181.468 216.712 180.854 217.94 180.67 218.923C180.67 218.984 180.608 219.169 180.608 219.23C180.547 219.537 180.056 219.537 179.933 219.23C179.134 216.835 180.915 214.194 183.495 214.501C187.118 214.747 187.61 218.554 186.934 221.441C186.566 222.669 187.057 223.775 187.732 224.819L187.855 225.003C188.162 225.371 187.671 225.863 187.303 225.617Z" fill="black"/>
<path d="M236.435 210.57C237.356 214.931 239.076 218.984 241.225 222.792C243.129 227.459 238.216 231.881 233.856 231.697C233.364 231.697 233.303 231.021 233.733 230.898C236.496 230.039 239.014 228.196 239.444 225.371C239.629 224.511 239.383 223.774 238.953 223.037C236.926 219.23 235.698 214.869 236.005 210.57C236.005 210.263 236.435 210.263 236.435 210.57Z" fill="black"/>
<path d="M191.541 217.141C190.129 213.518 187.058 210.079 182.943 210.14C182.575 210.079 181.961 210.202 181.592 210.202C180.548 210.263 179.688 210.631 178.89 211.368C174.959 215.299 175.635 222.239 178.829 226.599C179.934 228.135 181.347 229.486 182.943 230.591C184.54 231.697 186.321 232.557 188.225 233.293C188.655 233.416 188.471 234.092 188.041 234.03C183.926 233.171 179.995 231.144 177.293 227.766C173.117 222.73 172.257 214.316 177.232 209.403C178.337 208.42 179.873 207.683 181.408 207.683C181.899 207.683 182.636 207.561 183.128 207.683C185.707 207.806 188.164 209.096 189.76 211.123C191.173 212.842 191.971 214.93 192.217 217.019C192.217 217.387 191.664 217.51 191.541 217.141Z" fill="black"/>
<path d="M231.096 162.07L231.097 162.07L231.096 162.07ZM231.096 162.07L231.096 162.069L231.093 162.065L231.08 162.044C231.067 162.024 231.048 161.994 231.021 161.955C230.968 161.876 230.887 161.758 230.778 161.606C230.559 161.302 230.226 160.864 229.776 160.335C228.876 159.276 227.509 157.854 225.649 156.412C221.93 153.531 216.24 150.57 208.349 150.268C204.942 150.146 203.027 150.669 202.015 151.413C201.056 152.118 200.836 153.081 201 154.144C201.169 155.234 201.741 156.37 202.296 157.258C202.571 157.697 202.835 158.064 203.029 158.321C203.126 158.449 203.206 158.55 203.261 158.617C203.288 158.651 203.309 158.677 203.323 158.693L203.339 158.712L203.342 158.716L203.343 158.717L203.343 158.717L203.343 158.717C203.343 158.717 203.343 158.717 203.342 158.717L202.715 159.473C202.714 159.475 202.714 159.475 202.714 159.475L202.714 159.475L202.714 159.475L202.71 159.473L202.692 159.463C202.674 159.454 202.647 159.439 202.609 159.419C202.533 159.38 202.416 159.322 202.26 159.25C201.947 159.107 201.475 158.91 200.851 158.7C199.601 158.28 197.74 157.809 195.316 157.621C190.474 157.244 183.365 157.992 174.386 162.558C170.478 164.55 168.549 166.435 167.77 168.081C167.009 169.687 167.308 171.145 168.084 172.424C168.872 173.723 170.141 174.81 171.242 175.582C171.788 175.965 172.283 176.263 172.641 176.466C172.82 176.567 172.964 176.644 173.063 176.696C173.112 176.721 173.15 176.74 173.175 176.753L173.202 176.767L173.209 176.77L173.21 176.77L173.21 176.77L173.21 176.77L174.098 177.199L173.227 177.662L173.227 177.662L173.227 177.662L173.226 177.662L173.221 177.665L173.199 177.677C173.178 177.688 173.147 177.706 173.106 177.729C173.023 177.777 172.899 177.848 172.741 177.945C172.424 178.139 171.969 178.433 171.42 178.828C170.322 179.618 168.854 180.813 167.381 182.425C164.436 185.648 161.483 190.526 161.393 197.187L161.393 197.189C161.365 198.849 162.044 200.969 163.541 202.452C165.01 203.908 167.313 204.793 170.658 203.943L171.373 203.761L171.277 204.492C169.526 217.837 177.683 228.805 181.482 233.34L181.483 233.341C183.976 236.332 185.339 238.974 186.079 240.88C186.413 241.739 186.62 242.448 186.747 242.971C186.845 242.746 186.909 242.47 186.94 242.136C187.012 241.367 186.894 240.399 186.688 239.32C186.563 238.666 186.413 238.004 186.263 237.339C186.163 236.899 186.063 236.458 185.97 236.016C185.771 235.073 185.605 234.141 185.577 233.327C177.945 230.272 174.757 224.431 174.458 219.164C174.308 216.506 174.893 213.988 176.021 212.057C177.148 210.127 178.844 208.747 180.911 208.476L180.914 208.476C185.028 207.962 187.763 209.545 189.509 211.494C190.699 212.822 191.424 214.312 191.834 215.405C191.909 215.189 191.983 214.943 192.055 214.667C192.275 213.821 192.462 212.757 192.633 211.528C192.846 210.008 193.031 208.269 193.229 206.413C193.352 205.257 193.48 204.056 193.622 202.834L193.659 202.515L193.965 202.416C196.225 201.683 198.205 200.9 199.81 199.889L199.821 199.882L199.821 199.883C202.993 197.997 205.337 195.422 207.748 192.772L207.767 192.752C210.172 190.11 212.644 187.398 216.034 185.389C219.022 183.603 221.511 183.242 223.665 183.673C225.798 184.099 227.534 185.289 229.034 186.461C229.355 186.711 229.659 186.956 229.953 187.193C230.365 187.524 230.758 187.841 231.157 188.141C231.83 188.647 232.453 189.053 233.061 189.303C233.662 189.549 234.233 189.636 234.813 189.522C235.397 189.407 236.041 189.077 236.769 188.4L236.77 188.399C238.609 186.701 240.362 185.728 242.005 185.395C243.659 185.058 245.166 185.379 246.473 186.201C249.05 187.824 250.794 191.354 251.602 195.485C251.86 196.718 252.733 197.219 253.563 197.172C254.41 197.124 255.298 196.5 255.534 195.246L255.535 195.24C256.385 190.989 256.75 185.883 256.081 180.165C254.502 166.68 247.021 157.712 240.661 154.356C237.449 152.661 234.684 152.47 233.066 153.574C231.494 154.648 230.711 157.175 232.001 161.667L231.098 162.069L231.096 162.07Z" fill="black" stroke="#868686"/>
<path d="M226.241 207.746C227.592 207.93 228.636 206.517 228.145 205.166C227.899 204.429 227.469 203.754 226.794 203.324C224.705 202.034 216.906 201.911 212.791 204.859C209.106 207.561 220.099 206.886 226.241 207.746Z" fill="black"/>
<path d="M243.253 208.421C242.148 208.421 241.472 207.009 242.025 205.842C242.332 205.228 242.762 204.675 243.376 204.368C245.28 203.447 250.377 203.999 252.65 207.131C254.676 209.895 248.351 208.36 243.253 208.421Z" fill="black"/>
<path d="M223.968 215.669C220.835 214.318 217.273 214.686 214.018 215.423C213.65 215.546 213.404 215.055 213.711 214.809C216.536 212.475 221.88 212.168 224.152 215.362C224.336 215.485 224.213 215.73 223.968 215.669Z" fill="black"/>
<path d="M248.105 216.958C246.631 215.914 244.481 216.099 242.762 216.283C242.147 216.344 241.533 216.467 240.858 216.651C240.673 216.713 240.489 216.406 240.612 216.283L240.735 216.16C242.27 214.563 244.665 214.195 246.754 214.993C247.49 215.3 248.227 215.73 248.596 216.59C248.78 216.897 248.35 217.204 248.105 216.958Z" fill="black"/>
<path d="M231.768 241.523C227.837 245.269 220.406 242.26 218.441 237.715C218.195 237.162 218.809 236.671 219.3 236.917C220.345 237.469 221.266 238.022 222.248 238.452C225.073 239.742 228.021 240.786 231.154 240.479C231.768 240.356 232.198 241.093 231.768 241.523Z" fill="black"/>
<path d="M18.2552 184.073C20.6151 184.073 22.5281 182.16 22.5281 179.8C22.5281 177.44 20.6151 175.527 18.2552 175.527C15.8954 175.527 13.9824 177.44 13.9824 179.8C13.9824 182.16 15.8954 184.073 18.2552 184.073Z" stroke="white" stroke-width="2"/>
<path d="M26.6284 180.236C35.2468 179.349 48.77 180.398 50.3683 187.064C51.9667 193.731 45.8631 196.169 42.6117 196.555C30.2326 198.522 13.8184 197.596 13.8184 187.064" stroke="white" stroke-width="2" stroke-linecap="round"/>
<path d="M23.5153 190.316C24.0599 190.316 24.5014 189.874 24.5014 189.33C24.5014 188.785 24.0599 188.344 23.5153 188.344C22.9708 188.344 22.5293 188.785 22.5293 189.33C22.5293 189.874 22.9708 190.316 23.5153 190.316Z" stroke="white" stroke-width="2"/>
<path d="M33.0468 189.33C33.0468 189.809 32.6006 190.316 31.8965 190.316C31.1924 190.316 30.7461 189.809 30.7461 189.33C30.7461 188.851 31.1924 188.344 31.8965 188.344C32.6006 188.344 33.0468 188.851 33.0468 189.33Z" stroke="white" stroke-width="2"/>
<path d="M40.2771 190.316C40.8216 190.316 41.2631 189.874 41.2631 189.33C41.2631 188.785 40.8216 188.344 40.2771 188.344C39.7325 188.344 39.291 188.785 39.291 189.33C39.291 189.874 39.7325 190.316 40.2771 190.316Z" stroke="white" stroke-width="2"/>
<path d="M342.497 63.775C344.675 63.775 346.441 62.0091 346.441 59.8309C346.441 57.6526 344.675 55.8867 342.497 55.8867C340.319 55.8867 338.553 57.6526 338.553 59.8309C338.553 62.0091 340.319 63.775 342.497 63.775Z" stroke="white" stroke-width="2"/>
<path d="M350.244 56.3828C353.134 56.3828 361.393 56.3828 365.278 56.3828C368.425 56.3828 369.939 57.0789 369.939 61.9513C369.939 66.6852 369.9 72.8174 369.939 75.2923C369.966 77.0324 369.1 78.9581 366.21 79.2365C363.32 79.5149 351.72 79.3525 346.282 79.2365C344.262 79.2365 340.688 78.0913 340.688 73.436V68.2156" stroke="white" stroke-width="2" stroke-linecap="round"/>
<path d="M348.248 64.5977L355.479 69.5278" stroke="white" stroke-width="2" stroke-linecap="round"/>
<path d="M355.48 69.5283L368.628 57.3672" stroke="white" stroke-width="2" stroke-linecap="round"/>
<path d="M358.812 66.5703L362.405 70.1858L365.998 73.8012" stroke="white" stroke-width="2" stroke-linecap="round"/>
<path d="M345.619 73.8012L350.92 66.5703" stroke="white" stroke-width="2" stroke-linecap="round"/>
<path d="M371.402 310.281C370.31 311.375 369.368 312.318 368.72 312.967C367.029 314.661 365.253 313.673 364.576 312.967L353.787 302.572C352.194 301.091 350.848 299.629 344.827 293.886C344.211 293.269 343.235 291.693 344.258 290.326C345.282 288.959 351.037 281.782 353.787 278.364C354.621 277.156 356.433 275.718 358.745 277.868C360.736 279.719 367.563 286.127 373.393 290.999" stroke="white" stroke-width="2" stroke-linecap="round"/>
<path d="M353.672 278.734C354.011 284.969 356.299 295.006 368.134 298.784" stroke="white" stroke-width="2" stroke-linecap="round"/>
<path d="M383.684 299.266C383.141 297.887 378.977 296.282 377.403 299.266C375.781 302.344 377.021 304.937 378.077 305.446C379.424 306.095 381.403 306.434 383.493 302.698" stroke="white" stroke-width="2" stroke-linecap="round"/>
<path d="M384.027 297.347C383.906 298.067 383.781 298.37 383.682 299.266C383.554 300.433 383.472 301.657 383.491 302.698C383.531 304.524 383.892 305.784 384.918 305.176C386.975 303.956 388.086 302.955 388.382 301.935C388.875 300.219 388.878 296.934 386.104 294.786C382.758 292.192 378.985 292.263 376.017 294.786C373.07 297.29 372.264 301.298 372.426 303.378C372.602 305.653 374.3 310.538 379.84 310.615C385.378 310.691 388.379 307.705 388.839 306.307" stroke="white" stroke-width="2" stroke-linecap="round"/>
<path d="M92.0444 258.213C90.8628 253.651 86.939 245.238 80.6994 248.082C74.4594 250.925 78.0992 256.02 80.6994 258.213C82.4489 259.397 86.2103 260.665 87.2581 256.257C88.306 251.85 83.8902 250.037 82.6491 251.992C81.9947 252.762 81.2555 254.693 83.5355 256.257" stroke="white" stroke-width="2" stroke-linecap="round"/>
<path d="M119.89 36.9763C119.6 35.3441 121.308 34.0884 122.78 34.8514L125.723 36.3773C126.892 36.9833 128.284 36.9753 129.446 36.356L132.371 34.7964C133.834 34.0167 135.556 35.2528 135.285 36.8881L134.744 40.159C134.528 41.4578 134.966 42.7793 135.914 43.6928L138.301 45.9934C139.495 47.1436 138.852 49.1633 137.213 49.4111L133.934 49.9066C132.633 50.1034 131.511 50.9281 130.935 52.112L129.485 55.0933C128.76 56.584 126.64 56.5961 125.898 55.1139L124.414 52.1493C123.824 50.9721 122.694 50.1603 121.39 49.9784L118.106 49.5205C116.464 49.2915 115.798 47.2793 116.978 46.1155L119.339 43.7877C120.276 42.8634 120.699 41.537 120.469 40.2407L119.89 36.9763Z" stroke="white" stroke-width="2"/>
<path d="M311.438 168.461L320.147 161.23" stroke="white" stroke-width="2" stroke-linecap="round"/>
<path d="M312.752 173.393C314.45 174.05 318.307 174.675 320.147 171.914" stroke="white" stroke-width="2" stroke-linecap="round"/>
<path d="M144.634 163.505L134.773 153.316" stroke="white" stroke-width="2" stroke-linecap="round"/>
<path d="M154.656 161.858L148.74 146.574" stroke="white" stroke-width="2" stroke-linecap="round"/>
<path d="M142.169 169.255L134.773 166.461" stroke="white" stroke-width="2" stroke-linecap="round"/>
<path d="M325.404 245.207C369.283 257.368 448.1 271.337 412.34 229.923C401.055 218.803 384.402 205.765 357.615 194.262" stroke="white" stroke-width="2" stroke-linecap="round"/>
<path d="M372.899 160.244C400.179 142.769 444.124 106.669 401.658 102.068C359.193 97.4661 320.42 113.407 306.342 121.953" stroke="white" stroke-width="2" stroke-linecap="round"/>
<path d="M267.23 134.704C285.307 95.7557 314.56 15.0323 286.951 3.72581C252.439 -10.4074 207.739 30.3487 171.256 127.637" stroke="white" stroke-width="2" stroke-linecap="round"/>
<path d="M131.051 101.155C90.6239 79.0243 8.09278 44.9842 1.38774 85.8717C-5.31729 126.759 76.6003 160.865 118.397 172.807" stroke="white" stroke-width="2" stroke-linecap="round"/>
<path d="M129.13 194.262C70.1328 224.336 -3.79042 265.928 37.1563 287.606C53.9186 296.481 96.8113 291.057 116.532 283.005" stroke="white" stroke-width="2" stroke-linecap="round"/>
</svg>
