<svg width="115" height="115" viewBox="0 0 115 115" fill="none" xmlns="http://www.w3.org/2000/svg">
<g clip-path="url(#clip0_689_627)">
<g filter="url(#filter0_d_689_627)">
<path fill-rule="evenodd" clip-rule="evenodd" d="M31.3404 22.5077C29.5406 26.2211 25.2649 30.2714 25.2649 30.2714C25.2649 30.2714 24.9274 24.3086 27.1774 20.1456C29.5406 16.2069 35.5034 13.3945 35.5034 13.3945C34.4695 14.4278 33.8813 16.0924 33.2051 18.0043C32.7043 19.4217 32.1546 20.9753 31.3404 22.5077ZM25.0401 31.6215C25.0401 31.6215 26.6156 31.3966 28.7535 28.5837C30.8907 25.7708 37.7539 20.3704 44.0548 23.0706C44.0548 23.0706 43.0428 23.1828 40.5668 25.9957C37.8666 28.8086 33.5909 31.0591 25.0401 31.6215ZM17.7261 28.1335C17.7261 28.1335 20.7644 30.9464 20.6517 36.797C20.5907 39.9084 20.0669 41.4649 19.4557 43.2784C18.9405 44.8097 18.3632 46.5237 17.9515 49.5114C17.9515 49.5114 14.4636 44.2232 14.5763 39.047C14.6987 36.1663 15.3554 34.7546 16.0736 33.2113C16.6739 31.9222 17.3167 30.5405 17.7267 28.1341L17.7261 28.1335ZM28.19 41.4103C25.1522 46.2483 18.9641 49.3987 18.9641 49.3987C22.452 37.0219 26.9526 34.7719 27.0653 34.8846C30.778 32.634 33.4782 32.7467 33.4782 32.7467C32.7721 33.2602 32.1396 34.4321 31.1627 36.2427C30.4267 37.6061 29.4952 39.3316 28.19 41.4103ZM27.4028 45.2352C27.4028 45.2352 22.678 49.0612 21.7775 54.9118C20.8771 60.6498 23.015 66.9506 23.015 66.9506C23.015 66.9506 26.2781 61.3248 27.0653 56.5995C27.9657 51.7614 27.4028 45.2352 27.4028 45.2352ZM27.7403 70.101C26.5029 65.4878 29.2031 58.6246 29.2031 58.6246C29.2031 58.6246 32.5784 65.0376 34.0412 69.7635C35.3913 74.6016 34.7162 80.7897 34.7162 80.7897L34.3654 80.4137L34.2528 80.2935C31.3128 77.1528 28.9167 74.5924 27.7403 70.101ZM23.5773 67.513L22.1145 68.5255C24.2317 70.6433 27.8852 74.3871 28.5401 75.1415L28.6402 75.2766C28.6517 75.2766 28.616 75.2289 28.5401 75.1415C25.6663 71.2516 23.5767 67.513 23.5767 67.513H23.5773ZM36.0663 69.7635C36.0663 69.7635 36.2911 70.7761 36.5165 73.9265C36.7414 77.0764 37.4164 79.8893 41.1292 83.4899C44.8425 87.09 52.0427 88.4407 52.0427 88.4407C52.0427 88.4407 48.3299 84.84 46.4174 81.5775L46.2317 81.267L46.2289 81.2624L46.2277 81.2601C44.1715 77.8273 40.6473 71.9451 36.0663 69.7635ZM34.6041 82.3646C35.0537 82.1398 35.6161 81.1272 35.6161 81.1272C37.5291 83.0397 40.9044 85.0648 40.9044 85.0648C36.179 83.9401 34.6041 82.3646 34.6041 82.3646ZM27.4028 85.2902C24.7026 86.0774 23.4646 85.6278 23.4646 85.6278C25.8279 88.5528 31.6779 91.8159 39.2167 91.5905C46.755 91.253 50.6926 89.1157 50.6926 89.1157C47.6387 89.2951 45.3738 88.3993 41.8364 87.0003V86.9997L41.8341 86.9991C40.9412 86.6461 39.9671 86.2608 38.8786 85.8526C33.5909 83.8274 30.103 84.5025 27.4028 85.2902ZM12.5505 67.9632C12.5505 67.9632 14.2381 69.426 18.4011 70.6634C18.9163 70.8123 19.3925 70.9434 19.8381 71.0665L19.8392 71.067H19.8398H19.841L19.8415 71.0676C23.0937 71.9635 24.7411 72.4177 28.3027 76.1765C32.353 80.4522 33.7031 82.1398 33.7031 82.1398C33.7031 82.1398 25.4897 82.59 20.202 78.2016C16.7877 75.3692 15.437 72.8173 14.3635 70.7893C13.7741 69.6761 13.2687 68.7205 12.5505 67.9632ZM19.6397 50.0738C18.8519 50.8615 17.7267 50.1859 17.7267 50.1859C18.5144 53.5612 20.202 59.187 20.202 59.187C19.3022 55.1367 19.6397 50.0732 19.6397 50.0732V50.0738ZM9.28855 48.7231C9.28855 48.7231 13.4516 50.2986 17.1643 55.9244C20.8771 61.5496 21.7775 66.6131 21.7775 66.6131C21.7775 66.6131 16.2645 64.8128 13.114 60.4249C9.8509 55.9244 9.28855 48.7237 9.28855 48.7237V48.7231ZM25.4897 32.8589C24.4777 32.7467 24.0269 32.1838 24.0269 32.1838C23.3111 33.7754 22.4819 36.1553 22.0581 37.372C21.9741 37.6192 21.8869 37.8654 21.7965 38.1103L21.777 38.1471C21.777 38.1552 21.7839 38.1425 21.7965 38.1103C22.9316 35.9731 25.4897 32.8589 25.4897 32.8589ZM32.2403 23.633C32.2403 23.633 35.8409 19.9202 43.3792 19.6954C50.9174 19.47 53.0553 18.2326 56.9934 14.1817C56.9934 14.1817 51.3676 12.9443 45.6297 14.5192C39.8912 16.2074 34.9405 20.2577 32.2403 23.633ZM89.06 86.078C91.7608 86.9779 92.9982 86.5276 92.9982 86.5276C90.5228 89.4532 84.6722 92.6037 77.2467 92.0407C69.7078 91.4784 65.7702 89.2278 65.7702 89.2278C68.6412 89.4889 70.9073 88.6735 74.2843 87.458H74.2848C75.2744 87.1015 76.36 86.7105 77.5842 86.3028C82.9846 84.3898 86.3598 85.1775 89.06 86.078ZM81.0715 81.8023C81.0715 81.8023 81.6345 82.8149 82.0841 83.1524C82.0841 83.1524 80.3965 84.7273 75.6712 85.6278C75.6712 85.6278 79.0464 83.6026 81.0715 81.8023ZM80.3959 74.6016C80.7335 71.4511 80.9588 70.4386 80.9588 70.4386C76.1208 72.5758 72.408 78.6519 70.3823 82.0271C68.245 85.2902 64.5317 88.7782 64.5317 88.7782C64.5317 88.7782 71.8451 87.5402 75.5579 84.0523C79.2712 80.5643 80.0584 77.752 80.3959 74.6016ZM94.9101 69.5381L93.4479 68.4134C93.4479 68.4134 91.1973 72.1262 88.1596 76.0638C88.1354 76.0879 88.3177 75.9114 88.6426 75.5952L88.6466 75.5917L88.6472 75.5911L88.6506 75.5877L88.6524 75.586L88.6558 75.5825C89.8598 74.4124 92.9717 71.389 94.9101 69.5381ZM98.5107 71.7887C102.786 70.6634 104.473 69.2006 104.473 69.2006C103.785 69.928 103.265 70.8376 102.666 71.8858C101.505 73.9173 100.048 76.468 96.485 79.2142C91.0846 83.4899 82.8713 82.8149 82.8713 82.8149C82.8713 82.8149 84.3341 81.1272 88.4971 76.9642C92.0909 73.3705 93.7561 72.9628 96.8944 72.1946H96.895C97.3918 72.0733 97.9259 71.9422 98.5107 71.7887ZM88.0469 59.5245C88.0469 59.5245 90.6349 66.3877 89.1721 71.1136C87.7094 75.7263 85.234 78.3143 81.9714 81.6896C81.9714 81.6896 81.4085 75.5014 82.984 70.6634C84.4462 65.7126 88.0469 59.5245 88.0469 59.5245ZM95.5851 55.9244C94.7974 50.0738 90.1847 46.1356 90.1847 46.1356C90.1847 46.1356 89.5097 52.6619 90.1847 57.3872C90.8598 62.1126 94.0102 67.8505 94.0102 67.8505C94.0102 67.8505 96.3729 61.775 95.5851 55.9244ZM99.7487 51.4239C99.7487 51.4239 98.6234 52.0989 97.8363 51.1985C97.8363 51.1985 97.9484 56.3741 97.0485 60.1995C97.0485 60.1995 98.8488 54.6864 99.7487 51.4239ZM100.199 57.0491C104.024 51.536 108.3 50.0738 108.3 50.0738C108.3 50.0738 107.4 57.2745 104.137 61.5496C100.874 65.938 95.3609 67.513 95.3609 67.513C95.3609 67.513 96.3735 62.5622 100.199 57.0491ZM98.5107 50.4113C98.5107 50.4113 92.4353 47.1482 89.5097 42.1974C88.2688 40.097 87.3919 38.361 86.6996 36.9902C85.7601 35.1295 85.1592 33.9399 84.4468 33.4218C84.4468 33.4218 87.147 33.4218 90.8598 35.6718C90.8598 35.6718 95.473 38.035 98.5107 50.4113ZM97.1606 37.9223C97.1606 32.1838 100.311 29.3709 100.311 29.3709C100.664 31.7411 101.266 33.1165 101.822 34.3889C102.507 35.9558 103.124 37.3663 103.124 40.285C103.236 45.46 99.5233 50.6361 99.5233 50.6361C99.1668 47.6818 98.6487 45.9729 98.1887 44.4543C97.6321 42.6189 97.1606 41.0618 97.1606 37.9223ZM94.0108 33.197C94.0108 33.197 93.5606 33.7593 92.548 33.872C92.548 33.872 94.9124 36.9885 96.0699 39.1252C96.1084 39.2207 96.1354 39.2724 96.1486 39.2724L96.0699 39.1252C95.9572 38.8475 95.7438 38.2 95.4793 37.395L95.4788 37.3945V37.3939C95.0555 36.1076 94.4995 34.4194 94.0108 33.1964V33.197ZM89.3976 29.4836C91.4227 32.2965 92.9976 32.6346 92.9976 32.6346C84.3341 31.7342 80.1711 29.3715 77.8084 26.5586C75.333 23.633 74.3205 23.5203 74.3205 23.5203C80.6213 21.0455 87.3724 26.6713 89.3976 29.4836ZM92.7728 31.1712C92.7728 31.1712 88.6098 27.0082 86.9222 23.2955C86.1643 21.7326 85.6457 20.1893 85.1736 18.7834C84.5238 16.8503 83.9615 15.177 82.9846 14.0696C82.9846 14.0696 88.8352 16.9946 91.0852 21.0455C93.3357 25.2085 92.7728 31.1712 92.7728 31.1712ZM74.9955 20.145C82.5338 20.708 86.0217 24.4207 86.0217 24.4207C83.4337 20.9328 78.5956 16.6571 72.8577 14.9695C67.2319 13.1697 61.4939 14.2944 61.4939 14.2944C65.3194 18.4574 67.4567 19.6954 74.9955 20.145ZM109.087 96.091L111.563 93.9538L110.888 93.8411C110.888 93.8411 109.537 93.6162 107.737 93.6162C105.711 93.6162 103.011 93.7284 100.649 94.7409C98.2859 95.6414 96.8231 95.8662 96.0359 95.8662C95.5483 95.8662 95.3195 95.78 95.216 95.7409C95.1522 95.7173 95.1355 95.711 95.1355 95.7535C93.5606 92.8285 91.9851 91.7032 89.3976 91.7032H89.397C88.8346 91.7032 88.2723 91.7032 87.5972 91.8159C86.2103 91.9459 84.1219 92.6267 81.7248 93.4087C77.8993 94.6564 73.2866 96.1606 69.4824 96.091H69.0328C64.082 95.8662 61.1564 91.9286 60.1438 90.3531C60.9316 90.2404 62.9568 90.3531 63.2943 90.4658C63.7445 90.5779 63.9693 90.5779 63.7445 89.7908C63.641 89.0674 63.5381 89.1031 62.9993 89.2876L62.8446 89.3405C62.4553 89.4964 61.4203 89.6516 60.6332 89.7701C60.2818 89.823 59.98 89.8684 59.8063 89.9029C59.919 89.5654 60.0317 89.2278 60.1438 88.7782C61.1564 88.1031 69.4824 82.2519 74.3205 71.3384C76.7959 65.8253 77.8084 61.4375 77.9211 57.7242C78.0338 53.5612 76.6832 50.1859 74.658 47.1482C72.2953 43.5475 69.0328 42.1974 65.7696 42.1974C63.6318 42.1974 61.3818 42.6477 59.3567 43.4354C58.0814 43.9201 56.8163 44.4312 55.5623 44.9684C53.2755 45.9344 51.9996 46.4731 50.1302 46.4731H49.2304C46.1926 46.3604 41.5794 47.1482 39.3288 53.8993C39.0046 54.9803 38.7843 56.1659 38.7677 57.4556C38.7199 57.7207 38.6814 57.9979 38.6538 58.2871L38.77 58.3066C38.9453 65.3878 43.3211 74.0231 44.9547 76.9642C46.9798 80.4522 51.593 86.1901 55.5312 88.1031V88.4407C55.5922 88.6229 55.6198 88.8058 55.6508 89.0065C55.6767 89.1767 55.7043 89.3589 55.756 89.5654L55.6433 89.6781C54.9683 89.5654 53.2807 89.2278 52.7183 89.003C52.6511 88.9693 52.5842 88.935 52.5176 88.9001C52.0404 88.6517 52.0185 88.6402 51.8179 89.3405C51.5936 90.1283 51.8179 90.2404 52.2681 90.1283C52.6056 90.0156 54.5186 90.0156 55.3058 90.1283C54.2938 91.5905 51.2555 95.5287 46.3047 95.6414H45.8551C42.017 95.5712 37.3566 93.9434 33.538 92.61C31.2001 91.7929 29.1772 91.0868 27.853 90.9155C27.1779 90.8033 26.615 90.8033 26.0527 90.8033C23.5773 90.8033 21.8897 91.8159 20.202 94.7409C20.202 94.7409 19.9767 94.8536 19.4143 94.8536C18.6266 94.8536 17.1643 94.6288 14.8011 93.6162C12.4384 92.6037 9.7382 92.3783 7.71305 92.2661C5.9133 92.2661 4.56262 92.3783 4.56262 92.3783L3.88758 92.491L6.25082 94.7409L2.875 97.329L3.09982 97.8914C3.09982 97.8914 4.1124 97.6665 5.68733 97.6665C7.26283 97.6665 9.40068 97.8914 11.7634 98.7918C14.9144 99.9165 18.6265 100.704 20.8771 100.817C22.0024 100.817 22.9023 100.704 23.1271 99.9165V99.579C23.1271 98.9039 23.3525 98.0041 23.5773 97.329C23.9148 96.654 24.3651 96.2037 24.8153 96.2037C25.1689 96.2037 26.1389 96.4889 27.5339 96.8989C31.0167 97.9224 37.145 99.7239 42.9295 99.8044H43.83C51.3682 99.6917 55.5312 93.166 56.5432 91.4784C56.7686 91.7032 56.9934 91.9286 57.331 92.0407H57.8939C58.1187 92.0407 58.3435 91.8159 58.5689 91.5911V91.5905C59.5815 93.3908 63.5197 99.8044 70.9452 100.142H71.8451C77.8027 100.224 84.0558 98.529 87.5138 97.5924C88.8237 97.2376 89.7328 96.9915 90.0726 96.9915C90.5222 96.9915 90.9725 97.4417 91.31 98.1168C91.6475 98.7918 91.7602 99.8044 91.7602 100.367V100.592C91.8729 101.492 92.8855 101.605 94.0102 101.605C96.2607 101.605 99.9735 100.93 103.124 99.9165C105.487 99.1293 107.624 98.9039 109.199 98.9039C110.888 98.9039 111.787 99.1293 111.787 99.1293L112.125 98.5664L109.087 96.091ZM39.3461 58.2457C39.648 65.0157 43.8903 73.6936 45.5176 76.514C47.3173 79.8893 52.0433 85.5151 55.5312 87.3154L55.6433 87.2027L55.5421 87.0584C54.4416 85.4938 48.7629 77.4208 45.18 68.3007C42.8168 62.4501 41.8048 58.2871 41.8048 55.4742C41.8048 54.553 41.944 53.7722 42.2234 53.1512C41.0349 53.9366 39.6813 55.4345 39.3461 58.2457ZM39.6204 54.982C39.6986 54.6427 39.79 54.3167 39.8918 54.0114C42.1418 47.5984 46.1926 47.0355 49.2298 47.0355H50.0175C52.0703 47.0355 53.4037 46.4708 55.5789 45.5491C56.6237 45.1064 57.8628 44.582 59.4688 43.9978C61.4939 43.21 63.6318 42.7604 65.657 42.7604C68.8074 42.7604 71.733 43.9978 73.983 47.373C76.0081 50.4113 77.2461 53.5612 77.1334 57.612C77.1334 61.2121 76.0081 65.4878 73.6454 71.0009C69.2576 80.9018 61.9442 86.5276 60.0317 87.8777H60.0312C59.919 87.6529 59.8063 87.4275 59.6942 87.3154C60.2566 86.8652 65.3194 82.0271 70.0454 73.7011C72.5207 69.2006 73.8708 64.7001 73.8708 60.6498C73.8708 56.8243 72.8582 53.5612 70.6077 51.4239C68.6953 49.6236 66.4447 48.9485 64.082 48.9485C61.5129 48.9485 58.7345 49.646 56.0217 50.3268C55.2891 50.5108 54.5612 50.6936 53.8436 50.8615C51.593 51.4239 50.0181 51.536 48.7801 51.536C48.1861 51.536 47.6865 51.505 47.2144 51.4751C46.7924 51.4486 46.3922 51.4233 45.9672 51.4233C45.2922 51.4233 44.6171 51.4233 43.8294 51.6487C43.6982 51.6923 43.5705 51.7459 43.4476 51.8091C42.5218 52.1127 40.7462 52.9361 39.6204 54.982ZM44.1537 52.2438C44.1954 52.2314 44.2376 52.2204 44.2802 52.2111C44.9547 51.9862 45.5176 51.9862 46.1926 51.9862C46.5514 51.9862 46.9332 52.0092 47.3495 52.0351C47.8469 52.0656 48.3926 52.0984 49.0055 52.0984C50.2429 52.0984 51.9306 51.9862 54.1805 51.4239L55.012 51.2008C58.1256 50.3647 61.3019 49.5109 64.1947 49.5109C66.4447 49.5109 68.5826 50.1859 70.2702 51.7614C72.2953 53.6739 73.4206 56.8243 73.3079 60.5371C73.3079 64.3625 72.0705 68.8631 69.5951 73.2515C64.7571 81.9144 59.3567 86.7525 59.3567 86.7525L59.4688 86.8652C59.0191 86.5276 58.4562 86.4149 58.4562 86.4149H57.4442C57.4442 86.4149 56.8807 86.5276 56.3184 86.7525C55.4185 85.5151 49.5679 77.3018 45.9672 67.9632C43.7173 62.2247 42.592 57.9496 42.7047 55.3615C42.7047 53.8147 43.0727 52.8568 43.7489 52.4278C44.0088 52.3491 44.1669 52.3243 44.1669 52.3243L44.1537 52.2438ZM22.5647 99.6917C22.5647 99.6917 22.5647 99.8044 22.2272 99.9165C22.0024 100.029 21.4394 100.029 20.8777 100.029H20.8771C18.7392 100.029 15.1386 99.2415 11.9888 98.1168C9.51338 97.2163 7.37552 96.9915 5.6879 96.8788H4.1124L7.1507 94.5161L5.23767 92.7158C5.47802 92.7158 5.7592 92.6957 6.08177 92.6721C6.58692 92.6301 7.09348 92.6073 7.60035 92.6037C9.51337 92.6037 12.1009 92.9412 14.4635 93.8411C16.8268 94.8536 18.4023 95.0785 19.3022 95.0785H19.5264C19.2523 95.4873 19.0613 95.946 18.9641 96.4286V96.7667C19.3016 98.1168 21.777 98.6791 22.3393 98.7918V99.2415C22.5647 99.579 22.5647 99.579 22.5647 99.6917ZM22.6774 98.3416C22.5716 98.2887 22.3922 98.2364 22.1737 98.172C21.8873 98.0919 21.6048 97.9983 21.3273 97.8914C20.5396 97.5538 19.7518 97.1042 19.7518 96.7667V96.654C19.7518 96.091 20.5396 95.3039 20.8771 94.9663L24.0275 95.7535C23.2398 96.3164 22.9023 97.329 22.6774 98.3416ZM44.0548 99.0166H43.1538C37.1962 98.9275 31.0977 97.0818 27.6357 96.0341C26.7174 95.7558 25.9854 95.5344 25.4897 95.416L21.2141 94.2913C22.7896 91.9286 24.027 91.253 26.1648 91.253C26.446 91.253 26.7271 91.2812 27.0083 91.3093C27.2901 91.3375 27.5707 91.3657 27.8524 91.3657C29.0364 91.529 30.9016 92.181 33.1045 92.9515C36.9725 94.3034 41.8807 96.0197 45.9672 96.091H46.4169C51.93 95.9789 55.0804 91.7032 56.093 90.2404L56.3178 90.8033L56.2827 90.862C55.5111 92.1517 51.4706 98.9062 44.0542 99.0166H44.0548ZM58.1187 91.253H57.5564C57.2188 91.0282 56.3184 89.4532 56.2062 88.328V88.2153C56.0936 87.3154 57.5564 87.09 57.5564 87.09H58.4562C58.4562 87.09 59.8063 87.4281 59.6942 88.2153V88.328C59.6942 88.7782 59.4688 89.3405 59.244 89.7908L58.6816 90.6906L58.5689 90.8033C58.5689 90.8597 58.5407 90.8873 58.5126 90.9155C58.4844 90.9436 58.4562 90.9718 58.4562 91.0282C58.3441 91.0845 58.2878 91.1409 58.2452 91.1828C58.2032 91.2254 58.1751 91.253 58.1187 91.253ZM71.1701 99.4669C63.7445 99.1293 59.8063 92.1534 59.244 91.0282C59.3003 90.9718 59.3567 90.8879 59.4125 90.8033C59.4688 90.7188 59.5251 90.6343 59.5815 90.5779C60.4814 92.1534 63.6318 96.4286 69.0328 96.654H69.4824C73.5201 96.7247 78.3599 95.1457 82.2336 93.8819C84.5135 93.1378 86.4593 92.5036 87.7099 92.3783C88.3844 92.2661 88.9473 92.2661 89.397 92.2661H89.3976C91.5354 92.2661 92.7728 93.0533 94.2356 95.416L89.9599 96.3164C89.4298 96.4171 88.6225 96.6315 87.603 96.9018C84.08 97.8367 78.0298 99.4416 72.1832 99.3542C71.8457 99.4669 71.5081 99.4669 71.1706 99.4669H71.1701ZM91.31 96.654L94.4604 95.9789C94.798 96.3164 95.5857 97.1042 95.473 97.6665V97.8914C95.473 98.1168 94.6852 98.6791 93.8981 98.9039C93.5991 99.0235 93.3001 99.1115 93.0517 99.1845C92.8326 99.2489 92.6532 99.3013 92.548 99.3542C92.4353 98.3416 92.0977 97.2163 91.31 96.654ZM109.537 98.3416C107.849 98.3416 105.711 98.4543 103.237 99.3542C100.086 100.479 96.4856 101.042 94.3477 101.042C93.8884 101.041 93.4324 100.965 92.9976 100.817C92.9321 100.784 92.8757 100.761 92.8292 100.741C92.7165 100.694 92.6601 100.671 92.6601 100.592V99.9165C93.223 99.8044 95.6978 99.2415 96.1481 98.0041V97.6665C96.1481 97.2163 95.9232 96.654 95.6984 96.3164H95.9232C96.8231 96.3164 98.3986 96.091 100.761 95.1912C103.124 94.2913 105.712 94.0659 107.624 94.1786C108.205 94.1786 108.711 94.2154 109.144 94.247C109.466 94.2706 109.747 94.2913 109.987 94.2913L108.075 95.9789L111 98.3416C110.78 98.4146 110.466 98.3928 110.118 98.3686C109.924 98.3528 109.731 98.3438 109.537 98.3416Z" fill="white"/>
</g>
</g>
<defs>
<filter id="filter0_d_689_627" x="-27.125" y="-12.6055" width="169.25" height="148.211" filterUnits="userSpaceOnUse" color-interpolation-filters="sRGB">
<feFlood flood-opacity="0" result="BackgroundImageFix"/>
<feColorMatrix in="SourceAlpha" type="matrix" values="0 0 0 0 0 0 0 0 0 0 0 0 0 0 0 0 0 0 127 0" result="hardAlpha"/>
<feOffset dy="4"/>
<feGaussianBlur stdDeviation="15"/>
<feComposite in2="hardAlpha" operator="out"/>
<feColorMatrix type="matrix" values="0 0 0 0 1 0 0 0 0 0.415686 0 0 0 0 0.160784 0 0 0 1 0"/>
<feBlend mode="normal" in2="BackgroundImageFix" result="effect1_dropShadow_689_627"/>
<feBlend mode="normal" in="SourceGraphic" in2="effect1_dropShadow_689_627" result="shape"/>
</filter>
<clipPath id="clip0_689_627">
<rect width="115" height="115" fill="white"/>
</clipPath>
</defs>
</svg>
