<svg width="266" height="293" viewBox="0 0 266 293" fill="none" xmlns="http://www.w3.org/2000/svg">
<path d="M53.0304 249.454C54.6503 236.836 61.8118 215.608 66.1599 209.896C70.9342 203.672 72.8951 201.712 88.838 196.341C89.6906 192.078 92.8451 181.336 96.5963 176.817C102.309 168.207 117.91 166.246 122.6 167.269C122.6 167.269 147.835 158.402 176.908 158.402C186.115 160.448 196.772 164.626 202.57 173.407C206.492 179.204 202.058 181.08 204.019 186.366C204.531 187.73 216.467 194.55 221.326 198.642C223.543 200.433 226.015 204.951 227.72 210.834C231.131 222.855 227.465 239.479 231.728 253.973C239.912 281.936 256.537 290.291 256.537 290.291H36.2349C36.4054 290.206 49.5349 276.053 53.0304 249.454Z" fill="white"/>
<path d="M54.3084 249.624C56.0135 238.456 59.4238 227.373 63.7719 216.972C65.9033 211.942 69.143 207.082 73.6616 204.098C75.9635 202.649 78.5212 201.541 81.1641 200.432C83.8071 199.409 86.5353 198.472 89.1782 197.534C89.6045 197.363 89.9455 197.022 90.0308 196.596C90.3718 194.891 90.7981 193.271 91.3096 191.566C93.5263 184.66 95.9135 176.987 102.393 172.98C107.338 169.997 113.22 168.547 118.933 168.291C120.041 168.291 121.235 168.291 122.258 168.462H122.599C122.684 168.462 122.854 168.462 122.94 168.377C127.032 166.416 131.551 165.222 135.984 164.029C149.284 160.96 163.181 159.681 176.822 159.596C185.177 161.556 196.857 166.16 201.972 174.686C202.825 176.05 203.251 177.414 203.081 178.948C202.91 180.653 202.313 182.529 202.74 184.319C202.91 185.087 203.081 185.939 203.422 186.621C204.104 187.559 205.212 188.156 206.065 188.753C210.498 191.651 215.016 194.209 219.279 197.193C220.729 198.216 222.093 199.154 223.116 200.603C226.1 204.866 227.89 209.981 228.657 215.096C230.022 225.497 228.657 236.069 230.022 246.47C231.556 256.871 235.563 266.931 241.19 275.797C245.112 281.765 249.886 287.307 255.939 291.143L256.536 288.756H36.2341L37.1719 290.887C39.7296 287.989 41.7758 284.834 43.6514 281.509C49.4488 271.79 52.8591 260.793 54.3084 249.624ZM51.7507 249.283C50.8129 256.53 49.0225 263.691 46.2943 270.512C43.5661 277.247 40.1559 283.811 35.3815 289.353C34.6995 290.12 35.2963 291.569 36.3193 291.484H256.622C257.304 291.484 257.9 290.887 257.9 290.205C257.9 289.694 257.645 289.268 257.218 289.097C255.854 288.33 254.49 287.221 253.211 286.113C242.043 276.053 235.052 261.134 232.75 246.299C230.789 232.403 234.455 217.398 228.231 204.184C226.782 201.114 224.991 197.875 222.093 195.914C216.807 191.992 211.009 189.094 205.809 185.257C205.724 185.257 205.724 185.172 205.724 185.172C205.809 185.257 205.894 185.428 205.894 185.513C205.383 184.319 205.212 183.296 205.383 181.932C205.638 180.227 206.065 177.925 205.468 176.135C205.212 175.112 204.7 174.174 204.189 173.407C198.05 164.199 187.223 160.107 176.907 157.805C174.008 157.89 171.024 157.379 168.126 157.379C164.118 157.379 160.026 157.976 156.019 158.487C144.51 160.278 133.426 163.347 122.087 165.819L122.854 165.734C120.212 165.222 117.739 165.478 115.181 165.819C98.8122 168.291 93.2705 175.453 88.8372 190.713C88.3257 192.418 87.8994 194.124 87.4731 195.914L88.3257 194.891C80.1411 197.79 70.9334 200.432 65.7328 208.02C63.8571 210.322 62.493 213.05 61.2994 215.778C56.9514 226.691 53.5411 237.689 51.7507 249.283Z" fill="black"/>
<path d="M187.393 193.356C181.084 206.826 171.28 218.251 159.6 227.288C159.173 227.629 159.6 228.311 160.111 228.055C170.512 223.11 179.294 214.67 184.494 204.439C186.2 201.029 187.649 197.363 188.16 193.527C188.331 193.101 187.649 192.93 187.393 193.356Z" fill="black"/>
<path d="M87.5575 196.171C87.3017 210.408 93.0991 224.987 104.182 234.194C104.438 234.45 104.779 234.365 105.035 234.109C105.291 233.853 105.206 233.512 104.95 233.257C102.477 230.869 100.005 228.397 98.1293 225.498C94.2075 219.872 91.8203 213.222 90.712 206.487C90.2004 203.162 89.8594 199.581 90.1152 196.256C90.2004 194.636 87.6427 194.466 87.5575 196.171Z" fill="black"/>
<path d="M137.774 230.015C139.735 236.92 141.355 244.423 140.417 251.584C140.162 253.204 142.634 253.63 142.975 251.925C143.401 248.003 142.89 244.167 142.208 240.416C141.44 236.664 140.503 233.084 139.224 229.503C138.883 228.651 137.433 229.077 137.774 230.015Z" fill="black"/>
<path d="M110.663 228.738C107.849 234.791 105.888 241.1 104.354 247.494C104.183 248.176 104.609 248.858 105.291 249.028C105.974 249.199 106.656 248.773 106.826 248.09C107.679 243.316 108.787 238.542 110.322 233.853C110.833 232.318 111.345 230.784 111.941 229.249C112.283 228.482 111.089 227.885 110.663 228.738Z" fill="black"/>
<path d="M202.227 186.025C199.073 203.246 186.966 217.825 172.387 227.117C167.443 230.272 162.157 233 156.7 235.216C156.359 235.387 156.189 235.728 156.359 236.069C156.444 236.41 156.871 236.581 157.127 236.41C162.753 234.364 168.21 231.806 173.325 228.737C183.726 222.599 192.849 214.073 198.987 203.672C202.142 198.301 204.614 192.675 205.808 186.536C205.978 185.513 205.296 184.575 204.273 184.405C203.335 184.149 202.312 184.916 202.227 186.025Z" fill="black"/>
<path d="M142.891 253.462C145.278 253.206 146.983 250.99 146.471 248.603L145.534 244.084C145.193 242.294 143.487 241.015 141.697 241.271C139.907 241.441 138.457 242.976 138.457 244.852V249.455C138.372 251.842 140.418 253.718 142.891 253.462Z" fill="black"/>
<path d="M103.587 250.307C105.888 251.16 108.361 249.796 108.958 247.409L110.066 242.89C110.492 241.1 109.554 239.309 107.764 238.627C106.059 238.031 104.098 238.798 103.331 240.418L101.285 244.595C100.262 246.897 101.285 249.54 103.587 250.307Z" fill="black"/>
<path d="M214.675 290.205C214.675 290.205 215.442 271.193 218 266.078" stroke="black" stroke-width="5.1257" stroke-miterlimit="10" stroke-linecap="round" stroke-linejoin="round"/>
<path d="M64.1973 247.75C64.1973 247.75 59.4229 274.52 61.2986 290.207" stroke="black" stroke-width="5.1257" stroke-miterlimit="10" stroke-linecap="round" stroke-linejoin="round"/>
<path d="M77.9237 273.496C77.9237 273.496 90.5417 275.372 101.625 274.86" stroke="black" stroke-width="5.1257" stroke-miterlimit="10" stroke-linecap="round" stroke-linejoin="round"/>
<path d="M175.543 182.955C176.737 179.545 177.248 176.049 176.992 172.469C176.992 172.128 176.737 171.957 176.396 171.957C176.14 171.957 175.884 172.213 175.884 172.469C175.628 175.708 174.69 179.033 173.156 181.847C172.388 183.552 174.946 184.66 175.543 182.955Z" fill="black"/>
<path d="M117.91 187.475C120.297 182.104 126.179 179.376 131.38 177.5C134.62 176.477 138.201 175.71 141.611 175.198C149.881 173.919 161.561 171.959 169.831 171.106C169.916 171.106 169.916 170.935 169.831 170.935C167.443 170.68 165.056 170.68 162.669 170.68C155.508 170.85 148.346 171.617 141.27 172.726C134.193 173.834 126.606 175.965 121.235 181.081C119.529 182.871 117.995 184.917 117.568 187.39C117.483 187.645 117.824 187.731 117.91 187.475Z" fill="black"/>
<path d="M109.982 209.386C111.772 218.168 123.367 223.453 142.891 215.525C163.182 207.34 171.963 187.817 174.18 182.02C162.159 159.512 170.514 143.911 170.514 143.911C142.805 141.524 118.593 173.92 118.593 173.92L114.841 189.948C114.5 191.312 113.818 192.506 112.795 193.358C111.005 196.513 108.873 203.76 109.982 209.386Z" fill="white"/>
<path d="M174.605 182.277C172.985 179.805 171.962 176.906 171.28 174.093C170.001 168.21 169.575 162.242 169.489 156.275V154.058C169.745 151.841 170.512 149.539 171.365 147.493C172.473 144.765 168.466 143.06 167.187 145.788C167.017 146.129 167.017 146.726 167.017 147.067C166.761 158.662 166.25 173.581 173.582 183.215C174.093 183.726 175.116 182.959 174.605 182.277Z" fill="black"/>
<path d="M117.654 173.752C116.375 174.519 115.949 175.542 115.778 176.565C115.267 178.611 115.437 180.828 114.926 182.959C114.499 185.005 113.221 186.966 112.88 189.097C112.453 191.314 111.174 196.003 110.663 198.305C110.492 198.816 110.833 199.413 111.43 199.498C111.771 199.584 112.027 199.498 112.283 199.328C113.391 198.39 113.903 197.452 114.585 196.259C115.693 194.213 116.46 192.337 117.142 190.035C117.739 187.989 117.483 185.773 117.995 183.641C118.421 181.595 119.615 179.634 120.041 177.503C120.297 176.48 120.382 175.371 119.615 174.093C119.103 173.581 118.251 173.411 117.654 173.752Z" fill="black"/>
<path d="M111.516 196.255C127.8 195.403 141.1 190.288 154.059 167.184C143.146 176.817 130.272 180.483 116.716 182.188L114.926 190.032C114.585 191.396 112.539 195.403 111.516 196.255Z" fill="black"/>
<path d="M112.197 193.103C109.298 198.56 107.593 205.38 109.383 211.433C110.748 215.696 114.669 218.85 118.932 220.044C128.822 222.687 140.246 218.509 149.028 213.82C159.855 207.767 167.869 197.622 172.985 186.539C173.326 185.686 172.132 185.004 171.621 185.857C169.83 189.437 167.784 192.933 165.482 196.087C163.18 199.327 160.537 202.311 157.553 204.954C148.857 212.797 137.092 217.657 125.326 217.657C113.22 217.316 108.616 210.921 111.43 199.156C111.856 197.281 112.538 195.32 113.476 193.7C113.987 193.018 112.708 192.251 112.197 193.103Z" fill="black"/>
<path d="M79.2033 90.7117C77.6687 97.8731 78.8623 102.647 79.5443 122.426C87.3882 155.164 86.7911 173.323 91.1392 177.671C94.5494 181.081 114.926 185.515 130.016 181.678C137.689 179.717 144.169 175.284 149.454 172.13C156.104 168.123 161.135 155.079 165.909 147.15C169.66 140.927 170.087 149.111 174.946 143.74C181.681 136.408 189.781 121.659 185.774 95.5712C179.294 53.285 145.788 48.3402 120.979 53.0292C96.0841 57.7182 83.2956 71.8705 79.2033 90.7117Z" fill="white"/>
<path d="M170.768 151.241C173.752 146.296 178.015 142.204 180.743 137.089C189.013 121.573 190.718 102.731 185.944 85.8511C175.969 49.8737 139.82 44.5879 108.446 55.1595C90.8832 61.1273 78.521 75.9616 76.7306 94.6323C76.5601 100.6 78.0947 106.142 78.18 112.024C78.6063 127.54 83.4659 142.46 85.3415 157.38C85.7678 162.069 85.7678 167.013 86.4499 171.788C86.6204 172.811 86.7909 173.748 87.1319 174.857C87.8992 177.159 89.6043 178.778 91.48 180.057C98.5563 184.405 106.57 185.173 114.584 185.599C131.295 186.281 145.959 181.421 155.934 167.525C156.275 167.013 155.593 166.417 155.166 166.928C143.998 178.864 130.613 182.7 114.755 181.933C108.02 181.592 93.6114 180.313 90.6274 173.748C89.1781 168.377 89.1781 162.751 88.3255 157.124C87.3877 150.474 84.83 141.181 83.2954 134.617C81.5902 127.199 80.1409 119.697 80.0556 112.109C79.9704 108.273 79.9704 104.437 79.9704 100.6C79.7999 96.7636 80.5672 93.4387 81.505 89.7728C84.9152 75.1943 95.4018 63.0881 109.554 57.7171C123.451 52.3461 139.564 50.982 153.802 55.671C168.296 60.2747 178.186 72.7219 181.937 87.2151C183.898 94.3765 184.921 101.879 185.432 109.296C185.859 116.798 185.091 124.471 182.107 131.462C179.976 136.748 176.48 141.352 172.388 145.188L168.381 149.366C166.505 151.071 169.404 153.287 170.768 151.241Z" fill="black"/>
<path d="M160.709 124.131C160.709 124.131 163.352 111.343 175.799 112.878C186.542 114.242 190.293 139.989 165.91 147.15" fill="white"/>
<path d="M167.018 135.981C168.978 134.872 170.343 132.997 170.428 130.695C170.343 128.99 170.087 127.029 170.513 125.324C170.769 123.704 172.474 123.278 173.753 123.363C175.117 123.619 175.969 125.324 176.225 126.688C176.225 126.773 176.311 127.029 176.311 127.114C176.396 127.54 177.078 127.54 177.248 127.114C178.357 123.789 175.884 120.123 172.303 120.55C167.273 120.891 166.591 126.176 167.529 130.183C168.041 131.888 167.359 133.423 166.421 134.872L166.25 135.128C165.824 135.64 166.506 136.322 167.018 135.981Z" fill="black"/>
<path d="M98.8125 115.093C97.5337 121.146 95.1465 126.773 92.1625 132.059C89.5196 138.538 96.3401 144.676 102.393 144.421C103.075 144.421 103.161 143.483 102.564 143.312C98.7273 142.119 95.2318 139.561 94.635 135.639C94.3792 134.446 94.7202 133.423 95.317 132.4C98.1305 127.114 99.8356 121.061 99.4093 115.093C99.4093 114.667 98.8125 114.667 98.8125 115.093Z" fill="black"/>
<path d="M161.135 124.217C163.096 119.187 167.358 114.412 173.071 114.498C173.582 114.412 174.435 114.583 174.946 114.583C176.396 114.668 177.589 115.18 178.697 116.203C184.154 121.659 183.216 131.293 178.783 137.346C177.248 139.477 175.287 141.353 173.071 142.887C170.854 144.422 168.381 145.616 165.738 146.639C165.142 146.809 165.397 147.747 165.994 147.662C171.706 146.468 177.163 143.655 180.914 138.966C186.712 131.975 187.905 120.295 180.999 113.475C179.465 112.111 177.333 111.088 175.202 111.088C174.52 111.088 173.497 110.917 172.815 111.088C169.234 111.258 165.824 113.048 163.607 115.862C161.646 118.249 160.538 121.148 160.197 124.046C160.197 124.558 160.964 124.728 161.135 124.217Z" fill="black"/>
<path d="M70.8491 72.8086C75.2824 34.9556 112.88 22.1674 105.634 47.4027C105.634 47.4027 115.523 31.5454 137.775 30.6929C156.873 30.0108 145.278 43.5663 145.278 43.5663C145.278 43.5663 160.112 35.0408 185.263 47.829C207.174 58.9973 186.883 68.8016 186.883 68.8016C186.883 68.8016 203.423 77.5828 203.678 96.5093C203.764 101.454 199.671 109.042 189.952 106.569C192.425 125.411 180.915 140.842 175.629 147.15C168.809 155.335 168.212 161.558 168.212 161.558C164.716 159.598 168.809 150.816 168.723 146.213C190.037 138.028 186.201 114.242 175.8 112.878C164.887 111.514 161.477 121.233 160.88 123.62C159.089 121.489 158.578 113.219 157.555 104.438C154.4 103.415 151.587 102.307 149.285 100.857C140.248 95.4862 135.985 86.1935 126.777 80.7372C110.664 71.1035 106.486 92.8434 97.8754 84.8294C87.9004 75.622 80.6536 82.9538 78.4369 94.2927C77.5844 98.3849 72.3837 98.0439 71.6164 93.9517C70.4228 87.9838 69.9113 80.8225 70.8491 72.8086Z" fill="black"/>
<path d="M112.966 111.177C111.09 111.433 109.641 109.472 110.323 107.597C110.664 106.574 111.261 105.636 112.199 105.039C115.098 103.249 125.925 103.078 131.637 107.17C136.753 110.922 121.492 109.984 112.966 111.177Z" fill="black"/>
<path d="M89.3498 112.116C90.8844 112.116 91.8222 110.155 91.0549 108.535C90.6286 107.683 90.0318 106.915 89.1793 106.489C86.5363 105.21 79.4601 105.977 76.3056 110.325C73.4921 114.162 82.2735 112.031 89.3498 112.116Z" fill="black"/>
<path d="M116.12 122.177C120.468 120.301 125.413 120.813 129.931 121.836C130.443 122.006 130.784 121.324 130.358 120.983C126.436 117.744 119.019 117.317 115.864 121.751C115.608 121.921 115.779 122.262 116.12 122.177Z" fill="black"/>
<path d="M82.6158 123.965C84.6619 122.516 87.6459 122.772 90.0331 123.028C90.8856 123.113 91.7382 123.283 92.676 123.539C92.9318 123.624 93.1876 123.198 93.0171 123.028L92.8465 122.857C90.7151 120.64 87.3901 120.129 84.4914 121.237C83.4684 121.664 82.4453 122.26 81.9337 123.454C81.678 123.88 82.2748 124.306 82.6158 123.965Z" fill="black"/>
<path d="M105.293 158.066C110.749 163.267 121.065 159.089 123.793 152.781C124.134 152.013 123.282 151.331 122.6 151.672C121.151 152.44 119.872 153.207 118.508 153.804C114.586 155.594 110.493 157.043 106.145 156.617C105.293 156.446 104.696 157.47 105.293 158.066Z" fill="black"/>
</svg>
